<svg width="575" height="401" viewBox="0 0 575 401" fill="none" xmlns="http://www.w3.org/2000/svg">
<g clip-path="url(#clip0_74_10)">
<path fill-rule="evenodd" clip-rule="evenodd" d="M257.072 54.0554C229.374 64.4472 203.062 86.7473 182.344 107.531C139.208 150.793 132.765 159.892 79.5156 196.241C48.5058 217.426 24.0292 235.31 11.9475 259.261C-21.9261 326.518 18.4358 399.216 102.918 399.216C106.364 399.216 446.486 399.216 446.486 399.216C446.486 399.216 486.893 400.153 516.381 364.16C616.346 242.313 450.558 -18.7321 257.072 54.0554Z" fill="#F5F7F9"/>
<path fill-rule="evenodd" clip-rule="evenodd" d="M251.479 0H561.665C569.004 0 575.045 7.04682 575.045 15.6547V216.222C575.045 224.829 569.004 231.876 561.665 231.876H251.479C244.14 231.876 238.099 224.829 238.099 216.222V15.6547C238.099 7.04682 244.095 0 251.479 0Z" fill="#CED6E0"/>
<path fill-rule="evenodd" clip-rule="evenodd" d="M246.959 7.44824H566.14C566.901 7.44824 567.572 8.07264 567.572 8.87545V223.045C567.572 223.804 566.945 224.473 566.14 224.473H246.959C246.198 224.473 245.527 223.848 245.527 223.045V8.87545C245.527 8.07264 246.198 7.44824 246.959 7.44824Z" fill="#2F3542"/>
<path d="M567.527 182.771H245.527V224.473H567.527V182.771Z" fill="#57606F"/>
<path d="M548.554 193.431H265.395V193.832H548.554V193.431Z" fill="#CED6E0"/>
<path d="M548.554 210.959H265.395V211.36H548.554V210.959Z" fill="#CED6E0"/>
<path d="M266.245 212.43C266.29 212.341 277.521 185.447 285.486 190.22C288.842 192.182 291.169 194.59 293.138 196.597C295.51 199.05 297.3 200.879 299.537 200.522C301.774 200.165 304.459 199.809 307.099 200.032C309.784 200.255 312.424 201.013 314.572 202.931C316.093 204.269 316.988 205.562 317.883 206.811C319.405 208.952 320.747 210.87 324.819 212.386C328.712 213.813 332.56 206.053 335.827 199.496C337.572 195.973 339.138 192.806 340.57 191.513C340.66 191.424 340.749 191.379 340.794 191.29C342.763 189.551 344.91 188.882 347.014 189.015C349.072 189.149 351.086 190.041 352.741 191.468C352.831 191.558 352.92 191.602 353.01 191.691C354.889 193.386 358.961 196.062 363.391 198.025C366.568 199.452 369.969 200.478 372.788 200.478C377.71 200.478 380.753 205.071 383.169 208.773C384.288 210.468 385.272 211.984 386.167 212.653L386.302 212.743C389.255 214.928 393.73 218.184 396.862 216.846C398.16 216.266 400.442 213.769 403.082 210.869C407.064 206.499 411.852 201.191 415.924 199.809C419.235 198.694 423.576 195.795 427.424 193.252C431.183 190.755 434.494 188.614 436.06 188.614C438.208 188.614 444.16 194.1 449.037 198.604C451.319 200.701 453.377 202.618 454.63 203.555C455.749 204.402 457.181 205.651 458.702 206.989C462.506 210.334 467.025 214.259 468.681 213.992C469.844 213.813 472.887 211.583 476.019 208.952C479.465 206.053 483.045 202.574 484.387 200.701C485.73 198.827 487.833 195.884 491.099 193.788C494.366 191.647 498.751 190.353 504.523 191.781C511.549 193.52 517.813 198.381 522.556 202.083C525.42 204.313 527.747 206.097 529.224 206.454C533.117 207.346 538.128 203.6 538.128 203.555L538.755 204.179C538.755 204.179 533.385 208.238 529 207.212C527.3 206.811 524.928 204.982 521.93 202.663C517.231 199.05 511.056 194.234 504.255 192.539C498.84 191.156 494.724 192.405 491.681 194.412C488.593 196.419 486.535 199.273 485.237 201.102C483.85 203.064 480.226 206.588 476.691 209.531C473.424 212.252 470.247 214.571 468.905 214.794C466.757 215.151 462.014 211.048 458.076 207.569C456.554 206.231 455.123 204.982 454.049 204.179C452.751 203.198 450.693 201.28 448.41 199.184C443.667 194.813 437.85 189.461 436.105 189.461C434.852 189.461 431.675 191.558 428.051 193.921C424.158 196.508 419.728 199.407 416.327 200.567C412.523 201.86 407.825 207.078 403.887 211.36C401.158 214.348 398.831 216.935 397.354 217.56C393.685 219.165 388.942 215.686 385.765 213.367L385.63 213.278C384.556 212.52 383.572 210.959 382.409 209.175C380.126 205.651 377.263 201.28 372.877 201.28C369.879 201.28 366.389 200.21 363.033 198.738C358.514 196.731 354.352 194.011 352.383 192.271C352.294 192.182 352.204 192.137 352.16 192.048C350.638 190.755 348.848 189.907 347.014 189.818C345.179 189.729 343.3 190.309 341.51 191.87C341.42 191.914 341.375 192.004 341.286 192.048C339.988 193.208 338.467 196.33 336.767 199.809C333.366 206.677 329.294 214.884 324.551 213.144C320.21 211.538 318.733 209.487 317.167 207.212C316.317 206.008 315.422 204.759 313.99 203.466C312.021 201.726 309.605 201.013 307.099 200.834C304.549 200.611 301.998 200.968 299.805 201.325C297.076 201.771 295.107 199.764 292.556 197.133C290.632 195.17 288.35 192.806 285.084 190.889C278.103 186.741 267.274 212.653 267.23 212.698L266.245 212.43Z" fill="#EA7E2F"/>
<path fill-rule="evenodd" clip-rule="evenodd" d="M429.393 74.3038H430.601V81.8858H435.523V131.124H430.601V138.706H429.393V131.124H424.471V81.9304H429.393V74.3038ZM446.576 81.6182V92.0101H445.368V81.6182H440.446V56.4192H445.368H446.576H451.498V81.6182H446.576ZM463.759 33.9407H464.967V46.9193H469.889V58.7384H464.967V78.3178H463.759V58.7384H458.837V46.9193H463.759V33.9407ZM337.303 74.7052H338.512V82.2872H343.434V131.57H338.512V139.152H337.303V131.57H332.381V82.2872H337.303V74.7052ZM353.278 48.7925H354.486V58.6046H359.409V73.4118H354.486V91.8317H353.278V73.4118H348.356V58.6046H353.278V48.7925ZM274.389 90.2707H275.597V112.08H280.519V161.319H275.597V164.842H274.389V161.319H269.467V112.125H274.389V90.2707ZM515.039 59.1844H519.961V53.5201H521.169V59.229H526.091V77.738H521.169V85.1863H519.961V77.6934H515.039V59.1844Z" fill="#4BA64E"/>
<path fill-rule="evenodd" clip-rule="evenodd" d="M483.313 62.3511H484.521V64.6257H489.444V79.4329H484.521V81.7075H483.313V79.4329H478.391V64.6257H483.313V62.3511ZM501.794 68.1045H503.002V78.9423H507.924V105.569H503.002V116.406H501.794V105.569H496.872V78.9423H501.794V68.1045ZM371.759 76.1771H372.967V80.2803H377.889V106.907H372.967V111.01H371.759V106.907H366.837V80.2803H371.759V76.1771ZM390.91 101.51H392.119V105.569H397.041V131.838H392.119V135.897H390.91V131.838H385.988V105.569H390.91V101.51ZM409.391 105.658H410.599V128.85H415.521V157.795H410.599V161.899H409.391V157.795H404.469V128.85H409.391V105.658ZM299.447 107.486H300.656V111.59H305.578V138.216H300.656V142.319H299.447V138.216H294.525V111.59H299.447V107.486ZM318.599 127.2H319.807V135.094H324.73V149.901H319.807V157.795H318.599V149.901H313.677V135.094H318.599V127.2ZM534.101 95.0876H539.023V84.2497H540.232V95.0876H545.154V121.714H540.232V132.552H539.023V121.714H534.101V95.0876Z" fill="#D43232"/>
<path fill-rule="evenodd" clip-rule="evenodd" d="M263.068 17.0374H352.607C354.352 17.0374 355.784 18.4646 355.784 20.204C355.784 21.9434 354.352 23.3706 352.607 23.3706H263.068C261.323 23.3706 259.891 21.9434 259.891 20.204C259.846 18.4646 261.323 17.0374 263.068 17.0374Z" fill="#CED6E0"/>
<path fill-rule="evenodd" clip-rule="evenodd" d="M263.068 30.9971H307.636C309.381 30.9971 310.813 32.4243 310.813 34.1637C310.813 35.9031 309.381 37.3303 307.636 37.3303H263.068C261.323 37.3303 259.891 35.9031 259.891 34.1637C259.846 32.4243 261.323 30.9971 263.068 30.9971Z" fill="#CED6E0"/>
<path fill-rule="evenodd" clip-rule="evenodd" d="M409.794 165.779L414.403 174.966H405.14L409.794 165.779Z" fill="#F79646"/>
<path fill-rule="evenodd" clip-rule="evenodd" d="M464.34 26.1356L460.045 17.6169H468.591L464.34 26.1356Z" fill="#CED6E0"/>
<path fill-rule="evenodd" clip-rule="evenodd" d="M520.095 49.0155L515.844 40.4968H524.391L520.095 49.0155Z" fill="#CED6E0"/>
<path fill-rule="evenodd" clip-rule="evenodd" d="M319.763 162.612L324.416 171.844H315.154L319.763 162.612Z" fill="#F79646"/>
<path fill-rule="evenodd" clip-rule="evenodd" d="M232.148 305.823L224.541 306.626L234.027 395.693C234.251 397.789 236.13 399.305 238.233 399.082C240.337 398.859 241.858 396.986 241.634 394.89L232.148 305.823Z" fill="#C9DBF5"/>
<path fill-rule="evenodd" clip-rule="evenodd" d="M224.63 306.983L234.027 395.648C234.206 397.521 235.772 398.948 237.607 399.038C238.77 398.279 239.486 396.897 239.307 395.425L229.866 306.358L224.63 306.983Z" fill="#A4B0BE"/>
<path fill-rule="evenodd" clip-rule="evenodd" d="M99.07 305.823L106.677 306.626L97.2354 395.737C97.0117 397.833 95.1323 399.35 93.0292 399.127C90.9261 398.904 89.4047 397.031 89.6284 394.934L99.07 305.823Z" fill="#A4B0BE"/>
<path fill-rule="evenodd" clip-rule="evenodd" d="M173.216 305.823L165.609 306.626L175.051 396.362C175.274 398.458 177.154 399.974 179.257 399.751C181.36 399.528 182.881 397.655 182.658 395.559L173.216 305.823Z" fill="#C9DBF5"/>
<path fill-rule="evenodd" clip-rule="evenodd" d="M165.654 307.028L175.051 396.362C175.23 398.279 176.796 399.707 178.63 399.796C179.794 399.038 180.51 397.655 180.331 396.183L170.934 306.448L165.654 307.028Z" fill="#A4B0BE"/>
<path fill-rule="evenodd" clip-rule="evenodd" d="M158.226 305.823L165.833 306.626L156.391 395.737C156.167 397.833 154.288 399.35 152.185 399.127C150.082 398.904 148.56 397.031 148.784 394.934L158.226 305.823Z" fill="#A4B0BE"/>
<path fill-rule="evenodd" clip-rule="evenodd" d="M163.058 294.718H233.267C237.025 294.718 240.113 297.795 240.113 301.542C240.113 305.288 237.025 308.365 233.267 308.365H163.058C159.3 308.365 156.212 305.288 156.212 301.542C156.212 297.795 159.3 294.718 163.058 294.718Z" fill="#CED6E0"/>
<path fill-rule="evenodd" clip-rule="evenodd" d="M141.848 188.346H77.6362L93.7899 294.941L158.002 294.985C158.27 294.985 158.494 294.985 158.763 294.941C161.403 294.941 163.193 292.042 162.745 289.455L147.352 192.316C146.949 189.729 144.488 188.346 141.848 188.346Z" fill="#CED6E0"/>
<path fill-rule="evenodd" clip-rule="evenodd" d="M82.3794 192.361L98.9806 296.636C99.3833 299.223 97.6381 302.122 94.9981 302.122C92.358 302.122 89.8969 300.739 89.4942 298.152L72.893 193.877C72.4903 191.29 74.2354 188.391 76.8755 188.391C79.5603 188.347 81.9767 189.729 82.3794 192.361Z" fill="#A4B0BE"/>
<path fill-rule="evenodd" clip-rule="evenodd" d="M98.1751 294.718H169.949C173.708 294.718 176.796 297.795 176.796 301.542C176.796 305.288 173.708 308.365 169.949 308.365H98.1751C94.4163 308.365 91.3288 305.288 91.3288 301.542C91.3288 297.795 94.4163 294.718 98.1751 294.718Z" fill="#A4B0BE"/>
<path fill-rule="evenodd" clip-rule="evenodd" d="M168.204 186.072C171.784 193.877 176.169 216.4 192.278 227.282C209.819 239.101 251.344 233.972 250.091 227.728C249.957 227.015 245.125 224.294 242.574 224.071C240.426 223.893 234.833 224.473 232.73 223.937C222.796 221.351 211.072 217.426 194.874 203.957C189.817 199.764 183.329 174.52 168.92 167.117C167.265 166.046 163.237 178.579 168.204 186.072Z" fill="#F7AAAC"/>
<path fill-rule="evenodd" clip-rule="evenodd" d="M178.809 206.454C183.821 205.473 189.37 201.057 192.86 197.534C186.998 182.727 178.854 166.358 165.475 161.765L163.595 172.736L166.28 189.506L178.809 206.454Z" fill="#F79F2D"/>
<path fill-rule="evenodd" clip-rule="evenodd" d="M222.393 388.78L226.152 375.979L215.01 372.991L211.34 386.148L222.393 388.78Z" fill="#F8A98E"/>
<path fill-rule="evenodd" clip-rule="evenodd" d="M155.899 258.19L181.584 253.329C181.584 253.329 246.601 256.674 260.249 282.051C273.897 307.429 228.389 378.7 228.389 378.7L211.564 376.648C211.564 376.648 220.916 331.513 225.346 317.999C229.731 304.485 232.237 297.661 232.237 297.661L159.121 271.972L155.899 258.19Z" fill="#2F3542"/>
<path fill-rule="evenodd" clip-rule="evenodd" d="M211.34 377.407C212.012 374.106 213.309 368.13 214.831 361.083C213.399 367.996 212.146 373.749 211.34 377.407ZM155.899 258.19L165.564 260.42C172.992 260.554 204.36 265.817 209.774 266.977C228.031 270.901 229.284 281.65 227.226 295.967L159.076 272.016L155.899 258.19Z" fill="#21242A"/>
<path fill-rule="evenodd" clip-rule="evenodd" d="M197.558 385.167L198.677 373.571L186.998 373.883L187.132 387.129L197.558 385.167Z" fill="#F8A98E"/>
<path fill-rule="evenodd" clip-rule="evenodd" d="M198.14 383.205C201.451 389.092 206.821 394.756 202.615 399.751H181.27C181.226 399.662 181.181 399.573 181.181 399.439C180.957 398.77 179.973 398.458 180.644 395.96C181.897 391.277 185.521 384.097 186.774 383.74C189.235 383.026 192.77 385.078 198.14 383.205Z" fill="#031542"/>
<path fill-rule="evenodd" clip-rule="evenodd" d="M204.226 395.871C204.27 397.432 204.091 398.815 202.615 399.796H181.27C180.152 399.172 179.883 398.726 180.644 396.005L204.226 395.871Z" fill="#A4B0BE"/>
<path fill-rule="evenodd" clip-rule="evenodd" d="M189.683 382.625H194.605C195.276 382.625 195.858 383.16 195.858 383.874V390.207C195.858 390.876 195.321 391.456 194.605 391.456H189.683C189.012 391.456 188.43 390.92 188.43 390.207V383.874C188.43 383.205 189.012 382.625 189.683 382.625Z" fill="#2F3542"/>
<path fill-rule="evenodd" clip-rule="evenodd" d="M121.712 260.287C121.712 260.287 119.027 285.396 132.586 291.863C146.144 298.331 188.43 299 188.43 299C179.883 330.889 187.311 349.799 184.492 378.254L202.883 378.343C202.883 378.343 214.204 327.588 218.366 298.821C220.469 284.326 220.916 272.775 202.481 268.805C196.261 267.467 155.899 258.146 155.899 258.146L121.712 260.287Z" fill="#2F3542"/>
<path fill-rule="evenodd" clip-rule="evenodd" d="M107.572 171.131C101.531 195.616 122.339 222.51 120.593 271.303C138.671 273.8 184.045 259.796 187.043 253.775C184.537 235.578 181.047 222.689 180.644 212.743C180.107 198.382 179.167 173.941 170.8 165.065C162.835 156.591 125.426 154.629 107.572 171.131Z" fill="#F79F2D"/>
<path d="M158.181 159.713C151.872 158.375 143.817 157.082 133.346 159.535C129.498 170.328 143.459 177.687 152.767 176.394C162.477 175.011 163.64 163.549 158.181 159.713Z" fill="#F1800E"/>
<path fill-rule="evenodd" clip-rule="evenodd" d="M162.387 225.944L126.679 216.757L121.399 198.248L116.298 197.623C116.298 197.623 110.123 211.806 110.257 212.654C110.391 213.501 116.342 225.811 115.984 225.9C115.671 225.989 139.342 229.557 141.222 229.646C143.146 229.78 162.387 225.944 162.387 225.944Z" fill="#F1800E"/>
<path fill-rule="evenodd" clip-rule="evenodd" d="M155.541 154.049L155.63 160.382L156.57 161.185C160.15 165.065 156.167 172.959 152.095 172.692C141.669 173.138 133.749 164.575 136.926 159.981L138.313 158.464L138.671 149.5C138.134 149.455 134.241 147.225 133.078 146.868C131.914 146.511 130.214 144.237 130.125 141.918C130.035 139.554 133.66 140.357 133.66 140.357C129.274 134.291 124.307 129.296 130.84 123.899C137.374 118.503 152.364 115.425 152.364 115.425L161.358 112.392C160.195 115.47 160.553 122.115 162.79 128.582C165.967 137.725 163.237 150.213 155.541 154.049Z" fill="#F7AAAC"/>
<path fill-rule="evenodd" clip-rule="evenodd" d="M142.833 150.793C142.833 150.793 147.844 159.535 152.051 160.338C156.212 161.14 154.109 160.561 155.63 160.382L155.541 154.049C152.632 154.495 149.858 154.227 142.833 150.793Z" fill="#EA8287"/>
<path fill-rule="evenodd" clip-rule="evenodd" d="M260.518 227.282H190.712C189.728 227.282 188.877 228.085 188.877 229.111C188.877 230.092 189.683 230.94 190.712 230.94H262.352V229.111C262.352 228.085 261.502 227.282 260.518 227.282Z" fill="#CED6E0"/>
<path fill-rule="evenodd" clip-rule="evenodd" d="M113.344 168.99C95.893 176.75 102.65 213.233 105.737 226.524C108.78 238.923 180.51 232.768 191.204 232.322C190.444 230.048 189.056 224.919 183.955 223.581C180.51 222.689 165.475 223.982 160.955 223.135C139.656 218.942 120.504 220.236 120.414 219.433C119.743 203.466 126.724 181.79 117.953 171.265C117.237 170.283 114.642 168.41 113.344 168.99Z" fill="#F7AAAC"/>
<path fill-rule="evenodd" clip-rule="evenodd" d="M226.733 159.267H149.768C146.77 159.267 146.278 161.809 145.652 164.753L134.778 217.649C134.376 220.146 133.302 224.428 139.969 224.428L218.813 224.473L232.953 163.727C233.446 161.229 231.253 159.267 226.733 159.267Z" fill="#CED6E0"/>
<path fill-rule="evenodd" clip-rule="evenodd" d="M230 160.338H151.156C148.158 160.338 147.621 162.835 147.039 165.823L137.239 217.649L136.702 220.726C136.344 222.778 138.403 224.473 140.461 224.473H218.679C220.737 224.473 222.125 222.778 222.438 220.726L222.885 217.649H222.975L232.774 165.065C233.267 162.478 232.551 160.338 230 160.338Z" fill="#DFE4EA"/>
<path fill-rule="evenodd" clip-rule="evenodd" d="M137.329 222.956C138.045 223.848 139.253 224.473 140.461 224.473H218.679C219.619 224.473 220.469 224.116 221.095 223.491L209.64 215.151L158.405 215.82L137.329 222.956Z" fill="#A4B0BE"/>
<path fill-rule="evenodd" clip-rule="evenodd" d="M221.095 223.536C221.811 222.822 222.304 221.841 222.483 220.726L222.93 217.649H223.019L232.819 165.065C233.132 163.281 232.909 161.676 231.79 160.873L216.576 175.635L209.595 215.24L221.095 223.536Z" fill="#CED6E0"/>
<path fill-rule="evenodd" clip-rule="evenodd" d="M150.037 160.471C148.023 161.051 147.531 163.281 147.039 165.779L137.239 217.649L136.702 220.726C136.568 221.574 136.837 222.332 137.329 222.956L158.405 215.776L165.161 175.591L150.037 160.471Z" fill="#F5F7F9"/>
<path fill-rule="evenodd" clip-rule="evenodd" d="M230 160.338H151.156C150.753 160.338 150.35 160.382 150.037 160.471L165.206 175.591H216.576L232.148 161.185C231.7 160.65 230.984 160.338 230 160.338Z" fill="white"/>
<path fill-rule="evenodd" clip-rule="evenodd" d="M384.288 230.895H161V242.803H384.288C387.554 242.803 390.284 240.127 390.284 236.827C390.284 233.571 387.554 230.895 384.288 230.895Z" fill="#A4B0BE"/>
<path fill-rule="evenodd" clip-rule="evenodd" d="M384.288 230.895H162.7V236.871H390.284C390.284 233.571 387.554 230.895 384.288 230.895Z" fill="#A4B0BE"/>
<path fill-rule="evenodd" clip-rule="evenodd" d="M167.981 230.895H74.5934C71.3269 230.895 68.5973 233.571 68.5973 236.871C68.5973 240.127 71.2821 242.848 74.5934 242.848H167.981C171.247 242.848 173.977 240.172 173.977 236.871C173.977 233.571 171.247 230.895 167.981 230.895Z" fill="#747D8C"/>
<path d="M344.508 242.803H334.798V399.751H344.508V242.803Z" fill="#747D8C"/>
<path d="M344.508 242.803H342.673V399.751H344.508V242.803Z" fill="#A4B0BE"/>
<path d="M126.5 242.803H116.298V399.751H126.5V242.803Z" fill="#747D8C"/>
<path d="M126.5 242.803H124.576V399.751H126.5V242.803Z" fill="#A4B0BE"/>
<path fill-rule="evenodd" clip-rule="evenodd" d="M159.434 127.467C152.274 130.678 144.086 123.988 139.7 129.563C137.553 132.329 137.91 136.164 140.685 141.962C141.49 143.702 142.564 144.95 139.521 143.657C138.134 143.077 135.852 142.274 135.136 142.943C133.481 144.371 134.465 147.225 135.852 148.117C136.479 148.518 137.642 149.098 137.642 149.098C120.414 145.441 113.076 106.327 153.885 109.092C155.138 109.181 155.362 106.996 156.66 107.308C166.772 109.538 168.204 122.561 159.434 127.467Z" fill="#21242A"/>
<path fill-rule="evenodd" clip-rule="evenodd" d="M225.123 382.848C225.123 382.848 240.516 389.136 245.617 391.634C249.599 393.596 251.837 397.655 248.57 399.751H208.745C208.7 399.662 208.656 399.573 208.656 399.439C208.074 397.476 206.508 383.472 210.669 383.784C213.265 384.007 219.395 385.791 225.123 382.848Z" fill="#031542"/>
<path fill-rule="evenodd" clip-rule="evenodd" d="M250.181 395.871L250.136 397.477C250.091 398.726 249.644 399.127 248.57 399.796H208.566C208.521 399.707 208.477 399.618 208.477 399.484C208.342 399.082 208.074 397.12 207.94 396.005L250.181 395.871Z" fill="#A4B0BE"/>
<path fill-rule="evenodd" clip-rule="evenodd" d="M226.823 383.561C232.372 385.836 241.634 389.761 245.438 391.545C243.424 393.061 241.545 392.794 241.545 392.794C241.545 392.794 230.716 389.448 227.673 387.263C225.883 385.97 226.241 384.542 226.823 383.561Z" fill="#2F3542"/>
<path fill-rule="evenodd" clip-rule="evenodd" d="M120.951 169.213C120.951 169.213 123.949 176.973 123.636 190.175C123.278 203.377 121.488 215.508 121.488 215.508C121.488 215.508 120.101 216.266 113.344 217.649C106.632 219.031 102.471 216.891 102.471 216.891C100.457 204.759 97.3697 173.718 112.315 167.83C115.582 166.582 120.951 169.213 120.951 169.213Z" fill="#F79F2D"/>
<path fill-rule="evenodd" clip-rule="evenodd" d="M193.486 191.602H180.062L184.895 230.895H198.319L193.486 191.602Z" fill="#CED6E0"/>
<path fill-rule="evenodd" clip-rule="evenodd" d="M202.212 187.722H178.586C177.691 187.722 177.512 188.48 177.333 189.372L174.379 204.893L174.2 205.83C174.111 206.454 174.693 206.945 175.319 206.945H198.767C199.393 206.945 199.796 206.41 199.885 205.83L200.019 204.893H200.064L203.017 189.105C203.196 188.391 202.973 187.722 202.212 187.722Z" fill="#CED6E0"/>
<path fill-rule="evenodd" clip-rule="evenodd" d="M321.687 159.178H244.722C241.724 159.178 241.187 161.676 240.605 164.664L230.313 217.649C229.91 220.146 228.837 224.428 235.504 224.428L314.348 224.473L328.13 162.835C328.578 160.293 324.237 159.178 321.687 159.178Z" fill="#CED6E0"/>
<path fill-rule="evenodd" clip-rule="evenodd" d="M325.49 160.338H246.646C243.648 160.338 243.111 162.835 242.529 165.823L232.774 217.649L232.237 220.726C231.879 222.778 233.938 224.473 235.996 224.473H314.214C316.272 224.473 317.66 222.778 317.973 220.726L318.42 217.649H318.51L328.309 165.065C328.802 162.478 328.086 160.338 325.49 160.338Z" fill="#DFE4EA"/>
<path fill-rule="evenodd" clip-rule="evenodd" d="M232.819 222.956C233.535 223.848 234.743 224.473 235.951 224.473H314.169C315.109 224.473 315.959 224.116 316.586 223.491L305.13 215.151L253.94 215.776L232.819 222.956Z" fill="#A4B0BE"/>
<path fill-rule="evenodd" clip-rule="evenodd" d="M316.586 223.536C317.302 222.822 317.794 221.841 317.973 220.726L318.42 217.649H318.51L328.309 165.065C328.623 163.281 328.399 161.676 327.28 160.873L312.066 175.635L305.086 215.24L316.586 223.536Z" fill="#CED6E0"/>
<path fill-rule="evenodd" clip-rule="evenodd" d="M245.527 160.471C243.514 161.051 243.021 163.281 242.529 165.779L232.774 217.649L232.237 220.726C232.103 221.574 232.372 222.332 232.864 222.956L253.94 215.776L260.696 175.591L245.527 160.471Z" fill="#F5F7F9"/>
<path fill-rule="evenodd" clip-rule="evenodd" d="M325.49 160.338H246.646C246.243 160.338 245.84 160.382 245.527 160.471L260.696 175.591H312.111L327.683 161.185C327.191 160.65 326.475 160.338 325.49 160.338Z" fill="white"/>
<path fill-rule="evenodd" clip-rule="evenodd" d="M297.747 187.722H274.121C273.226 187.722 273.047 188.48 272.868 189.372L269.914 204.893L269.735 205.83C269.646 206.454 270.228 206.945 270.854 206.945H294.302C294.928 206.945 295.331 206.41 295.42 205.83L295.554 204.893H295.599L298.553 189.105C298.732 188.391 298.508 187.722 297.747 187.722Z" fill="#CED6E0"/>
<path fill-rule="evenodd" clip-rule="evenodd" d="M289.827 191.602H276.358L281.235 230.895H294.66L289.827 191.602Z" fill="#CED6E0"/>
<path fill-rule="evenodd" clip-rule="evenodd" d="M23.7607 399.216H563.008C563.5 399.216 563.903 399.617 563.903 400.108C563.903 400.599 563.5 401 563.008 401H23.7607C23.2685 401 22.8658 400.599 22.8658 400.108C22.8658 399.617 23.2685 399.216 23.7607 399.216Z" fill="#2F3542"/>
<path d="M165.967 15.387C185.342 22.7015 195.097 44.2433 187.804 63.5552C180.465 82.8671 158.852 92.5899 139.477 85.3201C120.101 78.0057 110.346 56.4638 117.64 37.1519C124.934 17.8401 146.591 8.07262 165.967 15.387Z" fill="#CED6E0"/>
<path d="M141.714 42.0134C141.625 42.6824 141.58 43.4852 141.625 44.2434L141.58 44.3326C141.714 44.511 141.893 45.7598 142.027 46.1166C142.206 46.6964 142.609 47.2316 142.743 47.6776C142.833 47.7668 143.414 48.5696 143.593 48.748C143.951 49.1494 144.175 49.2832 144.578 49.6846C144.981 49.9522 145.339 50.2644 145.831 50.532C147.128 51.3794 148.56 52.0038 150.037 52.539C151.961 53.208 154.556 54.1446 155.541 55.3934C156.928 57.1774 155.944 59.7642 153.08 60.1656C151.469 60.3886 148.963 60.2548 147.263 59.8534C146.726 59.7196 146.189 59.5412 145.652 59.4074C145.16 59.1844 143.37 58.56 143.146 58.337L142.698 58.2032C142.654 58.4262 142.654 58.6046 142.519 58.7384C142.564 59.006 142.385 59.7196 142.251 59.9426C142.206 60.1656 141.669 62.574 141.446 62.8416C141.446 63.0646 141.356 63.689 141.356 64.0458C141.49 64.135 141.356 64.0458 141.49 64.135L141.714 64.358C141.938 64.358 142.788 64.6702 142.967 64.804L145.831 65.6068L147.173 65.8744L149.187 66.142C149.366 66.0974 149.366 66.0974 149.589 66.142L149.724 66.1866C149.858 66.2312 149.813 66.2312 149.858 66.2758L149.947 66.4988C149.992 66.8556 149.858 70.2453 149.992 70.9589H154.959C155.049 69.4425 155.004 67.703 155.004 66.1866C155.004 65.6514 155.093 65.7852 155.63 65.6514C157.017 65.3392 157.644 64.9378 158.449 64.7148C158.584 64.581 159.523 64.135 159.837 63.912C160.06 63.7782 160.284 63.6444 160.508 63.466C160.732 63.2876 160.866 63.1092 161.089 63.02C161.224 62.797 162.163 61.905 162.924 60.6116C163.953 58.783 163.685 58.0694 163.998 57.4004V55.3488C163.864 55.0366 163.909 54.5014 163.819 54.1446C163.372 51.87 161.582 49.9522 159.702 48.748C156.391 46.6964 149.813 45.4922 149.455 42.6824C149.232 41.0768 150.663 40.1402 151.961 39.828C153.482 39.4711 155.451 39.6049 156.973 39.9172C158.047 40.1402 161 41.2106 161.089 41.2106C161.313 40.8984 161.268 40.5862 161.447 40.3186C161.447 40.0064 161.582 39.4711 161.716 39.2035C161.85 38.4899 162.566 36.1261 162.477 35.5463C161.94 35.1449 161.626 35.2341 161.313 34.9665L161.268 35.0111C160.955 34.9219 159.837 34.6989 159.613 34.5205C159.3 34.5651 158.047 34.2529 157.599 34.1637C157.152 34.0745 155.72 34.0299 155.496 33.8961C154.959 33.5839 155.317 30.6849 155.183 29.4807H150.216C150.126 30.3727 150.35 33.7623 150.037 34.2529C149.679 34.8773 143.146 35.2787 141.714 42.0134Z" fill="white"/>
</g>
<defs>
<clipPath id="clip0_74_10">
<rect width="575" height="401" fill="white"/>
</clipPath>
</defs>
</svg>
