<svg width="593" height="300" viewBox="0 0 593 300" fill="none" xmlns="http://www.w3.org/2000/svg">
<g clip-path="url(#clip0_183_208)">
<path fill-rule="evenodd" clip-rule="evenodd" d="M284.261 242.861C282.863 273.589 279.094 281.335 253.133 298.857H310.688H368.243C342.282 281.335 338.513 273.589 337.115 242.861L310.688 240.364L284.261 242.861Z" fill="#CED6E0"/>
<path fill-rule="evenodd" clip-rule="evenodd" d="M156.911 0H466.455C477.551 0 486.614 10.1157 486.614 22.4323V221.021V223.9C486.614 236.258 477.551 246.332 466.455 246.332H156.911C145.815 246.332 136.752 236.216 136.752 223.9V221.021V209.128V22.4323C136.752 10.1157 145.857 0 156.911 0Z" fill="#CED6E0"/>
<path d="M146.704 11.724H476.28C476.407 11.724 476.534 11.851 476.534 11.978V209.17H146.492V11.978C146.492 11.8087 146.577 11.724 146.704 11.724Z" fill="#2F3542"/>
<path d="M476.534 170.951H146.492V209.128H476.534V170.951Z" fill="#57606F"/>
<path d="M338.004 246.332H283.371V256.067H338.004V246.332Z" fill="#A4B0BE"/>
<path d="M338.004 246.332H283.371V256.067H338.004V246.332Z" stroke="#CED6E0" stroke-width="0.216" stroke-miterlimit="22.9256"/>
<path d="M521.003 298.857H23.5469V300H521.003V298.857Z" fill="#000446"/>
<path d="M410.467 179.543H156.572V179.966H410.467V179.543Z" fill="#CED6E0"/>
<path d="M410.467 197.658H156.572V198.081H410.467V197.658Z" fill="#CED6E0"/>
<path d="M421.224 196.938C424.612 196.6 428.127 193.849 428.127 193.849L428.72 194.526C428.72 194.526 424.993 197.489 421.224 197.827V196.938ZM156.699 199.182C156.742 199.097 167.838 171.332 175.673 176.242C178.976 178.273 181.263 180.77 183.211 182.844C185.54 185.341 187.319 187.246 189.521 186.907C191.724 186.527 194.349 186.188 196.975 186.4C199.643 186.611 202.227 187.415 204.344 189.405C205.826 190.801 206.758 192.156 207.605 193.426C209.088 195.626 210.443 197.616 214.466 199.182C218.278 200.663 222.089 192.621 225.308 185.892C227.044 182.252 228.611 178.95 229.967 177.638C230.051 177.554 230.136 177.469 230.221 177.427C232.169 175.649 234.286 174.929 236.362 175.099C238.394 175.226 240.385 176.157 242.037 177.638C242.121 177.723 242.206 177.808 242.291 177.892C244.154 179.628 248.178 182.421 252.54 184.41C255.674 185.892 259.019 186.95 261.815 186.95C266.685 186.95 269.65 191.69 272.021 195.542C273.122 197.277 274.096 198.843 274.986 199.52L275.113 199.647C278.035 201.891 282.44 205.277 285.531 203.88C286.802 203.287 289.046 200.705 291.672 197.7C295.611 193.172 300.354 187.712 304.335 186.273C307.596 185.087 311.874 182.125 315.685 179.501C319.412 176.919 322.631 174.718 324.198 174.718C326.315 174.718 332.202 180.389 336.988 185.003C339.275 187.204 341.265 189.151 342.493 190.124C343.595 191.013 344.992 192.283 346.517 193.679C350.286 197.108 354.733 201.213 356.385 200.917C357.528 200.705 360.535 198.42 363.627 195.711C367.057 192.706 370.53 189.151 371.885 187.161C373.198 185.214 375.273 182.209 378.492 180.008C381.711 177.808 386.03 176.453 391.705 177.935C392.002 178.019 392.256 178.104 392.552 178.188V179.12C392.171 178.993 391.833 178.908 391.451 178.781C386.115 177.384 382.049 178.612 379.042 180.686C375.993 182.76 373.96 185.722 372.69 187.585C371.335 189.616 367.735 193.214 364.304 196.304C361.086 199.139 357.952 201.51 356.596 201.721C354.479 202.102 349.82 197.827 345.924 194.23C344.399 192.833 343.044 191.563 341.943 190.717C340.672 189.701 338.64 187.754 336.353 185.553C331.694 181.024 325.934 175.522 324.24 175.522C323.012 175.522 319.878 177.681 316.321 180.135C312.467 182.802 308.147 185.807 304.759 186.992C301.032 188.347 296.373 193.722 292.519 198.166C289.851 201.256 287.522 203.922 286.082 204.557C282.44 206.208 277.781 202.61 274.647 200.24L274.52 200.113C273.461 199.309 272.487 197.7 271.344 195.88C269.099 192.24 266.262 187.754 261.942 187.754C258.977 187.754 255.547 186.654 252.243 185.13C247.796 183.056 243.646 180.22 241.74 178.442C241.656 178.358 241.571 178.315 241.486 178.231C239.961 176.876 238.225 176.03 236.404 175.945C234.625 175.818 232.762 176.453 230.983 178.062C230.898 178.146 230.856 178.188 230.771 178.273C229.501 179.501 227.976 182.717 226.282 186.273C222.936 193.383 218.913 201.848 214.212 200.028C209.935 198.335 208.495 196.219 206.928 193.933C206.081 192.706 205.191 191.394 203.794 190.082C201.888 188.304 199.474 187.542 197.017 187.331C194.519 187.119 191.978 187.458 189.818 187.796C187.107 188.262 185.202 186.188 182.66 183.479C180.755 181.448 178.51 179.035 175.291 177.046C168.43 172.771 157.758 199.52 157.716 199.563L156.699 199.182Z" fill="#F79646"/>
<path fill-rule="evenodd" clip-rule="evenodd" d="M158.733 19.1309H240.555C242.164 19.1309 243.477 20.443 243.477 22.0513C243.477 23.6597 242.164 24.9718 240.555 24.9718H158.733C157.123 24.9718 155.811 23.6597 155.811 22.0513C155.811 20.443 157.123 19.1309 158.733 19.1309Z" fill="#CED6E0"/>
<path fill-rule="evenodd" clip-rule="evenodd" d="M158.733 31.9131H199.432C201.042 31.9131 202.354 33.2252 202.354 34.8335C202.354 36.4419 201.042 37.7539 199.432 37.7539H158.733C157.123 37.7539 155.811 36.4419 155.811 34.8335C155.811 33.2252 157.123 31.9131 158.733 31.9131Z" fill="#CED6E0"/>
<path d="M229.078 79.3172H219.295V123.039H229.078V79.3172Z" fill="#4BA64E"/>
<path d="M224.715 72.5875H223.656V129.811H224.715V72.5875Z" fill="#4BA64E"/>
<path d="M243.18 58.2816H233.396V71.4024H243.18V58.2816Z" fill="#4BA64E"/>
<path d="M238.819 49.605H237.76V87.7822H238.819V49.605Z" fill="#4BA64E"/>
<path d="M310.56 78.9786H300.777V122.7H310.56V78.9786Z" fill="#4BA64E"/>
<path d="M306.24 72.2489H305.182V129.472H306.24V72.2489Z" fill="#4BA64E"/>
<path d="M324.705 56.377H314.922V78.7669H324.705V56.377Z" fill="#4BA64E"/>
<path d="M320.344 56.377H319.285V87.9938H320.344V56.377Z" fill="#4BA64E"/>
<path d="M340.969 47.9543H331.186V58.4509H340.969V47.9543Z" fill="#4BA64E"/>
<path d="M336.606 36.4419H335.547V75.8465H336.606V36.4419Z" fill="#4BA64E"/>
<path d="M390.73 58.8318H380.947V75.254H390.73V58.8318Z" fill="#4BA64E"/>
<path d="M386.369 53.7528H385.311V81.8567H386.369V53.7528Z" fill="#4BA64E"/>
<path d="M173.385 105.77H163.602V149.492H173.385V105.77Z" fill="#4BA64E"/>
<path d="M169.024 86.4278H167.965V152.666H169.024V86.4278Z" fill="#4BA64E"/>
<path fill-rule="evenodd" clip-rule="evenodd" d="M352.912 61.6253H353.97V63.6569H358.333V76.7777H353.97V78.8093H352.912V76.7777H348.55V63.6569H352.912V61.6253ZM369.259 66.7043H370.318V76.3544H374.68V99.9718H370.318V109.622H369.259V99.9718H364.897V76.3544H369.259V66.7043ZM254.107 73.8996H255.165V77.5395H259.528V101.157H255.165V104.797H254.107V101.157H249.744V77.5395H254.107V73.8996ZM271.089 96.3742H272.148V99.9718H276.51V123.293H272.148V126.891H271.089V123.293H266.727V99.9718H271.089V96.3742ZM287.479 100.056H288.538V120.626H292.9V146.318H288.538V149.958H287.479V146.318H283.117V120.626H287.479V100.056ZM190.114 101.665H191.173V105.305H195.535V128.922H191.173V132.562H190.114V128.922H185.752V105.305H190.114V101.665ZM207.097 119.187H208.156V126.171H212.518V139.292H208.156V146.275H207.097V139.292H202.735V126.171H207.097V119.187ZM397.804 90.6603H402.166V81.0102H403.225V90.6603H407.587V114.278H403.225V123.928H402.166V114.278H397.804V90.6603Z" fill="#D43232"/>
<path fill-rule="evenodd" clip-rule="evenodd" d="M287.777 153.386L291.885 161.597H283.711L287.777 153.386Z" fill="#F79646"/>
<path fill-rule="evenodd" clip-rule="evenodd" d="M336.056 29.5006L332.287 21.9244H339.868L336.056 29.5006Z" fill="#A4B0BE"/>
<path fill-rule="evenodd" clip-rule="evenodd" d="M385.437 49.8166L381.668 42.2404H389.249L385.437 49.8166Z" fill="#A4B0BE"/>
<path fill-rule="evenodd" clip-rule="evenodd" d="M208.113 150.635L212.221 158.804H204.047L208.113 150.635Z" fill="#F79646"/>
<path fill-rule="evenodd" clip-rule="evenodd" d="M369.471 116.225L373.537 124.393H365.363L369.471 116.225Z" fill="#F79646"/>
<path d="M476.534 11.978H417.115V209.17H476.534V11.978Z" fill="#57606F"/>
<path fill-rule="evenodd" clip-rule="evenodd" d="M464.93 142.043C464.93 152.159 456.714 160.37 446.592 160.37C436.47 160.37 428.254 152.159 428.254 142.043C428.254 131.927 436.47 123.716 446.592 123.716V131.927C441.002 131.927 436.47 136.456 436.47 142.043C436.47 147.63 441.002 152.159 446.592 152.159C452.182 152.159 456.714 147.63 456.714 142.043H464.93Z" fill="#A4B0BE"/>
<path fill-rule="evenodd" clip-rule="evenodd" d="M448.752 122.531C458.281 122.912 465.946 130.573 466.328 140.096H458.112C457.73 135.102 453.749 131.123 448.752 130.742V122.531Z" fill="#CC0000"/>
<path fill-rule="evenodd" clip-rule="evenodd" d="M428.72 190.124H440.578C443.204 190.124 445.322 192.24 445.322 194.865C445.322 197.489 443.204 199.605 440.578 199.605H428.72C426.094 199.605 423.977 197.489 423.977 194.865C423.977 192.283 426.136 190.124 428.72 190.124Z" fill="#4BA64E"/>
<path fill-rule="evenodd" clip-rule="evenodd" d="M453.792 190.124H465.65C468.276 190.124 470.394 192.24 470.394 194.865C470.394 197.489 468.276 199.605 465.65 199.605H453.792C451.166 199.605 449.049 197.489 449.049 194.865C449.091 192.283 451.209 190.124 453.792 190.124Z" fill="#D43232"/>
<path d="M469.758 170.951H423.977V181.955H469.758V170.951Z" fill="#CED6E0"/>
<path d="M446.888 170.951H423.977V181.955H446.888V170.951Z" fill="#A4B0BE"/>
<path fill-rule="evenodd" clip-rule="evenodd" d="M429.44 23.4481H453.58C455.189 23.4481 456.502 24.7602 456.502 26.3685C456.502 27.9769 455.189 29.2889 453.58 29.2889H429.44C427.83 29.2889 426.518 27.9769 426.518 26.3685C426.518 24.7602 427.83 23.4481 429.44 23.4481Z" fill="#A4B0BE"/>
<path fill-rule="evenodd" clip-rule="evenodd" d="M429.44 36.1879H439.519C441.129 36.1879 442.442 37.5 442.442 39.1084C442.442 40.7167 441.129 42.0288 439.519 42.0288H429.44C427.83 42.0288 426.518 40.7167 426.518 39.1084C426.518 37.5 427.83 36.1879 429.44 36.1879Z" fill="#A4B0BE"/>
<path fill-rule="evenodd" clip-rule="evenodd" d="M448.245 36.1879H465.608C467.218 36.1879 468.531 37.5 468.531 39.1084C468.531 40.7167 467.218 42.0288 465.608 42.0288H448.245C446.635 42.0288 445.322 40.7167 445.322 39.1084C445.322 37.5 446.635 36.1879 448.245 36.1879Z" fill="#A4B0BE"/>
<path fill-rule="evenodd" clip-rule="evenodd" d="M429.44 49.0547H439.519C441.129 49.0547 442.442 50.3668 442.442 51.9752C442.442 53.5835 441.129 54.8956 439.519 54.8956H429.44C427.83 54.8956 426.518 53.5835 426.518 51.9752C426.518 50.3668 427.83 49.0547 429.44 49.0547Z" fill="#A4B0BE"/>
<path fill-rule="evenodd" clip-rule="evenodd" d="M448.245 49.0547H465.608C467.218 49.0547 468.531 50.3668 468.531 51.9752C468.531 53.5835 467.218 54.8956 465.608 54.8956H448.245C446.635 54.8956 445.322 53.5835 445.322 51.9752C445.322 50.3668 446.635 49.0547 448.245 49.0547Z" fill="#A4B0BE"/>
<path d="M438.757 66.281H427.322V70.3866H438.757V66.281Z" fill="#4BA64E"/>
<path d="M448.286 72.2489H427.322V76.3544H448.286V72.2489Z" fill="#4BA64E"/>
<path d="M458.069 78.2167H427.322V82.3222H458.069V78.2167Z" fill="#4BA64E"/>
<path d="M466.116 84.1422H427.322V88.2477H466.116V84.1422Z" fill="#4BA64E"/>
<path d="M452.733 90.11H427.322V94.2156H452.733V90.11Z" fill="#D43232"/>
<path d="M461.542 96.0779H427.322V100.183H461.542V96.0779Z" fill="#D43232"/>
<path d="M464.93 102.046H427.322V106.151H464.93V102.046Z" fill="#D43232"/>
<path d="M468.615 107.971H427.322V112.077H468.615V107.971Z" fill="#D43232"/>
<path fill-rule="evenodd" clip-rule="evenodd" d="M311.704 220.514C314.923 220.514 317.548 223.138 317.548 226.354C317.548 229.571 314.923 232.195 311.704 232.195C308.485 232.195 305.859 229.571 305.859 226.354C305.859 223.095 308.485 220.514 311.704 220.514Z" fill="#DFE4EA"/>
<path fill-rule="evenodd" clip-rule="evenodd" d="M578.093 81.3488H488.605C480.389 81.3488 473.697 88.1631 473.697 96.5011V284.805C473.697 293.143 480.389 299.958 488.605 299.958H578.093C586.309 299.958 593 293.143 593 284.805V96.5011C593 88.1631 586.309 81.3488 578.093 81.3488Z" fill="#A4B0BE"/>
<path fill-rule="evenodd" clip-rule="evenodd" d="M569.325 81.3488H479.837C471.621 81.3488 464.93 88.1631 464.93 96.5011V284.805C464.93 293.143 471.621 299.958 479.837 299.958H569.325C577.541 299.958 584.233 293.143 584.233 284.805V96.5011C584.233 88.1631 577.499 81.3488 569.325 81.3488Z" fill="#CED6E0"/>
<path fill-rule="evenodd" clip-rule="evenodd" d="M570.004 88.2477C574.367 88.2477 577.924 91.8454 577.924 96.1625V283.874C577.924 288.234 574.324 291.789 570.004 291.789H479.119C474.757 291.789 471.199 288.191 471.199 283.874V96.1625C471.199 91.803 474.799 88.2477 479.119 88.2477" fill="#2F3542"/>
<path fill-rule="evenodd" clip-rule="evenodd" d="M478.609 93.5807H484.75C485.004 93.5807 485.216 93.7923 485.216 94.0463C485.216 94.3002 485.004 94.5119 484.75 94.5119H478.609C478.355 94.5119 478.143 94.3002 478.143 94.0463C478.101 93.7923 478.355 93.5807 478.609 93.5807Z" fill="#CED6E0"/>
<path fill-rule="evenodd" clip-rule="evenodd" d="M478.609 95.9086H484.75C485.004 95.9086 485.216 96.1202 485.216 96.3742C485.216 96.6281 485.004 96.8397 484.75 96.8397H478.609C478.355 96.8397 478.143 96.6281 478.143 96.3742C478.101 96.1202 478.355 95.9086 478.609 95.9086Z" fill="#CED6E0"/>
<path fill-rule="evenodd" clip-rule="evenodd" d="M478.609 98.0672H484.75C485.004 98.0672 485.216 98.2788 485.216 98.5327C485.216 98.7867 485.004 98.9983 484.75 98.9983H478.609C478.355 98.9983 478.143 98.7867 478.143 98.5327C478.101 98.2788 478.355 98.0672 478.609 98.0672Z" fill="#CED6E0"/>
<path fill-rule="evenodd" clip-rule="evenodd" d="M544.846 152.624V161.682H544.253V152.624H541.797V130.657H547.345V152.624H544.846ZM553.486 111.061H554.079V126.213H556.535V132.647H554.079V149.746H553.486V132.647H551.029V126.213H553.486V111.061ZM490.001 146.572H490.594V153.217H493.051V196.177H490.594V202.737H490.001V196.092H487.545V153.174H490.001V146.572ZM498.006 128.71H498.599V132.52H501.055V145.429H498.599V161.512H498.006V145.429H495.549V132.52H498.006V128.71ZM533.75 152.878H536.206V146.233H536.799V152.878H539.256V195.838H536.799V202.483H536.206V195.838H533.75V152.878Z" fill="#4BA64E"/>
<path fill-rule="evenodd" clip-rule="evenodd" d="M507.281 147.884H507.873V151.481H510.33V174.676H507.873V178.273H507.281V174.676H504.824V151.481H507.281V147.884ZM516.894 169.935H517.487V173.49H519.944V196.388H517.487V199.944H516.894V196.388H514.438V173.49H516.894V169.935ZM526.212 180.643H526.804V196.388H529.261V207.435H526.804V211.033H526.212V207.435H523.755V196.388H526.212V180.643ZM563.311 135.821H563.904V137.81H566.36V150.72H563.904V152.709H563.311V150.72H560.855V137.81H563.311V135.821Z" fill="#D43232"/>
<path fill-rule="evenodd" clip-rule="evenodd" d="M497.287 273.632C497.287 278.837 493.052 283.07 487.843 283.07C482.634 283.07 478.398 278.837 478.398 273.632C478.398 268.426 482.634 264.193 487.843 264.193V268.426C484.963 268.426 482.634 270.753 482.634 273.632C482.634 276.51 484.963 278.837 487.843 278.837C490.723 278.837 493.052 276.51 493.052 273.632H497.287Z" fill="#A4B0BE"/>
<path fill-rule="evenodd" clip-rule="evenodd" d="M488.943 263.6C493.856 263.812 497.795 267.748 498.007 272.658H493.771C493.602 270.076 491.527 268.045 488.943 267.833V263.6Z" fill="#D43232"/>
<path fill-rule="evenodd" clip-rule="evenodd" d="M521.555 273.039C521.555 267.833 517.319 263.6 512.11 263.6C506.901 263.6 502.666 267.833 502.666 273.039C502.666 278.245 506.901 282.477 512.11 282.477V278.245C509.23 278.245 506.901 275.917 506.901 273.039C506.901 270.161 509.23 267.833 512.11 267.833C514.99 267.833 517.319 270.161 517.319 273.039H521.555Z" fill="#A4B0BE"/>
<path fill-rule="evenodd" clip-rule="evenodd" d="M513.211 283.07C518.124 282.858 522.062 278.922 522.274 274.012H518.039C517.87 276.594 515.794 278.626 513.211 278.837V283.07Z" fill="#D43232"/>
<path fill-rule="evenodd" clip-rule="evenodd" d="M486.232 245.062H514.311C517.36 245.062 519.859 247.559 519.859 250.607C519.859 253.654 517.36 256.151 514.311 256.151H486.232C483.183 256.151 480.684 253.654 480.684 250.607C480.642 247.559 483.183 245.062 486.232 245.062Z" fill="#4BA64E"/>
<path fill-rule="evenodd" clip-rule="evenodd" d="M533.962 245.062H562.041C565.09 245.062 567.589 247.559 567.589 250.607C567.589 253.654 565.09 256.151 562.041 256.151H533.962C530.913 256.151 528.414 253.654 528.414 250.607C528.414 247.559 530.913 245.062 533.962 245.062Z" fill="#D43232"/>
<path d="M571.825 228.259H477.34V237.105H571.825V228.259Z" fill="#CED6E0"/>
<path d="M523.884 228.259H476.662V237.105H523.884V228.259Z" fill="#A4B0BE"/>
<path d="M542.263 262.542H531.125V264.447H542.263V262.542Z" fill="#4BA64E"/>
<path d="M551.581 265.336H531.125V267.24H551.581V265.336Z" fill="#4BA64E"/>
<path d="M561.152 268.087H531.125V269.992H561.152V268.087Z" fill="#4BA64E"/>
<path d="M568.987 270.838H531.125V272.743H568.987V270.838Z" fill="#4BA64E"/>
<path d="M555.943 273.632H531.125V275.536H555.943V273.632Z" fill="#D43232"/>
<path d="M564.498 276.383H531.125V278.287H564.498V276.383Z" fill="#D43232"/>
<path d="M567.843 279.176H531.125V281.081H567.843V279.176Z" fill="#D43232"/>
<path d="M571.443 281.927H531.125V283.832H571.443V281.927Z" fill="#D43232"/>
<path fill-rule="evenodd" clip-rule="evenodd" d="M498.176 124.012L494.406 116.436H501.945L498.176 124.012Z" fill="#CED6E0"/>
<path fill-rule="evenodd" clip-rule="evenodd" d="M553.91 109.199L550.141 101.622H557.721L553.91 109.199Z" fill="#CED6E0"/>
<path fill-rule="evenodd" clip-rule="evenodd" d="M526.467 212.641L522.697 220.217H530.278L526.467 212.641Z" fill="#F79646"/>
<path fill-rule="evenodd" clip-rule="evenodd" d="M123.497 223.603C126.377 236.555 132.052 235.581 138.15 251.622C144.842 269.23 147.679 269.949 147.171 288.911L151.787 289.588C154.328 290.011 152.168 297.207 153.778 291.535L156.869 285.99C156.7 233.423 165.805 194.06 136.583 175.818C134.084 173.363 117.822 209.255 123.497 223.603Z" fill="#F7A12E"/>
<path fill-rule="evenodd" clip-rule="evenodd" d="M79.7057 163.84C85.2961 192.664 78.2658 250.564 70.6426 294.794L122.65 297.291C130.315 254.881 135.27 211.541 132.306 180.897C131.628 173.829 129.934 173.533 127.732 170.782C113.968 165.195 102.448 161.174 81.4845 160.962L79.7057 163.84Z" fill="#F48120"/>
<path fill-rule="evenodd" clip-rule="evenodd" d="M143.867 297.461C156.573 237.486 157.165 184.791 132.178 172.983C130.654 172.178 129.171 171.459 127.731 170.782C132.348 191.563 113.544 246.628 93.5117 297.08L143.867 297.461Z" fill="#F79F2D"/>
<path fill-rule="evenodd" clip-rule="evenodd" d="M97.5349 298.984C100.034 243.454 86.3966 181.871 82.3732 161.089C68.0586 160.031 59.1225 161.682 49.7629 167.692C33.9659 177.257 30.1967 196.896 34.0083 222.672L44.5961 214.588C44.6384 235.116 39.768 270.923 34.6859 299.027L97.5349 298.984Z" fill="#F79F2D"/>
<path fill-rule="evenodd" clip-rule="evenodd" d="M79.0686 283.663L41.3761 255.262L39.1738 268.045L69.2008 286.075L79.0686 283.663Z" fill="#F48120"/>
<path fill-rule="evenodd" clip-rule="evenodd" d="M136.71 148.222C132.094 154.021 127.562 157.999 121.972 159.354L119.812 169.385C121.675 176.411 120.235 182.379 111.13 182.04C86.8203 178.146 93.3001 162.02 93.6812 161.301L98.9751 147.799C98.1704 147.587 92.2413 142.678 90.5896 141.789C88.9802 140.9 87.1591 137.006 87.7097 133.493C88.3026 129.938 93.4695 132.223 93.4695 132.223C88.8108 121.812 82.8817 112.881 94.2741 106.828C105.667 100.776 128.875 100.734 128.875 100.734L143.232 98.9137C140.564 103.146 139.59 119.018 140.987 129.345C142.216 138.615 142.936 140.435 136.71 148.222Z" fill="#F7AAAC"/>
<path fill-rule="evenodd" clip-rule="evenodd" d="M109.477 181.786C105.623 184.326 99.8633 187.796 96.0094 190.378C90.8426 181.955 89.4873 170.612 88.2168 161.216C91.139 159.989 92.2401 159.396 94.9506 158.042C96.7294 164.729 99.821 174.887 109.477 181.786Z" fill="#F6F6E3"/>
<path fill-rule="evenodd" clip-rule="evenodd" d="M109.479 181.786C111.935 185.638 116.551 189.362 119.008 193.214C121.76 187.542 123.073 176.369 123.285 169.046C122.269 167.607 121.76 167.523 120.49 166.211C119.77 172.898 113.502 178.823 109.479 181.786Z" fill="#F6F6E3"/>
<path fill-rule="evenodd" clip-rule="evenodd" d="M104.014 150.635C105.835 157.788 109.943 168.538 119.811 169.427L121.971 159.396C117.524 159.142 113.416 157.915 104.014 150.635Z" fill="#E16E73"/>
<path fill-rule="evenodd" clip-rule="evenodd" d="M65.3474 196.261C63.1451 186.188 71.4459 154.275 42.986 173.152C32.8217 182.548 1.73603 234.481 0.0419878 261.442C-0.720332 273.758 9.02042 278.287 19.2694 282.985C32.6947 289.165 48.1105 297.122 58.5289 298.984C64.5427 299.365 76.7398 299.534 79.5773 298.984C89.1487 294.54 79.0691 283.705 79.0691 283.705C79.0691 283.705 35.9557 260.511 31.3818 256.786C29.2642 254.839 66.9567 203.584 65.3474 196.261Z" fill="#F79F2D"/>
<path fill-rule="evenodd" clip-rule="evenodd" d="M165.042 234.65C163.518 227.624 158.224 194.78 147.509 185.638C142.85 181.701 139.886 187.034 131.289 192.706C121.167 202.144 135.312 256.871 133.618 283.832C132.856 295.81 201.126 298.307 203.878 297.037C213.45 292.593 202.142 282.731 202.142 282.731C202.142 282.731 169.532 282.943 164.958 279.218C162.84 277.271 166.652 242.015 165.042 234.65Z" fill="#F79F2D"/>
<path fill-rule="evenodd" clip-rule="evenodd" d="M137.303 121.938C125.657 125.113 114.899 116.14 107.276 122.065C103.507 124.986 102.702 130.192 104.439 138.869C104.947 141.408 105.921 143.44 102.363 140.773C100.712 139.546 98.0013 137.726 96.7731 138.361C94.105 139.715 94.4438 143.821 96.0108 145.429C96.6884 146.148 98.0436 147.291 98.0436 147.291C84.4913 141.62 81.2726 127.652 83.6442 117.41C84.4489 113.939 85.5077 110.934 86.7359 108.31C86.6512 107.294 86.6935 106.278 86.9053 105.22C87.837 100.776 91.4792 97.6016 95.6296 97.263C97.3236 92.7765 101.94 90.0254 106.599 90.9989C107.996 91.2951 109.267 91.8877 110.325 92.7342L110.834 92.6919C113.163 90.1524 117.271 88.9673 120.405 89.6021C123.497 90.237 125.148 91.6338 126.546 93.5807C129.849 90.618 131.628 89.6445 137.684 90.9142C149.373 93.4537 154.455 116.352 137.303 121.938Z" fill="#21242A"/>
<path fill-rule="evenodd" clip-rule="evenodd" d="M188.335 290.35H78.1797V294.667C78.1797 297.037 80.1278 298.984 82.4995 298.984H184.015C186.387 298.984 188.335 297.037 188.335 294.667V290.35Z" fill="#CED6E0"/>
<path fill-rule="evenodd" clip-rule="evenodd" d="M227.552 229.063H145.349C142.088 229.063 140.055 231.814 139.462 235.031L128.832 291.535H222.047L232.677 234.227C233.143 231.433 230.348 229.063 227.552 229.063Z" fill="#CED6E0"/>
<path fill-rule="evenodd" clip-rule="evenodd" d="M230.389 229.063H148.143C144.882 229.063 142.849 231.814 142.257 235.031L131.753 290.773H131.626L130.949 294.879C130.568 297.08 132.812 298.984 135.057 298.984H220.225C222.47 298.984 223.994 297.122 224.333 294.879L224.841 291.535L235.471 234.185C235.98 231.433 233.184 229.063 230.389 229.063Z" fill="#A4B0BE"/>
<path fill-rule="evenodd" clip-rule="evenodd" d="M187.064 260.468C185.116 260.003 183.083 261.484 182.533 263.812C181.982 266.098 183.126 268.383 185.074 268.849C187.022 269.314 189.055 267.833 189.605 265.505C190.156 263.177 189.013 260.934 187.064 260.468Z" fill="#DFE4EA"/>
<path fill-rule="evenodd" clip-rule="evenodd" d="M74.1576 298.984C86.9899 298.9 101.305 299.069 105.074 298.942C101.305 287.768 88.684 285.017 78.1386 285.609C75.6398 287.302 73.2682 295.937 74.1576 298.984Z" fill="#F8B9BE"/>
</g>
<defs>
<clipPath id="clip0_183_208">
<rect width="593" height="300" fill="white"/>
</clipPath>
</defs>
</svg>
