<svg width="50" height="50" viewBox="0 0 50 50" fill="none" xmlns="http://www.w3.org/2000/svg">
<g clip-path="url(#clip0_59_113)">
<path d="M46.7768 35.5256C46.4189 35.3822 46.0807 35.526 45.7619 35.9566C45.7548 36.4914 45.9362 36.8101 46.3062 36.9128C47.6395 37.3681 48.5352 38.621 48.5352 40.0303V48.5352H44.9144V43.4592C44.9144 43.0546 44.5864 42.7268 44.1819 42.7268C43.7774 42.7268 43.4495 43.0546 43.4495 43.4592V48.5352H37.2083L35.8499 41.1557L36.8645 39.3514L39.2499 40.8088C39.6949 41.0807 40.3642 40.779 40.3642 40.1838V34.8804L43.1983 35.8502C43.5713 35.9701 43.8813 35.8182 44.1284 35.3943C44.2594 35.0116 44.0553 34.5952 43.6726 34.4644L38.58 32.7217V29.798C40.7298 28.2122 41.7559 25.6091 41.6454 22.9878H42.3801C43.9092 22.9878 45.1532 21.7437 45.1532 20.2146V18.6855C45.1532 17.4207 44.3021 16.3509 43.1424 16.0189V12.6592C43.1424 9.32734 40.4863 6.40098 37.1604 6.0958C36.7574 6.0585 36.4012 6.35537 36.3642 6.7582C36.3271 7.16104 36.6238 7.51748 37.0267 7.55449C39.6781 7.79766 41.6775 9.99228 41.6775 12.6591V15.9121H40.4492C38.0139 15.9121 36.4815 13.7401 36.0364 11.5447C35.8968 10.8561 35.1074 10.7665 34.7147 11.3753C33.6496 13.4039 32.1868 15.9121 29.5879 15.9121H25.4521V12.6592C25.4521 9.90508 27.8414 7.53223 30.5791 7.53223H33.9023C34.3068 7.53223 34.6348 7.20439 34.6348 6.7998C34.6348 6.39521 34.3068 6.06738 33.9023 6.06738H30.5791C30.3883 6.06738 30.1994 6.07559 30.0127 6.0915V3.75977C30.0127 1.68662 28.3261 0 26.2529 0H3.75977C1.68662 0 0 1.68662 0 3.75977V27.9766C0 30.0497 1.68662 31.7363 3.75977 31.7363H9.58906L15.4603 36.1359C15.8999 36.4654 16.6319 36.1879 16.6319 35.5498V31.7363H28.5499V32.7215L20.3503 35.5266C18.4241 36.1844 17.13 37.9943 17.13 40.0303V49.2676C17.13 49.6722 17.4579 50 17.8624 50H49.2676C49.6721 50 50 49.6722 50 49.2676V40.0303C50 37.9943 48.7059 36.1844 46.7768 35.5256ZM28.2306 38.8779V34.3801L29.1486 34.0686L32.2635 36.414L28.2306 38.8779ZM32.6581 41.7601H34.4717L35.7188 48.535H31.411L32.6581 41.7601ZM34.6532 40.2952H32.4767L31.5162 38.5872L33.5649 37.3357L35.6137 38.5872L34.6532 40.2952ZM38.8994 38.8779L34.8665 36.414L37.9813 34.0686L38.8994 34.3801V38.8779ZM37.1152 32.887L33.5649 35.5603L30.0146 32.887V30.6428C32.0641 31.5342 35.0797 31.5281 37.1152 30.6428V32.887ZM42.3803 17.377C43.1017 17.377 43.6886 17.9639 43.6886 18.6853V20.2144C43.6886 20.9358 43.1017 21.5227 42.3803 21.5227H41.6456V17.377H42.3803ZM35.1132 13.5103C35.8432 15.7403 37.8476 17.2603 40.1771 17.3705L40.1808 23.7422C40.1808 31.7905 26.9493 31.7812 26.9493 23.7422V17.377H29.588C33.9519 17.377 35.1132 13.5103 35.1132 13.5103ZM25.4841 17.377V21.5228H24.7457C24.0243 21.5228 23.4374 20.9358 23.4374 20.2145V18.6854C23.4374 17.9639 24.0243 17.3771 24.7457 17.3771H25.4841V17.377ZM15.8994 30.2715C15.4949 30.2715 15.167 30.5993 15.167 31.0039V34.0857L10.2722 30.4178C10.1454 30.3228 9.99131 30.2715 9.83291 30.2715H3.75977C2.49434 30.2715 1.46484 29.242 1.46484 27.9766V3.75977C1.46484 2.49434 2.49434 1.46484 3.75977 1.46484H26.2529C27.5184 1.46484 28.5478 2.49434 28.5478 3.75977V6.3875C25.904 7.2458 23.9873 9.73281 23.9873 12.6592V16.0176C22.8257 16.3483 21.9726 17.4191 21.9726 18.6854V20.2145C21.9726 21.7436 23.2166 22.9876 24.7457 22.9876H25.4843C25.3166 25.5995 26.42 28.2258 28.5478 29.7965V30.2715H15.8994ZM18.5947 40.0303C18.5947 38.6209 19.4904 37.3681 20.824 36.9127L26.7657 34.8801V40.1837C26.7657 40.7794 27.435 41.0803 27.88 40.8087L30.2654 39.3513L31.28 41.1556L29.9216 48.5352H23.6804V43.4592C23.6804 43.0546 23.3524 42.7268 22.9479 42.7268C22.5435 42.7268 22.2155 43.0546 22.2155 43.4592V48.5352H18.5947V40.0303Z" fill="#333333"/>
<path d="M30.4026 21.1194C30.8071 21.1194 31.1351 20.7916 31.1351 20.387V19.4255C31.1351 19.0209 30.8071 18.6931 30.4026 18.6931C29.9982 18.6931 29.6702 19.0209 29.6702 19.4255V20.387C29.6702 20.7915 29.9982 21.1194 30.4026 21.1194Z" fill="#333333"/>
<path d="M36.7129 21.1194C37.1174 21.1194 37.4453 20.7916 37.4453 20.387V19.4255C37.4453 19.0209 37.1174 18.6931 36.7129 18.6931C36.3084 18.6931 35.9805 19.0209 35.9805 19.4255V20.387C35.9805 20.7915 36.3084 21.1194 36.7129 21.1194Z" fill="#333333"/>
<path d="M33.5649 26.9387C34.9816 26.9387 36.1342 25.7862 36.1342 24.3695C36.1342 23.9649 35.8062 23.6371 35.4018 23.6371C34.9973 23.6371 34.6693 23.9649 34.6693 24.3695C34.6693 24.9784 34.1739 25.4739 33.5649 25.4739C32.956 25.4739 32.4605 24.9785 32.4605 24.3695C32.4605 23.9649 32.1326 23.6371 31.7281 23.6371C31.3236 23.6371 30.9957 23.9649 30.9957 24.3695C30.9957 25.7862 32.1482 26.9387 33.5649 26.9387Z" fill="#333333"/>
<path d="M21.182 3.68435C21.1714 3.29441 20.8449 2.97058 20.4498 2.97058H17.4164C17.0119 2.97058 16.684 3.29841 16.684 3.703C16.684 4.10759 17.0119 4.43542 17.4164 4.43542H18.6816L11.3496 11.7675L8.83408 9.25193C8.54824 8.96619 8.08486 8.96589 7.79873 9.25144L3.02617 14.0148C2.73984 14.3007 2.73945 14.7643 3.0252 15.0506C3.37031 15.337 3.71563 15.3373 4.06104 15.0516L8.31572 10.8052L10.8317 13.3212C11.1178 13.6071 11.5815 13.6071 11.8675 13.3212L19.7175 5.47126V6.7365C19.7175 7.14109 20.0454 7.46892 20.4499 7.46892C20.8544 7.46892 21.1823 7.14109 21.1823 6.7365V3.70398C21.1823 3.69744 21.1822 3.69089 21.182 3.68435Z" fill="#333333"/>
<path d="M14.383 19.7174H13.5987V18.9332C13.5987 18.5286 13.2708 18.2008 12.8663 18.2008C12.4618 18.2008 12.1339 18.5286 12.1339 18.9332V19.7174H11.3496C10.9451 19.7174 10.6172 20.0452 10.6172 20.4498V26.5167C10.6172 26.9213 10.9451 27.2491 11.3496 27.2491H12.1339V28.0334C12.1339 28.438 12.4618 28.7658 12.8663 28.7658C13.2708 28.7658 13.5987 28.438 13.5987 28.0334V27.2491H14.383C14.7875 27.2491 15.1154 26.9213 15.1154 26.5167V20.4498C15.1154 20.0453 14.7875 19.7174 14.383 19.7174ZM13.6506 25.7843H12.082V21.1823H13.6506V25.7843Z" fill="#333333"/>
<path d="M8.3162 16.6841H7.53788V15.8998C7.53788 15.4952 7.20996 15.1674 6.80546 15.1674C6.40097 15.1674 6.07304 15.4952 6.07304 15.8998V16.6841H5.28281C4.87831 16.6841 4.55038 17.0119 4.55038 17.4165V26.5168C4.55038 26.9214 4.87831 27.2492 5.28281 27.2492H6.07304V28.0335C6.07304 28.4381 6.40097 28.7659 6.80546 28.7659C7.20996 28.7659 7.53788 28.4381 7.53788 28.0335V27.2492H8.3162C8.7207 27.2492 9.04863 26.9214 9.04863 26.5168V17.4165C9.04863 17.0119 8.7207 16.6841 8.3162 16.6841ZM7.58378 25.7843H6.01513V18.1488H7.58368V25.7843H7.58378Z" fill="#333333"/>
<path d="M20.4499 13.6506H19.6656V12.8663C19.6656 12.4617 19.3377 12.1339 18.9332 12.1339C18.5287 12.1339 18.2008 12.4617 18.2008 12.8663V13.6506H17.4165C17.012 13.6506 16.6841 13.9784 16.6841 14.383V26.5167C16.6841 26.9213 17.012 27.2491 17.4165 27.2491H18.2008V28.0334C18.2008 28.438 18.5287 28.7658 18.9332 28.7658C19.3377 28.7658 19.6656 28.438 19.6656 28.0334V27.2491H20.4499C20.8544 27.2491 21.1823 26.9213 21.1823 26.5167V14.383C21.1823 13.9785 20.8544 13.6506 20.4499 13.6506ZM19.7175 25.7843H18.1489V15.1155H19.7175V25.7843Z" fill="#333333"/>
<path d="M6.80537 44.8059C7.20986 44.8059 7.53779 44.478 7.53779 44.0734V43.421C8.46514 43.2424 9.16787 42.4247 9.16787 41.4459C9.16787 40.3369 8.26562 39.4347 7.15664 39.4347H6.4541C6.15283 39.4347 5.90771 39.1896 5.90771 38.8882C5.90771 38.5868 6.15283 38.3417 6.4541 38.3417H7.08174C7.26699 38.3417 7.43369 38.4657 7.48691 38.6432C7.60313 39.0307 8.01172 39.2506 8.39893 39.1342C8.78643 39.018 9.00625 38.6096 8.88994 38.2222C8.69355 37.5676 8.17617 37.0878 7.53779 36.9315V36.2607C7.53779 35.8562 7.20986 35.5283 6.80537 35.5283C6.40088 35.5283 6.07295 35.8562 6.07295 36.2607V36.9131C5.14561 37.0917 4.44287 37.9094 4.44287 38.8882C4.44287 39.9972 5.34512 40.8995 6.4541 40.8995H7.15654C7.45781 40.8995 7.70293 41.1446 7.70293 41.4459C7.70293 41.7473 7.45781 41.9924 7.15654 41.9924H6.36426C6.17598 41.9924 6.01318 41.8713 5.95918 41.691C5.84307 41.3036 5.43467 41.0835 5.04727 41.1999C4.65977 41.316 4.43994 41.7243 4.55605 42.1118C4.76904 42.8218 5.35977 43.3262 6.07295 43.4352V44.0734C6.07295 44.4779 6.40088 44.8059 6.80537 44.8059Z" fill="#333333"/>
<path d="M11.9567 38.7779C12.0616 39.1687 12.4636 39.4 12.8541 39.2952C13.2447 39.1904 13.4764 38.7886 13.3714 38.398C12.5759 35.4365 9.87598 33.3683 6.80566 33.3683C3.05625 33.3683 0.00585938 36.4182 0.00585938 40.167C0.00585938 43.9165 3.05625 46.9669 6.80566 46.9669C9.85742 46.9669 12.5532 44.9136 13.3615 41.9736C13.4688 41.5835 13.2395 41.1804 12.8494 41.0732C12.4592 40.9655 12.0563 41.1951 11.949 41.5852C11.315 43.8913 9.2 45.502 6.80566 45.502C3.86397 45.502 1.4707 43.1087 1.4707 40.1669C1.4707 37.2258 3.86397 34.833 6.80566 34.833C9.21465 34.833 11.3328 36.4553 11.9567 38.7779Z" fill="#333333"/>
</g>
<defs>
<clipPath id="clip0_59_113">
<rect width="50" height="50" fill="white"/>
</clipPath>
</defs>
</svg>
