<svg width="510" height="300" viewBox="0 0 510 300" fill="none" xmlns="http://www.w3.org/2000/svg">
<g clip-path="url(#clip0_159_208)">
<path fill-rule="evenodd" clip-rule="evenodd" d="M83.1884 298.268H477.392C477.868 298.268 478.258 298.658 478.258 299.134C478.258 299.61 477.868 300 477.392 300H83.1884C82.712 300 82.3223 299.61 82.3223 299.134C82.3223 298.658 82.712 298.268 83.1884 298.268Z" fill="#2F3542"/>
<path fill-rule="evenodd" clip-rule="evenodd" d="M13.5544 11.6017H328.077C335.525 11.6017 341.631 18.7446 341.631 27.5325V231.515C341.631 240.26 335.525 247.446 328.077 247.446H13.5544C6.10597 247.446 0 240.26 0 231.515V27.5325C0 18.7879 6.10597 11.6017 13.5544 11.6017Z" fill="#CED6E0"/>
<path fill-rule="evenodd" clip-rule="evenodd" d="M8.92091 19.1775H332.71C333.447 19.1775 334.096 19.7836 334.096 20.5628V238.528C334.096 239.264 333.49 239.913 332.71 239.913H8.92091C8.18473 239.913 7.53516 239.307 7.53516 238.528V20.5628C7.57846 19.7836 8.18473 19.1775 8.92091 19.1775Z" fill="#2F3542"/>
<path d="M334.096 197.489H7.57812V239.87H334.096V197.489Z" fill="#57606F"/>
<path d="M314.782 208.312H27.6719V208.745H314.782V208.312Z" fill="#CED6E0"/>
<path d="M314.782 226.147H27.6719V226.58H314.782V226.147Z" fill="#CED6E0"/>
<path d="M28.5371 227.662C28.5804 227.576 39.9696 200.26 48.0676 205.065C51.4453 207.1 53.8271 209.524 55.8191 211.558C58.2442 214.026 60.063 215.887 62.2715 215.541C64.5234 215.195 67.2516 214.848 69.9365 215.065C72.6646 215.281 75.3495 216.104 77.5148 218.009C79.0304 219.351 79.9832 220.693 80.8492 221.948C82.3649 224.113 83.7507 226.104 87.9079 227.619C91.8487 229.091 95.7461 221.169 99.0372 214.545C100.813 210.952 102.415 207.706 103.844 206.407C103.931 206.32 104.017 206.277 104.104 206.19C106.096 204.416 108.304 203.766 110.426 203.896C112.505 204.026 114.54 204.935 116.273 206.407C116.359 206.493 116.446 206.58 116.532 206.623C118.438 208.355 122.595 211.082 127.055 213.074C130.303 214.502 133.724 215.584 136.582 215.584C141.606 215.584 144.637 220.26 147.106 224.026C148.231 225.758 149.227 227.273 150.18 227.965L150.31 228.052C153.298 230.26 157.845 233.593 161.006 232.208C162.305 231.645 164.644 229.091 167.329 226.147C171.356 221.688 176.25 216.32 180.32 214.892C183.655 213.723 188.072 210.822 191.969 208.225C195.78 205.714 199.115 203.506 200.717 203.506C202.882 203.506 208.945 209.091 213.881 213.636C216.22 215.801 218.299 217.706 219.554 218.658C220.68 219.524 222.109 220.779 223.668 222.164C227.522 225.541 232.113 229.567 233.802 229.307C234.971 229.091 238.045 226.883 241.25 224.199C244.758 221.212 248.352 217.749 249.738 215.801C251.08 213.896 253.245 210.909 256.537 208.745C259.871 206.58 264.288 205.238 270.134 206.71C277.236 208.485 283.602 213.42 288.409 217.186C291.31 219.437 293.649 221.255 295.164 221.645C299.105 222.554 304.172 218.745 304.215 218.701L304.821 219.351C304.821 219.351 299.365 223.506 294.905 222.468C293.172 222.078 290.747 220.173 287.759 217.835C282.996 214.156 276.76 209.264 269.831 207.532C264.331 206.147 260.174 207.403 257.056 209.437C253.938 211.515 251.816 214.372 250.517 216.234C249.088 218.225 245.451 221.818 241.856 224.805C238.565 227.576 235.317 229.913 233.932 230.173C231.766 230.563 226.959 226.364 222.932 222.814C221.373 221.472 219.944 220.216 218.861 219.351C217.562 218.355 215.484 216.407 213.145 214.242C208.338 209.784 202.449 204.372 200.673 204.372C199.418 204.372 196.213 206.493 192.532 208.918C188.591 211.515 184.131 214.502 180.623 215.671C176.769 217.013 172.006 222.294 168.022 226.667C165.25 229.697 162.912 232.338 161.396 232.987C157.672 234.589 152.865 231.082 149.66 228.701L149.531 228.615C148.448 227.835 147.409 226.234 146.239 224.459C143.901 220.909 141 216.45 136.582 216.45C133.551 216.45 130 215.368 126.622 213.853C122.032 211.818 117.788 209.048 115.839 207.273C115.753 207.186 115.666 207.143 115.58 207.056C114.021 205.758 112.202 204.892 110.34 204.805C108.478 204.675 106.572 205.281 104.797 206.883C104.71 206.926 104.667 207.013 104.58 207.1C103.281 208.312 101.722 211.472 99.9899 214.978C96.5256 221.948 92.4116 230.303 87.6048 228.528C83.1877 226.883 81.7153 224.805 80.1131 222.511C79.247 221.299 78.3376 220 76.9085 218.701C74.9165 216.926 72.4481 216.19 69.9365 216.017C67.3815 215.801 64.7399 216.147 62.5313 216.493C59.7598 216.926 57.7678 214.935 55.1695 212.208C53.2208 210.216 50.8824 207.792 47.5912 205.844C40.5325 201.645 29.5331 227.965 29.4898 228.052L28.5371 227.662Z" fill="#EA7E2F"/>
<path fill-rule="evenodd" clip-rule="evenodd" d="M194.004 87.1861H195.217V94.9351H200.197V145.022H195.217V152.771H194.004V145.022H189.024V94.9351H194.004V87.1861ZM211.413 94.632V105.195H210.2V94.632H205.22V69.0043H210.2H211.413H216.393V94.632H211.413ZM228.821 46.1472H230.034V59.3507H235.014V71.342H230.034V91.2554H228.821V71.342H223.841V59.3507H228.821V46.1472ZM100.596 87.5758H101.809V95.3247H106.789V145.411H101.809V153.16H100.596V145.411H95.616V95.2814H100.596V87.5758ZM116.792 61.2121H118.005V71.1688H122.985V86.2338H118.005V104.978H116.792V86.2338H111.812V71.1688H116.792V61.2121ZM36.8082 103.42H38.0207V125.628H43.0008V175.714H38.0207V179.307H36.8082V175.714H31.8281V125.628H36.8082V103.42ZM280.83 71.8182H285.81V66.0173H287.023V71.8182H292.003V90.6493H287.023V98.2684H285.81V90.6493H280.83V71.8182Z" fill="#4BA64E"/>
<path fill-rule="evenodd" clip-rule="evenodd" d="M248.655 75.0216H249.868V77.3593H254.848V92.4242H249.868V94.7619H248.655V92.4242H243.675V77.3593H248.655V75.0216ZM267.406 80.8658H268.619V91.9048H273.599V118.961H268.619V130H267.406V118.961H262.426V91.9048H267.406V80.8658ZM135.543 89.0909H136.756V93.29H141.736V120.346H136.756V124.545H135.543V120.346H130.563V93.29H135.543V89.0909ZM154.987 114.848H156.199V118.961H161.179V145.671H156.199V149.784H154.987V145.671H150.007V118.961H154.987V114.848ZM173.738 119.048H174.95V142.641H179.93V172.078H174.95V176.277H173.738V172.078H168.758V142.641H173.738V119.048ZM62.2281 120.909H63.4406V125.108H68.4207V152.164H63.4406V156.364H62.2281V152.164H57.248V125.108H62.2281V120.909ZM81.6719 140.996H82.8845V149.004H87.8645V164.069H82.8845V172.078H81.6719V164.069H76.6486V149.004H81.6286V140.996H81.6719ZM300.144 108.312H305.124V97.2727H306.337V108.312H311.36V135.368H306.38V146.407H305.168V135.368H300.188V108.312H300.144Z" fill="#D43232"/>
<path fill-rule="evenodd" clip-rule="evenodd" d="M25.3338 28.9178H116.144C117.919 28.9178 119.392 30.3896 119.392 32.1645C119.392 33.9394 117.919 35.4113 116.144 35.4113H25.3338C23.5583 35.4113 22.0859 33.9394 22.0859 32.1645C22.0859 30.3896 23.5583 28.9178 25.3338 28.9178Z" fill="#CED6E0"/>
<path fill-rule="evenodd" clip-rule="evenodd" d="M25.3338 43.1169H70.5006C72.2761 43.1169 73.7485 44.5887 73.7485 46.3636C73.7485 48.1385 72.2761 49.6104 70.5006 49.6104H25.3338C23.5583 49.6104 22.0859 48.1385 22.0859 46.3636C22.0859 44.5455 23.5583 43.1169 25.3338 43.1169Z" fill="#CED6E0"/>
<path fill-rule="evenodd" clip-rule="evenodd" d="M174.085 180.173L178.805 189.567H169.408L174.085 180.173Z" fill="#F79646"/>
<path fill-rule="evenodd" clip-rule="evenodd" d="M229.428 38.1818L225.055 29.5238H233.759L229.428 38.1818Z" fill="#DFE4EA"/>
<path fill-rule="evenodd" clip-rule="evenodd" d="M285.985 61.4719L281.611 52.8139H290.316L285.985 61.4719Z" fill="#DFE4EA"/>
<path fill-rule="evenodd" clip-rule="evenodd" d="M82.8429 176.97L87.5198 186.364H78.166L82.8429 176.97Z" fill="#F79646"/>
<path fill-rule="evenodd" clip-rule="evenodd" d="M369.736 151.169C379.263 164.762 354.883 232.165 350.206 264.156C348.04 278.788 343.45 281.775 330.286 284.762C313.007 288.658 301.315 293.463 288.626 293.03C281.221 292.771 275.245 293.074 272.3 290.866C262.167 283.29 277.887 274.502 277.887 274.502C277.887 274.502 309.456 262.078 315.735 258.831C321.148 255.628 324.266 144.805 359.646 136.97C364.323 136.017 363.544 144.892 369.736 151.169Z" fill="#F79F2D"/>
<path fill-rule="evenodd" clip-rule="evenodd" d="M347.347 298.615C341.414 294.892 335.784 292.771 333.879 298.615H347.347ZM448.16 298.615C446.688 284.545 444.523 272.468 441.794 262.208C426.508 261.688 412.564 258.788 409.099 256.364C407.67 251.905 401.088 236.71 407.367 234.459C412.217 232.338 420.358 231.688 428.76 231.385C402.474 192.814 361.724 231.255 364.019 298.615H448.16Z" fill="#0B3870"/>
<path fill-rule="evenodd" clip-rule="evenodd" d="M364.02 63.1602C365.059 70.6493 364.842 76.8831 364.063 82.4675C362.244 95.2381 357.567 104.286 352.371 115.498C351.937 116.45 351.721 118.571 352.024 119.87C352.544 121.991 353.973 123.29 354.016 124.502C354.189 129.264 348.733 131.255 350.465 136.667C352.327 142.424 360.728 149.048 365.882 156.277C365.882 156.277 382.727 137.749 389.959 136.407C397.191 135.108 398.144 112.424 398.144 111.255C398.144 110.087 391.735 64.8918 391.735 64.8918L364.02 63.1602Z" fill="#21242A"/>
<path fill-rule="evenodd" clip-rule="evenodd" d="M422.394 133.117C437.421 133.117 450.282 137.706 459.376 147.1C459.896 147.662 460.372 148.355 460.719 149.178C457.817 176.017 446.645 182.554 454.569 199.61C453.097 205.325 445.259 228.961 443.96 234.286C443.83 234.286 439.456 250.693 443.224 268.355C445.562 276.19 447.034 282.554 450.845 298.615H325.045C329.549 273.117 334.702 253.074 335.005 249.524C337.04 226.753 333.056 151.082 354.622 138.831C371.727 129.134 401.521 133.117 422.394 133.117Z" fill="#F79F2D"/>
<path fill-rule="evenodd" clip-rule="evenodd" d="M381.125 132.468C363.284 142.121 353.93 234.978 358.174 298.615H399.746C398.361 196.19 409.75 156.623 420.446 132.987C405.289 131.991 399.963 130.866 381.125 132.468Z" fill="white"/>
<path fill-rule="evenodd" clip-rule="evenodd" d="M383.334 125.325L382.987 133.29L382.424 133.983C378.527 142.857 388.574 148.874 391.302 150.26C394.073 149.827 409.923 144.849 410.832 132.338L410.746 131.515L410.183 113.766C410.962 113.55 412.608 113.55 414.037 111.082C415.639 108.398 416.982 103.16 416.765 101.255C416.332 97.8355 411.525 99.9134 411.525 99.9134C416.029 90.0866 421.615 81.6883 411.395 75.671C401.175 69.6537 380.043 69.1342 380.043 69.1342L367.441 67.2727C373.071 77.1862 354.883 116.883 383.334 125.325Z" fill="#F7AAAC"/>
<path fill-rule="evenodd" clip-rule="evenodd" d="M402.517 116.407C397.537 128.139 393.12 132.381 382.986 133.29L383.333 125.152C387.187 124.978 396.714 122.121 402.517 116.407Z" fill="#F28085"/>
<path fill-rule="evenodd" clip-rule="evenodd" d="M365.233 54.0693C382.121 42.1212 407.541 45.0216 419.97 64.026C430.666 80.3896 430.796 108.485 447.165 109.307C452.535 109.567 458.684 112.251 459.55 123.896C463.404 125.152 472.239 129.827 465.743 142.251C472.152 146.84 472.845 154.372 467.085 158.831C464.227 153.463 463.015 151.905 460.763 149.221C460.416 148.398 459.94 147.662 459.42 147.1C450.326 137.706 437.465 133.117 422.438 133.117C418.887 133.117 414.254 133.117 410.832 132.857C410.399 127.273 409.577 116.71 409.577 113.247C409.577 113.247 413.907 110.303 413.561 104.589C413.474 100.043 412.002 100.736 405.636 103.766C404.813 92.3809 406.199 85.7143 384.59 85.7576C377.618 85.7576 371.468 84.632 366.315 82.5108C357.005 78.7879 354.32 61.7749 365.233 54.0693Z" fill="#21242A"/>
<path fill-rule="evenodd" clip-rule="evenodd" d="M440.193 174.416C444.87 164.069 437.031 129.307 459.377 147.1C460.589 148.052 466.306 156.104 467.605 158.268C477.695 175.195 499.174 239.394 494.67 269.957C492.548 284.502 480.033 287.403 466.955 290.346C449.763 294.242 423.91 299.004 411.308 298.571C403.947 298.312 397.971 298.615 395.112 296.45C385.066 288.918 400.655 280.173 400.655 280.173C400.655 280.173 456.042 258.398 462.321 255.151C465.266 253.463 436.512 182.597 440.193 174.416Z" fill="#F79F2D"/>
<path fill-rule="evenodd" clip-rule="evenodd" d="M275.635 292.165H391.691V295.411C391.691 297.186 390.219 298.658 388.444 298.658H278.883C277.107 298.658 275.635 297.186 275.635 295.411V292.165Z" fill="#CED6E0"/>
<path fill-rule="evenodd" clip-rule="evenodd" d="M234.322 224.978H320.931C324.353 224.978 326.518 227.879 327.124 231.255L339.509 296.883H241.337L228.995 230.39C228.433 227.446 231.377 224.978 234.322 224.978Z" fill="#CED6E0"/>
<path fill-rule="evenodd" clip-rule="evenodd" d="M231.377 224.978H317.987C321.408 224.978 323.573 227.879 324.179 231.255L335.265 290H335.395L336.088 294.329C336.478 296.667 334.139 298.658 331.757 298.658H242.073C239.692 298.658 238.133 296.71 237.743 294.329L237.223 290.779L226.007 230.39C225.488 227.446 228.432 224.978 231.377 224.978Z" fill="#DFE4EA"/>
<path fill-rule="evenodd" clip-rule="evenodd" d="M277.021 258.052C279.1 257.576 281.221 259.134 281.828 261.558C282.391 263.983 281.221 266.364 279.143 266.84C277.064 267.316 274.942 265.758 274.336 263.333C273.73 260.909 274.942 258.528 277.021 258.052Z" fill="#EDF8FD"/>
<path fill-rule="evenodd" clip-rule="evenodd" d="M404.856 298.615C391.258 298.528 376.102 298.745 372.074 298.571C376.058 286.71 390.219 282.814 401.348 283.463C404.033 285.281 406.761 294.805 404.856 298.615Z" fill="#F8B9BE"/>
<path d="M486.485 2.33766C505.279 9.43723 514.719 30.3896 507.617 49.1775C500.515 67.9654 479.556 77.4026 460.762 70.303C441.967 63.2035 432.527 42.2511 439.629 23.4632C446.774 4.71862 467.734 -4.71861 486.485 2.33766Z" fill="#CED6E0"/>
<path d="M462.971 28.2251C462.884 28.8745 462.841 29.6537 462.884 30.3896L462.841 30.4762C462.971 30.6494 463.144 31.8615 463.274 32.2078C463.447 32.7706 463.837 33.29 463.967 33.7229C464.053 33.8095 464.616 34.5887 464.79 34.7619C465.136 35.1515 465.353 35.2814 465.742 35.671C466.132 35.9307 466.478 36.2338 466.955 36.5368C468.211 37.3593 469.596 37.9654 471.069 38.4849C472.931 39.1342 475.486 40.0433 476.439 41.2554C477.781 42.987 476.828 45.4978 474.057 45.8874C472.498 46.1039 470.073 45.974 468.427 45.5844C467.907 45.4546 467.388 45.2814 466.868 45.1515C466.392 44.9351 464.66 44.329 464.443 44.1126L464.01 43.9827C463.967 44.1991 463.967 44.3723 463.837 44.5022C463.88 44.7619 463.707 45.4545 463.577 45.671C463.534 45.8874 463.014 48.2251 462.798 48.5281C462.798 48.7446 462.711 49.3507 462.711 49.697C462.841 49.7836 462.711 49.697 462.841 49.7836L463.057 50C463.274 50 464.097 50.303 464.27 50.4329L467.041 51.2121L468.341 51.4719L470.289 51.7316C470.462 51.6883 470.462 51.6883 470.679 51.7316L470.809 51.7749C470.939 51.8182 470.896 51.8182 470.939 51.8615L471.025 52.0779C471.069 52.4242 470.939 55.7143 471.069 56.4069H475.876C475.962 54.9351 475.919 53.2468 475.919 51.7749C475.919 51.2554 476.006 51.3853 476.525 51.2554C477.868 50.9524 478.474 50.5628 479.253 50.3463C479.383 50.2165 480.293 49.7836 480.596 49.5671C480.812 49.4372 481.029 49.3074 481.245 49.1342C481.462 48.961 481.592 48.7879 481.808 48.7013C481.938 48.4849 482.848 47.619 483.584 46.3636C484.58 44.5887 484.32 43.8961 484.623 43.2468V41.2554C484.493 40.9524 484.537 40.4329 484.45 40.0866C484.017 37.8788 482.285 36.0173 480.466 34.8485C477.261 32.8571 470.852 31.6883 470.506 28.9178C470.289 27.3593 471.675 26.4502 472.974 26.1472C474.447 25.8009 476.352 25.9307 477.824 26.2338C478.864 26.4502 481.722 27.4892 481.808 27.4892C482.025 27.1861 481.982 26.8831 482.155 26.6234C482.155 26.3203 482.285 25.8009 482.415 25.5411C482.545 24.8485 483.237 22.5541 483.151 21.9913C482.631 21.6017 482.328 21.6883 482.025 21.4286L481.982 21.4719C481.678 21.3853 480.596 21.1688 480.379 20.9957C480.076 21.039 478.864 20.7359 478.431 20.6494C477.998 20.5628 476.612 20.5195 476.395 20.3896C475.876 20.0866 476.222 17.2727 476.092 16.1039H471.285C471.199 16.9697 471.415 20.2597 471.112 20.7359C470.722 21.2554 464.4 21.6883 462.971 28.2251Z" fill="white"/>
</g>
<defs>
<clipPath id="clip0_159_208">
<rect width="510" height="300" fill="white"/>
</clipPath>
</defs>
</svg>
