<svg width="453" height="300" viewBox="0 0 453 300" fill="none" xmlns="http://www.w3.org/2000/svg">
<g clip-path="url(#clip0_209_229)">
<path fill-rule="evenodd" clip-rule="evenodd" d="M244.693 242.897C243.285 273.617 239.529 281.371 213.6 298.889H271.07H328.541C302.612 281.393 298.877 273.617 297.447 242.897L271.07 240.397L244.693 242.897Z" fill="#CED6E0"/>
<path fill-rule="evenodd" clip-rule="evenodd" d="M117.544 0H426.601C437.677 0 446.746 10.1047 446.746 22.4525V221.064V223.926C446.746 236.274 437.677 246.379 426.601 246.379H117.544C106.468 246.379 97.3984 236.274 97.3984 223.926V221.064V209.165V22.4525C97.4198 10.1047 106.468 0 117.544 0Z" fill="#CED6E0"/>
<path d="M107.365 11.7069H436.397C436.525 11.7069 436.653 11.8351 436.653 11.9846V209.165H107.109V11.9846C107.109 11.8351 107.216 11.7069 107.365 11.7069Z" fill="#57606F"/>
<path d="M436.632 170.968H107.109V209.165H436.632V170.968Z" fill="#2F3542"/>
<path d="M298.344 246.358H243.775V256.099H298.344V246.358Z" fill="#A4B0BE"/>
<path d="M298.344 246.358H243.775V256.099H298.344V246.358Z" stroke="#A4B0BE" stroke-width="0.216" stroke-miterlimit="22.9256"/>
<path d="M453 298.889H0V300.021H453V298.889Z" fill="#333333"/>
<path d="M370.667 179.577H117.182V180.004H370.667V179.577Z" fill="#57606F"/>
<path d="M370.667 197.693H117.182V198.12H370.667V197.693Z" fill="#57606F"/>
<path d="M381.424 196.966C384.817 196.646 388.295 193.89 388.317 193.869L388.914 194.531C388.893 194.531 385.18 197.501 381.424 197.821V196.966ZM117.332 199.21C117.375 199.124 128.429 171.352 136.283 176.244C139.569 178.295 141.874 180.773 143.816 182.846C146.163 185.366 147.913 187.246 150.09 186.883C152.288 186.52 154.913 186.157 157.517 186.392C160.163 186.605 162.766 187.417 164.879 189.383C166.352 190.771 167.269 192.117 168.144 193.399C169.617 195.599 170.983 197.607 174.995 199.167C178.815 200.662 182.635 192.608 185.814 185.858C187.543 182.205 189.101 178.936 190.467 177.59C190.552 177.505 190.616 177.441 190.702 177.355C192.665 175.561 194.778 174.877 196.826 175.005C198.875 175.134 200.817 176.073 202.482 177.548C202.567 177.633 202.652 177.697 202.738 177.783C204.594 179.534 208.606 182.29 212.96 184.32C216.118 185.772 219.426 186.84 222.222 186.84C227.087 186.84 230.054 191.604 232.423 195.407C233.511 197.159 234.471 198.697 235.389 199.402L235.538 199.509C238.462 201.752 242.858 205.127 245.931 203.738C247.212 203.162 249.453 200.577 252.056 197.565C255.983 193.036 260.721 187.567 264.69 186.135C267.934 184.96 272.223 181.991 276.022 179.385C279.735 176.821 282.958 174.578 284.494 174.578C286.607 174.578 292.476 180.239 297.277 184.875C299.539 187.054 301.567 189.019 302.783 190.002C303.871 190.878 305.28 192.16 306.795 193.548C310.551 196.988 315.011 201.068 316.633 200.79C317.786 200.577 320.752 198.312 323.846 195.578C327.261 192.566 330.761 188.998 332.084 187.033C333.407 185.089 335.477 182.076 338.678 179.876C341.901 177.654 346.19 176.33 351.888 177.825C352.166 177.911 352.464 177.975 352.742 178.06V178.979C352.379 178.872 351.995 178.744 351.632 178.658C346.297 177.248 342.263 178.509 339.254 180.581C336.203 182.675 334.175 185.623 332.895 187.503C331.529 189.532 327.965 193.142 324.508 196.219C321.307 199.039 318.17 201.41 316.825 201.645C314.713 202.029 310.06 197.757 306.155 194.168C304.661 192.801 303.253 191.519 302.207 190.664C300.948 189.66 298.92 187.695 296.637 185.495C291.963 180.987 286.244 175.454 284.537 175.454C283.299 175.454 280.183 177.612 276.619 180.09C272.778 182.739 268.446 185.751 265.074 186.969C261.339 188.314 256.687 193.677 252.846 198.12C250.178 201.218 247.873 203.867 246.401 204.529C242.773 206.174 238.099 202.585 235.005 200.192L234.856 200.085C233.81 199.295 232.807 197.671 231.676 195.856C229.414 192.224 226.597 187.716 222.286 187.716C219.341 187.716 215.884 186.605 212.618 185.089C208.158 183.016 204.061 180.197 202.14 178.402C202.055 178.338 201.991 178.252 201.905 178.188C200.39 176.843 198.64 175.988 196.826 175.881C195.034 175.774 193.177 176.394 191.427 177.975C191.363 178.039 191.278 178.103 191.214 178.188C189.955 179.406 188.439 182.611 186.753 186.2C183.403 193.292 179.391 201.773 174.717 199.957C170.428 198.291 168.998 196.176 167.44 193.847C166.608 192.608 165.712 191.305 164.324 189.981C162.404 188.186 159.992 187.439 157.559 187.246C155.062 187.033 152.523 187.374 150.368 187.738C147.657 188.186 145.758 186.135 143.218 183.401C141.319 181.371 139.057 178.936 135.877 176.949C129.027 172.677 118.356 199.402 118.314 199.487L117.332 199.21Z" fill="#F79646"/>
<path fill-rule="evenodd" clip-rule="evenodd" d="M119.338 19.1412H201.009C202.609 19.1412 203.932 20.4443 203.932 22.0679C203.932 23.6702 202.631 24.9947 201.009 24.9947H119.338C117.737 24.9947 116.414 23.6915 116.414 22.0679C116.414 20.4657 117.737 19.1412 119.338 19.1412Z" fill="#A4B0BE"/>
<path fill-rule="evenodd" clip-rule="evenodd" d="M119.338 31.9163H159.971C161.571 31.9163 162.894 33.2194 162.894 34.843C162.894 36.4452 161.592 37.7697 159.971 37.7697H119.338C117.737 37.7697 116.414 36.4666 116.414 34.843C116.414 33.2408 117.737 31.9163 119.338 31.9163Z" fill="#A4B0BE"/>
<path d="M189.569 79.3206H179.795V123.051H189.569V79.3206Z" fill="#4BA64E"/>
<path d="M185.215 72.5913H184.148V129.801H185.215V72.5913Z" fill="#4BA64E"/>
<path d="M203.676 58.2781H193.902V71.4164H203.676V58.2781Z" fill="#4BA64E"/>
<path d="M199.323 49.5834H198.256V87.7804H199.323V49.5834Z" fill="#4BA64E"/>
<path d="M270.963 79.0002H261.189V122.73H270.963V79.0002Z" fill="#4BA64E"/>
<path d="M266.61 72.2495H265.543V129.46H266.61V72.2495Z" fill="#4BA64E"/>
<path d="M285.069 56.3768H275.295V78.7438H285.069V56.3768Z" fill="#4BA64E"/>
<path d="M280.715 56.3768H279.648V87.9726H280.715V56.3768Z" fill="#4BA64E"/>
<path d="M301.331 47.9598H291.557V58.4491H301.331V47.9598Z" fill="#4BA64E"/>
<path d="M296.977 36.4238H295.91V75.8171H296.977V36.4238Z" fill="#4BA64E"/>
<path d="M351.012 58.8336H341.238V75.2617H351.012V58.8336Z" fill="#4BA64E"/>
<path d="M346.659 53.7706H345.592V81.9056H346.659V53.7706Z" fill="#4BA64E"/>
<path d="M133.977 105.789H124.203V149.519H133.977V105.789Z" fill="#4BA64E"/>
<path d="M129.624 86.4131H128.557V152.638H129.624V86.4131Z" fill="#4BA64E"/>
<path fill-rule="evenodd" clip-rule="evenodd" d="M313.197 61.6321H314.264V63.6616H318.618V76.7998H314.264V78.8293H313.197V76.7998H308.844V63.6616H313.197V61.6321ZM329.544 66.7379H330.611V76.3726H334.965V100H330.611V109.635H329.544V100H325.191V76.3726H329.544V66.7379ZM214.582 73.9158H215.649V77.5475H220.002V101.175H215.649V104.828H214.582V101.175H210.228V77.5475H214.582V73.9158ZM231.548 96.3897H232.615V100H236.968V123.328H232.615V126.917H231.548V123.328H227.194V100H231.548V96.3897ZM247.873 100.064H248.94V120.658H253.294V146.358H248.94V150.011H247.873V146.358H243.52V120.658H247.873V100.064ZM150.687 101.688H151.755V105.341H156.108V128.968H151.755V132.621H150.687V128.968H146.334V105.341H150.687V101.688ZM167.632 119.205H168.699V126.212H173.053V139.351H168.699V146.336H167.632V139.329H163.279V126.191H167.632V119.205ZM358.056 90.6857H362.409V81.0511H363.476V90.6857H367.83V114.313H363.476V123.948H362.409V114.313H358.056V90.6857Z" fill="#D43232"/>
<path fill-rule="evenodd" clip-rule="evenodd" d="M248.215 153.407L252.291 161.611H244.117L248.215 153.407Z" fill="#F79646"/>
<path fill-rule="evenodd" clip-rule="evenodd" d="M296.402 29.5022L292.625 21.9184H300.201L296.402 29.5022Z" fill="#A4B0BE"/>
<path fill-rule="evenodd" clip-rule="evenodd" d="M345.721 49.8184L341.922 42.2346H349.498L345.721 49.8184Z" fill="#A4B0BE"/>
<path fill-rule="evenodd" clip-rule="evenodd" d="M168.656 150.63L172.754 158.812H164.58L168.656 150.63Z" fill="#F79646"/>
<path fill-rule="evenodd" clip-rule="evenodd" d="M329.736 116.214L333.834 124.396H325.66L329.736 116.214Z" fill="#F79646"/>
<path d="M436.653 11.9846H377.326V209.165H436.653V11.9846Z" fill="#2F3542"/>
<path fill-rule="evenodd" clip-rule="evenodd" d="M425.086 142.042C425.086 152.168 416.891 160.372 406.775 160.372C396.66 160.372 388.465 152.168 388.465 142.042C388.465 131.916 396.66 123.713 406.775 123.713V131.938C401.205 131.938 396.681 136.467 396.681 142.042C396.681 147.618 401.205 152.147 406.775 152.147C412.345 152.147 416.869 147.618 416.869 142.042H425.086Z" fill="#A4B0BE"/>
<path fill-rule="evenodd" clip-rule="evenodd" d="M408.91 122.517C418.428 122.901 426.089 130.549 426.452 140.077H418.236C417.873 135.078 413.883 131.104 408.91 130.741V122.517Z" fill="#D43232"/>
<path fill-rule="evenodd" clip-rule="evenodd" d="M388.913 190.152H400.758C403.361 190.152 405.495 192.288 405.495 194.894C405.495 197.501 403.361 199.637 400.758 199.637H388.913C386.31 199.637 384.176 197.501 384.176 194.894C384.176 192.288 386.31 190.152 388.913 190.152Z" fill="#4BA64E"/>
<path fill-rule="evenodd" clip-rule="evenodd" d="M413.968 190.152H425.812C428.416 190.152 430.55 192.288 430.55 194.894C430.55 197.501 428.416 199.637 425.812 199.637H413.968C411.365 199.637 409.23 197.501 409.23 194.894C409.23 192.288 411.365 190.152 413.968 190.152Z" fill="#D43232"/>
<path d="M429.866 170.968H384.154V181.97H429.866V170.968Z" fill="#CED6E0"/>
<path d="M407.01 170.968H384.154V181.97H407.01V170.968Z" fill="#A4B0BE"/>
<path fill-rule="evenodd" clip-rule="evenodd" d="M389.639 23.4352H413.732C415.333 23.4352 416.656 24.7383 416.656 26.3619C416.656 27.9641 415.354 29.2886 413.732 29.2886H389.639C388.038 29.2886 386.715 27.9855 386.715 26.3619C386.715 24.7383 388.038 23.4352 389.639 23.4352Z" fill="#A4B0BE"/>
<path fill-rule="evenodd" clip-rule="evenodd" d="M389.639 36.2102H399.711C401.312 36.2102 402.635 37.5133 402.635 39.1369C402.635 40.7392 401.333 42.0637 399.711 42.0637H389.639C388.038 42.0637 386.715 40.7605 386.715 39.1369C386.715 37.5133 388.038 36.2102 389.639 36.2102Z" fill="#A4B0BE"/>
<path fill-rule="evenodd" clip-rule="evenodd" d="M408.42 36.2102H425.77C427.37 36.2102 428.693 37.5133 428.693 39.1369C428.693 40.7392 427.392 42.0637 425.77 42.0637H408.42C406.819 42.0637 405.496 40.7605 405.496 39.1369C405.496 37.5133 406.819 36.2102 408.42 36.2102Z" fill="#A4B0BE"/>
<path fill-rule="evenodd" clip-rule="evenodd" d="M389.639 49.0493H399.711C401.312 49.0493 402.635 50.3525 402.635 51.9761C402.635 53.5783 401.333 54.9028 399.711 54.9028H389.639C388.038 54.9028 386.715 53.5997 386.715 51.9761C386.715 50.3738 388.038 49.0493 389.639 49.0493Z" fill="#A4B0BE"/>
<path fill-rule="evenodd" clip-rule="evenodd" d="M408.42 49.0493H425.77C427.37 49.0493 428.693 50.3525 428.693 51.9761C428.693 53.5783 427.392 54.9028 425.77 54.9028H408.42C406.819 54.9028 405.496 53.5997 405.496 51.9761C405.496 50.3738 406.819 49.0493 408.42 49.0493Z" fill="#A4B0BE"/>
<path d="M398.902 66.2892H387.506V70.3909H398.902V66.2892Z" fill="#4BA64E"/>
<path d="M408.42 72.2495H387.506V76.3512H408.42V72.2495Z" fill="#4BA64E"/>
<path d="M418.215 78.2098H387.506V82.3115H418.215V78.2098Z" fill="#4BA64E"/>
<path d="M426.218 84.17H387.506V88.2717H426.218V84.17Z" fill="#4BA64E"/>
<path d="M412.88 90.1303H387.506V94.232H412.88V90.1303Z" fill="#D43232"/>
<path d="M421.651 96.0906H387.506V100.192H421.651V96.0906Z" fill="#D43232"/>
<path d="M425.044 102.051H387.506V106.153H425.044V102.051Z" fill="#D43232"/>
<path d="M428.758 107.99H387.506V112.091H428.758V107.99Z" fill="#D43232"/>
<path d="M376.087 214.292C375.959 215.403 375.532 215.915 375.789 216.984C375.981 217.774 376.151 219.312 376.087 220.124C376.045 220.765 375.639 223.008 374.551 222.965C374.423 222.965 374.337 222.922 374.252 222.816C374.039 223.307 373.292 222.858 373.036 222.687C372.78 223.136 371.947 222.816 371.713 222.517C371.392 223.286 369.92 222.324 369.472 221.128C368.874 220.551 368.96 218.757 369.109 218.116C369.066 218.094 369.258 217.71 369.514 217.24C369.963 216.385 370.667 215.21 370.774 214.975C371.072 214.42 371.52 213.95 371.499 213.288L376.087 214.292Z" fill="#F3ADBE"/>
<path fill-rule="evenodd" clip-rule="evenodd" d="M354.726 170.818C353.211 167.635 354.384 161.418 357.607 160.03C358.46 159.667 360.872 158.492 362.451 159.389C368 162.508 375.704 182.269 376.557 189.554C377.262 195.514 378.115 210.041 375.938 217.881C375.469 219.568 373.314 218.65 372.545 218.201C370.646 217.539 370.667 204.508 366.89 191.775C363.774 181.243 356.092 173.681 354.726 170.818Z" fill="#F79646"/>
<path fill-rule="evenodd" clip-rule="evenodd" d="M307.371 173.489L305.984 171.78L305.087 167.122C305.13 166.546 304.661 163.085 303.935 164.324C303.423 165.2 302.911 167.486 302.804 167.486C300.798 164.772 297.661 161.995 297.533 161.974C295.868 161.675 298.386 165.285 298.749 165.905C298.92 166.204 297.746 164.901 297.575 166.439C297.533 166.909 297.832 166.887 298.024 167.443C298.152 167.785 297.255 166.482 297.106 167.699C296.999 168.511 297.234 168.511 297.426 168.981C297.49 169.109 297.127 168.81 296.914 168.917C296.743 169.002 296.658 169.451 296.85 169.75C299.069 173.574 300.755 171.993 303.209 176.864C304.639 179.641 307.307 174.664 307.371 173.489Z" fill="#F3ADBE"/>
<path fill-rule="evenodd" clip-rule="evenodd" d="M327.475 206.922C322.844 215.04 332.81 261.119 334.517 289.084L334.24 289.062C334.24 289.062 334.026 291.476 332.17 292.48C330.313 293.484 323.505 294.317 322.417 295.364C321.627 296.112 320.304 299.167 331.124 298.868C338.807 298.675 342.52 299.316 343.331 298.077C343.971 297.116 343.736 292.395 343.608 290.28H343.651C344.654 271.181 342.648 253.536 346.383 231.062C349.328 244.264 352.678 256.719 354.641 263.704C355.815 267.913 361.833 288.101 361.257 292.267C361.129 293.185 356.776 293.612 354.94 295.087C354.172 295.813 352.742 298.889 360.19 298.825C367.638 298.761 371.223 299.274 372.034 298.056C372.781 296.924 368.086 263.939 367.659 259.496C365.739 239.885 365.141 218.201 362.559 205.426C361.236 152.147 332.959 165.883 335.499 198.141C335.819 201.794 328.755 201.901 327.475 206.922Z" fill="#21242A"/>
<path d="M349.882 133.433C349.882 133.433 342.519 130.677 339.147 136.296C338.294 137.706 336.97 137.919 336.992 139.821C336.992 140.461 336.992 141.871 336.778 143.089C336.608 144.093 335.818 145.61 335.647 146.422C335.434 147.447 336.97 147.981 336.992 148.43C337.248 151.997 337.461 153.706 339.104 154.305C343.245 154.881 349.049 155.138 350.949 151.634C352.848 148.131 354.555 143.068 354.47 139.671C354.384 136.274 351.802 134.394 349.882 133.433Z" fill="#F3ADBE"/>
<path d="M341.003 154.134C341.003 154.134 341.302 156.056 340.811 157.018C340.32 157.979 350.051 158 350.051 158C350.051 158 350.841 152.831 352.335 148.473C353.85 144.093 341.003 154.134 341.003 154.134Z" fill="#F3ADBE"/>
<path fill-rule="evenodd" clip-rule="evenodd" d="M348.452 153.194C346.638 152.66 344.909 152.104 343.394 150.438C342.86 149.84 341.985 144.734 341.687 144.627C340.534 144.221 340.001 148.173 340.001 148.173C339.83 147.96 339.233 147.789 339.083 147.148C339.019 146.849 339.403 145.225 339.147 144.819C338.955 144.52 337.717 143.431 337.44 143.046C335.22 139.756 332.702 136.21 335.69 133.668C335.818 133.561 336.629 132.984 337.589 132.963C338.912 132.942 339.937 132.472 340.47 132.215C347.705 128.797 361.896 134.031 354.427 148.665C353.381 150.737 350.159 153.023 348.452 153.194Z" fill="#21242A"/>
<path d="M340.236 156.89C340.236 156.89 340.258 155.074 341.09 154.903C341.922 154.732 350.693 154.155 351.696 154.561L351.803 156.868C351.803 156.868 349.221 157.659 340.236 156.89Z" fill="#D1F2FF"/>
<path d="M340.576 145.781C340.726 145.14 342.305 142.491 342.945 144.478C343.564 146.443 342.006 149.113 341.11 148.878C340.235 148.643 340.192 147.404 340.576 145.781Z" fill="#F3ADBE"/>
<path fill-rule="evenodd" clip-rule="evenodd" d="M351.91 156.398C355.687 156.398 361.065 157.552 363.327 160.222C366.592 164.046 365.781 210.81 364.8 216.791C361.556 225.721 334.709 222.709 326.322 217.966L327.048 163.533C333.045 154.39 342.435 156.398 351.91 156.398Z" fill="#F79646"/>
<path fill-rule="evenodd" clip-rule="evenodd" d="M322.415 193.036C317.784 195.322 304.361 181.671 303.208 177.718C302.056 173.766 306.666 171.416 306.666 171.416C306.666 171.416 317.101 180.004 318.894 179.427C320.238 178.979 324.016 167.464 327.558 162.743C331.314 159.346 338.527 182.183 322.415 193.036Z" fill="#F79646"/>
<path fill-rule="evenodd" clip-rule="evenodd" d="M272.074 220.508C275.297 220.508 277.9 223.115 277.9 226.341C277.9 229.566 275.297 232.173 272.074 232.173C268.852 232.173 266.248 229.566 266.248 226.341C266.269 223.115 268.873 220.508 272.074 220.508Z" fill="#DFE4EA"/>
<path fill-rule="evenodd" clip-rule="evenodd" d="M61.9092 291.412L58.452 291.391L48.4219 297.693V299.145H61.6745H62.144H75.4179V297.693L65.3878 291.391L61.9092 291.412Z" fill="#57606F"/>
<path d="M64.3424 253.664H59.498V291.412H64.3424V253.664Z" fill="#57606F"/>
<path d="M66.3485 253.664H57.4707V268.361H66.3485V253.664Z" fill="#57606F"/>
<path fill-rule="evenodd" clip-rule="evenodd" d="M69.5067 246.934H100.728C102.606 246.934 104.121 248.473 104.121 250.331C104.121 252.211 102.585 253.728 100.728 253.728H69.5067C67.6287 253.728 66.1135 252.19 66.1135 250.331C66.0922 248.451 67.6287 246.934 69.5067 246.934Z" fill="#B2D2FF"/>
<path fill-rule="evenodd" clip-rule="evenodd" d="M58.9852 194.04H27.1875L35.1903 247.063L66.988 247.084C67.116 247.084 67.2441 247.084 67.3508 247.063C68.6526 247.063 69.5275 245.631 69.3355 244.328L61.7168 196.005C61.5034 194.723 60.3083 194.04 58.9852 194.04Z" fill="#A4B0BE"/>
<path fill-rule="evenodd" clip-rule="evenodd" d="M29.5569 196.005L37.6451 246.913H72.9213C74.7993 246.913 76.3145 248.451 76.3145 250.31C76.3145 252.19 74.778 253.706 72.9213 253.706H37.3676C33.9744 253.706 33.3769 250.523 33.0781 248.601L24.8406 196.753C24.6272 195.45 25.5022 194.018 26.8253 194.018C28.1484 194.04 29.3435 194.723 29.5569 196.005Z" fill="#888F9B"/>
<path fill-rule="evenodd" clip-rule="evenodd" d="M105.081 254.326L101.432 254.711L105.977 297.629C106.084 298.633 107.002 299.38 108.005 299.274C109.008 299.167 109.755 298.248 109.648 297.244L105.081 254.326Z" fill="#DAE2ED"/>
<path fill-rule="evenodd" clip-rule="evenodd" d="M101.432 254.881L105.956 297.629C106.063 298.526 106.81 299.231 107.684 299.274C108.239 298.91 108.581 298.248 108.517 297.543L103.971 254.625L101.432 254.881Z" fill="#A2BCD9"/>
<path d="M90.2492 232.856L108.389 241.551L108.432 290.6C108.56 290.75 108.688 290.899 108.816 291.049C108.922 291.156 109.008 291.263 109.114 291.391C109.349 291.647 109.584 291.903 109.819 292.138C109.925 292.245 110.032 292.352 110.139 292.438C111.846 294.04 113.895 294.296 115.581 294.574C116.882 294.787 117.885 294.852 118.889 296.496C118.91 296.539 118.953 296.603 118.974 296.646C119.209 297.244 118.782 297.928 118.12 297.971L102.926 298.697C102.179 298.74 101.538 298.206 101.41 297.501C101.389 297.394 101.389 297.287 101.389 297.201L101.88 290.494C101.88 290.494 101.88 290.493 101.88 290.472C100.493 277.569 96.7795 263.277 97.9746 247.981C97.9746 247.981 78.1704 229.31 78.1704 228.626C78.085 227.9 90.2492 232.856 90.2492 232.856Z" fill="#F4B1B1"/>
<path d="M90.1656 237.022C89.504 242.726 93.4947 246.123 92.8332 251.827C92.8332 266.118 90.3576 276.757 86.9645 291.198C86.8578 291.668 87.7114 296.219 87.6047 296.689C86.1108 298.291 81.6506 300.62 81.2025 293.185C83.1231 280.709 78.1294 266.375 83.0591 251.207L79.9434 236.082L90.1656 237.022Z" fill="#F4B1B1"/>
<path fill-rule="evenodd" clip-rule="evenodd" d="M79.5575 222.367C81.094 231.831 114.087 220.423 110.416 256.27C104.846 258.834 88.798 259.41 79.8776 257.274C77.7008 247.191 38.3485 260.393 53.1803 222.987C56.0187 216.3 78.5118 218.094 79.5575 222.367Z" fill="#333333"/>
<path fill-rule="evenodd" clip-rule="evenodd" d="M74.2223 196.304C75.9296 200.085 76.8686 207.968 84.6366 213.245C93.0876 218.97 109.861 219.056 109.264 216.044C108.88 214.078 98.5508 214.527 87.1122 204.978C84.658 202.927 80.9874 188.015 74.0516 184.448C73.198 183.914 71.8108 192.672 74.2223 196.304Z" fill="#F4B1B1"/>
<path fill-rule="evenodd" clip-rule="evenodd" d="M47.3333 187.759C44.431 199.637 55.4428 201.26 52.7965 225.23C61.5249 226.447 73.4757 226.597 80.9663 224.738C79.7712 215.915 81.6492 207.947 82.012 203.119C82.5455 195.877 80.8596 190.515 76.8476 186.221C72.9849 182.141 52.2417 180.432 47.3333 187.759Z" fill="#D43232"/>
<path fill-rule="evenodd" clip-rule="evenodd" d="M53.565 216.214C53.6717 218.735 53.1382 221.961 52.7754 225.23C55.9978 225.678 58.0039 225.935 61.5891 226.084C60.8635 224.482 55.3149 217.389 53.565 216.214Z" fill="#F66161"/>
<path fill-rule="evenodd" clip-rule="evenodd" d="M69.5923 180.496L69.6349 183.422L70.0618 183.786C71.7263 185.58 69.891 189.254 67.9917 189.126C63.19 189.34 59.5194 185.366 60.9919 183.23L61.6322 182.525L61.8029 178.381C61.5468 178.359 59.7542 177.334 59.2207 177.163C58.6871 176.992 57.8975 175.945 57.8549 174.856C57.8122 173.766 59.4981 174.129 59.4981 174.129C57.4707 171.31 55.1659 169.002 58.1963 166.503C61.2053 164.003 68.1198 162.572 68.1198 162.572L72.2812 161.162C71.7477 162.593 71.8971 165.67 72.9428 168.661C74.3939 172.933 73.1562 178.722 69.5923 180.496Z" fill="#F4B1B1"/>
<path fill-rule="evenodd" clip-rule="evenodd" d="M63.7227 178.979C63.7227 178.979 66.0488 183.016 67.9695 183.401C69.8901 183.786 68.9085 183.508 69.634 183.422L69.5914 180.496C68.2682 180.688 66.9664 180.581 63.7227 178.979Z" fill="#E98385"/>
<path fill-rule="evenodd" clip-rule="evenodd" d="M105.957 213.779H76.0586V214.484C76.0586 214.869 76.3787 215.189 76.7628 215.189H105.253C105.637 215.189 105.957 214.869 105.957 214.484V213.779Z" fill="#333333"/>
<path fill-rule="evenodd" clip-rule="evenodd" d="M118.078 195.151H94.5392C93.6216 195.151 93.024 195.941 92.8533 196.86L89.6309 214.142H116.307L119.529 196.625C119.679 195.813 118.868 195.151 118.078 195.151Z" fill="#333333"/>
<path fill-rule="evenodd" clip-rule="evenodd" d="M118.888 195.151H95.3496C94.4106 195.151 93.8344 195.941 93.6637 196.86L90.6547 212.839H90.612L90.4199 214.014C90.3132 214.655 90.9534 215.189 91.5937 215.189H115.986C116.626 215.189 117.053 214.655 117.16 214.014L117.309 213.053L120.361 196.625C120.489 195.813 119.678 195.151 118.888 195.151Z" fill="#57606F"/>
<path fill-rule="evenodd" clip-rule="evenodd" d="M106.491 204.144C105.936 204.016 105.338 204.443 105.189 205.106C105.04 205.768 105.36 206.409 105.915 206.537C106.469 206.665 107.067 206.238 107.216 205.576C107.366 204.913 107.046 204.273 106.491 204.144Z" fill="#A4B0BE"/>
<path fill-rule="evenodd" clip-rule="evenodd" d="M47.7607 188.037C39.3525 191.797 48.4863 207.669 49.9801 214.1C51.4527 220.103 80.9029 215.403 86.046 215.189C85.6832 214.078 82.098 212.433 79.6438 211.792C77.9792 211.365 75.1836 212.69 73.0068 212.262C62.7419 210.233 57.108 211.045 57.0653 210.66C56.7452 202.927 54.227 194.253 50.0015 189.126C49.6387 188.656 48.4009 187.759 47.7607 188.037Z" fill="#F4B1B1"/>
<path fill-rule="evenodd" clip-rule="evenodd" d="M64.2574 168.746C64.2574 168.746 70.5743 168.96 72.9431 166.909C77.8942 162.658 74.8851 152.51 62.2301 156.27C52.1786 159.261 57.0869 169.152 44.0051 173.254C39.1607 174.77 39.7369 177.206 43.9837 178.851C41.0814 179.876 43.877 182.717 46.5659 182.376C41.4442 186.477 52.5414 189.682 60.6508 183.743C65.3245 180.303 57.1083 169.814 64.2574 168.746Z" fill="#21242A"/>
<path fill-rule="evenodd" clip-rule="evenodd" d="M115.027 294.082C115.027 294.082 120.234 295.642 120.127 297.287C119.914 300.619 101.539 298.932 101.454 298.825C100.75 298.077 100.643 294.809 101.411 293.634C101.987 292.758 109.414 296.603 115.027 294.082Z" fill="#333333"/>
<path fill-rule="evenodd" clip-rule="evenodd" d="M89.2674 298.462C89.1607 300.577 81.4994 299.979 80.347 299.338C78.6398 298.398 80.7098 292.267 81.3714 293.014C81.3714 293.014 83.3561 296.155 85.7249 295.514C88.0937 294.873 87.2614 294.168 87.6669 294.98C88.4138 296.454 89.3741 296.496 89.2674 298.462Z" fill="#333333"/>
<path d="M140.827 221.107H136.004V299.167H140.827V221.107Z" fill="#A4B0BE"/>
<path fill-rule="evenodd" clip-rule="evenodd" d="M151.156 215.189H71.0645V221.641H151.156C152.928 221.641 154.379 220.188 154.379 218.415C154.379 216.642 152.928 215.189 151.156 215.189Z" fill="#A4B0BE"/>
<path fill-rule="evenodd" clip-rule="evenodd" d="M74.2662 215.189H28.533C26.7617 215.189 25.3105 216.642 25.3105 218.415C25.3105 220.188 26.7617 221.641 28.533 221.641H48.9348V299.188H53.0322H53.9925V221.641H74.2662C76.0375 221.641 77.4887 220.188 77.4887 218.415C77.4887 216.642 76.0375 215.189 74.2662 215.189Z" fill="#57606F"/>
<path fill-rule="evenodd" clip-rule="evenodd" d="M61.7381 140.12L62.613 139.543C62.9758 139.308 63.1465 138.838 63.0185 138.411C62.7624 137.599 62.5917 136.766 62.549 135.932C62.5277 135.484 62.1862 135.121 61.7594 135.035L60.735 134.822C60.2015 134.715 59.8601 134.181 59.9668 133.647L60.3722 131.66C60.479 131.126 61.0125 130.784 61.546 130.891L62.5703 131.104C62.9972 131.19 63.4453 130.976 63.6374 130.592C64.0215 129.844 64.491 129.139 65.0459 128.498C65.3446 128.156 65.366 127.686 65.1099 127.302L64.5337 126.426C64.2349 125.977 64.363 125.358 64.8111 125.059L66.497 123.948C66.9452 123.649 67.5641 123.777 67.8629 124.226L68.4391 125.101C68.6738 125.465 69.1433 125.636 69.5701 125.507C70.3811 125.251 71.2133 125.08 72.0456 125.037C72.4938 125.016 72.8566 124.674 72.9419 124.247L73.1554 123.222C73.2621 122.687 73.7956 122.346 74.3291 122.452L76.3138 122.858C76.8473 122.965 77.1888 123.499 77.0821 124.033L76.8686 125.059C76.7833 125.486 76.9967 125.935 77.3808 126.127C78.1278 126.511 78.832 126.981 79.4722 127.537C79.8137 127.836 80.2832 127.857 80.6673 127.622L81.5423 127.045C81.9904 126.746 82.6093 126.875 82.9081 127.323L84.0178 129.011C84.3166 129.46 84.1885 130.079 83.7404 130.378L82.8654 130.955C82.5026 131.19 82.3319 131.66 82.4599 132.087C82.716 132.899 82.8867 133.732 82.9294 134.565C82.9508 135.014 83.2922 135.377 83.719 135.462L84.7434 135.676C85.2769 135.783 85.6184 136.317 85.5117 136.851L85.1062 138.838C84.9995 139.372 84.466 139.714 83.9324 139.607L82.9081 139.393C82.4813 139.308 82.0331 139.521 81.841 139.906C81.4569 140.654 80.9874 141.359 80.4326 142C80.1338 142.341 80.1124 142.811 80.3472 143.196L80.9234 144.072C81.2222 144.52 81.0941 145.14 80.646 145.439L78.96 146.55C78.5119 146.849 77.893 146.721 77.5942 146.272L77.018 145.396C76.7833 145.033 76.3138 144.862 75.887 144.99C75.076 145.247 74.2437 145.418 73.4114 145.46C72.9633 145.482 72.6005 145.824 72.5151 146.251L72.3017 147.276C72.195 147.81 71.6615 148.152 71.128 148.045L69.1433 147.639C68.6098 147.533 68.2683 146.998 68.375 146.464L68.5884 145.439C68.6738 145.012 68.4604 144.563 68.0763 144.371C67.3293 143.986 66.6251 143.516 65.9849 142.961C65.6434 142.662 65.1739 142.64 64.7898 142.897L63.9148 143.474C63.4667 143.773 62.8478 143.644 62.549 143.196L61.4393 141.508C61.1405 141.038 61.2686 140.419 61.7381 140.12ZM68.7378 139.009C70.2957 140.696 72.8352 141.209 74.948 140.269C78.4265 138.71 79.3228 134.266 76.7406 131.468C75.1827 129.78 72.6432 129.267 70.5304 130.207C67.0519 131.767 66.1343 136.21 68.7378 139.009Z" fill="#A4B0BE"/>
</g>
<defs>
<clipPath id="clip0_209_229">
<rect width="453" height="300" fill="white"/>
</clipPath>
</defs>
</svg>
