<svg width="429" height="300" viewBox="0 0 429 300" fill="none" xmlns="http://www.w3.org/2000/svg">
<g clip-path="url(#clip0_113_1116)">
<path fill-rule="evenodd" clip-rule="evenodd" d="M187.625 0H419.051C424.526 0 429.033 5.27194 429.033 11.7117V161.762C429.033 168.202 424.526 173.473 419.051 173.473H187.625C182.15 173.473 177.643 168.202 177.643 161.762V11.7117C177.643 5.27194 182.116 0 187.625 0Z" fill="#CED6E0"/>
<path fill-rule="evenodd" clip-rule="evenodd" d="M184.253 5.57224H422.39C422.957 5.57224 423.458 6.03937 423.458 6.63997V166.867C423.458 167.434 422.991 167.935 422.39 167.935H184.253C183.685 167.935 183.185 167.467 183.185 166.867V6.63997C183.185 6.03937 183.685 5.57224 184.253 5.57224Z" fill="#2F3542"/>
<path d="M423.425 136.737H183.185V167.935H423.425V136.737Z" fill="#57606F"/>
<path d="M409.269 144.711H198.008V145.012H409.269V144.711Z" fill="#CED6E0"/>
<path d="M409.269 157.824H198.008V158.125H409.269V157.824Z" fill="#CED6E0"/>
<path d="M198.642 158.926C198.675 158.859 207.055 138.739 212.998 142.309C215.502 143.777 217.238 145.579 218.707 147.08C220.476 148.916 221.811 150.284 223.481 150.017C225.15 149.75 227.153 149.483 229.123 149.65C231.126 149.816 233.096 150.384 234.698 151.819C235.833 152.82 236.501 153.787 237.169 154.721C238.304 156.323 239.305 157.758 242.343 158.892C245.248 159.96 248.119 154.154 250.556 149.249C251.858 146.613 253.027 144.244 254.095 143.277C254.162 143.21 254.228 143.177 254.262 143.11C255.731 141.808 257.333 141.308 258.902 141.408C260.438 141.508 261.94 142.176 263.176 143.243C263.242 143.31 263.309 143.343 263.376 143.41C264.778 144.678 267.816 146.68 271.121 148.148C273.492 149.216 276.029 149.983 278.132 149.983C281.805 149.983 284.075 153.42 285.878 156.19C286.712 157.457 287.447 158.592 288.114 159.092L288.215 159.159C290.418 160.794 293.757 163.23 296.094 162.229C297.062 161.795 298.764 159.927 300.734 157.758C303.705 154.488 307.278 150.517 310.316 149.483C312.786 148.649 316.024 146.48 318.896 144.578C321.7 142.709 324.17 141.108 325.339 141.108C326.941 141.108 331.382 145.212 335.021 148.582C336.723 150.15 338.259 151.585 339.194 152.286C340.028 152.92 341.097 153.854 342.232 154.855C345.07 157.357 348.442 160.294 349.677 160.093C350.545 159.96 352.815 158.292 355.152 156.323C357.723 154.154 360.393 151.552 361.395 150.15C362.397 148.749 363.966 146.547 366.403 144.978C368.84 143.377 372.112 142.409 376.418 143.477C381.66 144.778 386.334 148.415 389.873 151.185C392.009 152.853 393.745 154.188 394.847 154.454C397.751 155.122 401.491 152.319 401.491 152.286L401.958 152.753C401.958 152.753 397.952 155.789 394.68 155.022C393.411 154.721 391.642 153.353 389.405 151.618C385.9 148.916 381.293 145.312 376.218 144.044C372.178 143.01 369.107 143.944 366.837 145.445C364.533 146.947 362.997 149.082 362.029 150.45C360.994 151.919 358.29 154.555 355.653 156.757C353.216 158.792 350.845 160.527 349.844 160.694C348.241 160.961 344.702 157.891 341.764 155.289C340.629 154.288 339.561 153.353 338.76 152.753C337.792 152.019 336.256 150.584 334.553 149.016C331.014 145.746 326.674 141.742 325.372 141.742C324.438 141.742 322.067 143.31 319.363 145.078C316.458 147.014 313.153 149.183 310.616 150.05C307.778 151.018 304.273 154.922 301.335 158.125C299.298 160.36 297.562 162.296 296.461 162.763C293.723 163.964 290.184 161.361 287.814 159.626L287.714 159.56C286.913 158.992 286.178 157.825 285.31 156.49C283.607 153.854 281.471 150.584 278.199 150.584C275.962 150.584 273.358 149.783 270.854 148.682C267.482 147.181 264.378 145.145 262.909 143.844C262.842 143.777 262.775 143.744 262.742 143.677C261.607 142.709 260.271 142.075 258.902 142.009C257.534 141.942 256.131 142.376 254.796 143.544C254.729 143.577 254.696 143.644 254.629 143.677C253.661 144.545 252.526 146.88 251.257 149.483C248.72 154.621 245.682 160.761 242.143 159.459C238.905 158.258 237.803 156.723 236.634 155.022C236 154.121 235.332 153.187 234.264 152.219C232.795 150.918 230.992 150.384 229.123 150.25C227.22 150.083 225.317 150.35 223.681 150.617C221.645 150.951 220.176 149.449 218.273 147.481C216.837 146.013 215.134 144.244 212.697 142.809C207.489 139.706 199.41 159.092 199.377 159.126L198.642 158.926Z" fill="#EA7E2F"/>
<path fill-rule="evenodd" clip-rule="evenodd" d="M320.365 55.5889H321.266V61.2613H324.938V98.0981H321.266V103.77H320.365V98.0981H316.692V61.2946H320.365V55.5889ZM333.184 61.0611V68.8355H332.283V61.0611H328.611V42.2089H332.283H333.184H336.857V61.0611H333.184ZM346.004 25.3921H346.906V35.1018H350.578V43.9439H346.906V58.5919H346.004V43.9439H342.332V35.1018H346.004V25.3921ZM251.658 55.8892H252.559V61.5616H256.232V98.4318H252.559V104.104H251.658V98.4318H247.985V61.5616H251.658V55.8892ZM263.576 36.5032H264.478V43.8438H268.15V54.9216H264.478V68.702H263.576V54.9216H259.904V43.8438H263.576V36.5032ZM204.718 67.5342H205.62V83.8505H209.292V120.687H205.62V123.323H204.718V120.687H201.046V83.8839H204.718V67.5342ZM384.264 44.2776H387.936V40.04H388.838V44.311H392.51V58.1582H388.838V63.7304H387.936V58.1248H384.264V44.2776Z" fill="#4BA64E"/>
<path fill-rule="evenodd" clip-rule="evenodd" d="M360.594 46.6467H361.495V48.3484H365.167V59.4261H361.495V61.1278H360.594V59.4261H356.921V48.3484H360.594V46.6467ZM374.382 50.951H375.283V59.0591H378.956V78.979H375.283V87.0871H374.382V78.979H370.709V59.0591H374.382V50.951ZM277.364 56.9903H278.266V60.0601H281.938V79.98H278.266V83.0497H277.364V79.98H273.692V60.0601H277.364V56.9903ZM291.653 75.9426H292.555V78.979H296.227V98.632H292.555V101.668H291.653V98.632H287.981V78.979H291.653V75.9426ZM305.441 79.0457H306.343V96.3964H310.015V118.051H306.343V121.121H305.441V118.051H301.769V96.3964H305.441V79.0457ZM223.414 80.4138H224.315V83.4835H227.988V103.403H224.315V106.473H223.414V103.403H219.741V83.4835H223.414V80.4138ZM237.703 95.1618H238.604V101.068H242.276V112.145H238.604V118.051H237.703V112.145H234.03V101.068H237.703V95.1618ZM398.486 71.1378H402.158V63.0297H403.06V71.1378H406.732V91.0577H403.06V99.1658H402.158V91.0577H398.486V71.1378Z" fill="#D43232"/>
<path fill-rule="evenodd" clip-rule="evenodd" d="M196.272 12.7461H263.076C264.378 12.7461 265.446 13.8138 265.446 15.1151C265.446 16.4164 264.378 17.4842 263.076 17.4842H196.272C194.97 17.4842 193.901 16.4164 193.901 15.1151C193.868 13.8138 194.97 12.7461 196.272 12.7461Z" fill="#CED6E0"/>
<path fill-rule="evenodd" clip-rule="evenodd" d="M196.272 23.1898H229.523C230.825 23.1898 231.894 24.2576 231.894 25.5589C231.894 26.8602 230.825 27.9279 229.523 27.9279H196.272C194.97 27.9279 193.901 26.8602 193.901 25.5589C193.868 24.2576 194.97 23.1898 196.272 23.1898Z" fill="#CED6E0"/>
<path fill-rule="evenodd" clip-rule="evenodd" d="M305.742 124.024L309.18 130.898H302.27L305.742 124.024Z" fill="#F79646"/>
<path fill-rule="evenodd" clip-rule="evenodd" d="M346.438 19.5529L343.233 13.1799H349.61L346.438 19.5529Z" fill="#CED6E0"/>
<path fill-rule="evenodd" clip-rule="evenodd" d="M388.036 36.67L384.865 30.297H391.241L388.036 36.67Z" fill="#CED6E0"/>
<path fill-rule="evenodd" clip-rule="evenodd" d="M238.571 121.655L242.043 128.562H235.132L238.571 121.655Z" fill="#F79646"/>
<path fill-rule="evenodd" clip-rule="evenodd" d="M173.202 228.795L167.527 229.396L174.605 296.029C174.772 297.598 176.174 298.732 177.743 298.565C179.312 298.398 180.447 296.997 180.28 295.429L173.202 228.795Z" fill="#C9DBF5"/>
<path fill-rule="evenodd" clip-rule="evenodd" d="M167.594 229.663L174.605 295.996C174.738 297.397 175.907 298.465 177.275 298.532C178.143 297.965 178.678 296.93 178.544 295.829L171.5 229.196L167.594 229.663Z" fill="#A4B0BE"/>
<path fill-rule="evenodd" clip-rule="evenodd" d="M73.9148 228.795L79.5903 229.396L72.546 296.063C72.3791 297.631 70.9769 298.765 69.4078 298.599C67.8387 298.432 66.7036 297.03 66.8705 295.462L73.9148 228.795Z" fill="#A4B0BE"/>
<path fill-rule="evenodd" clip-rule="evenodd" d="M129.234 228.795L123.559 229.396L130.603 296.53C130.77 298.098 132.172 299.233 133.741 299.066C135.31 298.899 136.445 297.498 136.278 295.929L129.234 228.795Z" fill="#C9DBF5"/>
<path fill-rule="evenodd" clip-rule="evenodd" d="M123.592 229.696L130.603 296.53C130.736 297.965 131.905 299.032 133.274 299.099C134.142 298.532 134.676 297.497 134.542 296.396L127.531 229.263L123.592 229.696Z" fill="#A4B0BE"/>
<path fill-rule="evenodd" clip-rule="evenodd" d="M118.05 228.795L123.726 229.396L116.681 296.063C116.514 297.631 115.112 298.765 113.543 298.599C111.974 298.432 110.839 297.03 111.006 295.462L118.05 228.795Z" fill="#A4B0BE"/>
<path fill-rule="evenodd" clip-rule="evenodd" d="M121.656 220.487H174.037C176.841 220.487 179.145 222.789 179.145 225.592C179.145 228.395 176.841 230.697 174.037 230.697H121.656C118.851 230.697 116.548 228.395 116.548 225.592C116.548 222.789 118.851 220.487 121.656 220.487Z" fill="#CED6E0"/>
<path fill-rule="evenodd" clip-rule="evenodd" d="M105.831 140.908H57.9233L69.9754 220.654L117.883 220.687C118.084 220.687 118.25 220.687 118.451 220.654C120.42 220.654 121.756 218.485 121.422 216.55L109.938 143.877C109.637 141.942 107.801 140.908 105.831 140.908Z" fill="#CED6E0"/>
<path fill-rule="evenodd" clip-rule="evenodd" d="M61.4622 143.911L73.8481 221.922C74.1485 223.857 72.8465 226.026 70.8768 226.026C68.9071 226.026 67.0709 224.992 66.7704 223.056L54.3845 145.045C54.084 143.11 55.386 140.941 57.3558 140.941C59.3589 140.908 61.1617 141.942 61.4622 143.911Z" fill="#A4B0BE"/>
<path fill-rule="evenodd" clip-rule="evenodd" d="M73.2471 220.487H126.797C129.601 220.487 131.905 222.789 131.905 225.592C131.905 228.395 129.601 230.697 126.797 230.697H73.2471C70.4427 230.697 68.1392 228.395 68.1392 225.592C68.1392 222.789 70.4427 220.487 73.2471 220.487Z" fill="#A4B0BE"/>
<path fill-rule="evenodd" clip-rule="evenodd" d="M125.495 139.206C128.166 145.045 131.438 161.895 143.456 170.037C156.543 178.879 187.525 175.042 186.59 170.37C186.49 169.836 182.884 167.801 180.981 167.634C179.379 167.501 175.206 167.935 173.637 167.534C166.225 165.599 157.478 162.663 145.393 152.586C141.62 149.449 136.779 130.564 126.029 125.025C124.794 124.224 121.789 133.6 125.495 139.206Z" fill="#F7AAAC"/>
<path fill-rule="evenodd" clip-rule="evenodd" d="M133.407 154.454C137.147 153.72 141.286 150.417 143.89 147.781C139.517 136.703 133.441 124.458 123.459 121.021L122.056 129.229L124.06 141.775L133.407 154.454Z" fill="#F79F2D"/>
<path fill-rule="evenodd" clip-rule="evenodd" d="M165.924 290.858L168.729 281.281L160.416 279.046L157.678 288.889L165.924 290.858Z" fill="#F8A98E"/>
<path fill-rule="evenodd" clip-rule="evenodd" d="M116.314 193.16L135.477 189.523C135.477 189.523 183.986 192.025 194.168 211.011C204.351 229.997 170.398 283.317 170.398 283.317L157.845 281.782C157.845 281.782 164.823 248.015 168.128 237.905C171.4 227.794 173.269 222.689 173.269 222.689L118.718 203.47L116.314 193.16Z" fill="#2F3542"/>
<path fill-rule="evenodd" clip-rule="evenodd" d="M157.678 282.349C158.179 279.88 159.147 275.409 160.282 270.137C159.214 275.309 158.279 279.613 157.678 282.349ZM116.314 193.16L123.525 194.828C129.067 194.928 152.47 198.866 156.51 199.733C170.131 202.669 171.066 210.711 169.53 221.421L118.684 203.504L116.314 193.16Z" fill="#21242A"/>
<path fill-rule="evenodd" clip-rule="evenodd" d="M147.396 288.155L148.23 279.479L139.517 279.713L139.617 289.623L147.396 288.155Z" fill="#F8A98E"/>
<path fill-rule="evenodd" clip-rule="evenodd" d="M147.83 286.687C150.3 291.091 154.307 295.329 151.168 299.066H135.244C135.21 298.999 135.177 298.932 135.177 298.832C135.01 298.332 134.275 298.098 134.776 296.23C135.711 292.726 138.415 287.354 139.35 287.087C141.186 286.553 143.824 288.088 147.83 286.687Z" fill="#031542"/>
<path fill-rule="evenodd" clip-rule="evenodd" d="M152.37 296.163C152.403 297.331 152.27 298.365 151.168 299.099H135.243C134.409 298.632 134.209 298.298 134.776 296.263L152.37 296.163Z" fill="#A4B0BE"/>
<path fill-rule="evenodd" clip-rule="evenodd" d="M141.52 286.253H145.192C145.693 286.253 146.127 286.653 146.127 287.187V291.925C146.127 292.426 145.727 292.86 145.192 292.86H141.52C141.019 292.86 140.585 292.459 140.585 291.925V287.187C140.585 286.687 141.019 286.253 141.52 286.253Z" fill="#2F3542"/>
<path fill-rule="evenodd" clip-rule="evenodd" d="M90.8078 194.728C90.8078 194.728 88.8047 213.514 98.9204 218.352C109.036 223.19 140.585 223.69 140.585 223.69C134.209 247.548 139.751 261.695 137.647 282.983L151.369 283.05C151.369 283.05 159.815 245.078 162.92 223.557C164.489 212.713 164.823 204.071 151.068 201.101C146.428 200.1 116.314 193.126 116.314 193.126L90.8078 194.728Z" fill="#2F3542"/>
<path fill-rule="evenodd" clip-rule="evenodd" d="M80.258 128.028C75.751 146.346 91.2751 166.466 89.9731 202.97C103.461 204.838 137.313 194.361 139.55 189.857C137.681 176.243 135.077 166.6 134.776 159.159C134.375 148.415 133.674 130.13 127.431 123.49C121.489 117.15 93.5787 115.682 80.258 128.028Z" fill="#F79F2D"/>
<path d="M118.017 119.486C113.309 118.485 107.3 117.518 99.488 119.353C96.6168 127.427 107.033 132.933 113.977 131.965C121.222 130.931 122.09 122.356 118.017 119.486Z" fill="#F1800E"/>
<path fill-rule="evenodd" clip-rule="evenodd" d="M121.155 169.036L94.5135 162.162L90.574 148.315L86.7681 147.848C86.7681 147.848 82.161 158.458 82.2611 159.092C82.3613 159.726 86.8015 168.936 86.5344 169.002C86.3007 169.069 103.962 171.738 105.364 171.805C106.799 171.905 121.155 169.036 121.155 169.036Z" fill="#F1800E"/>
<path fill-rule="evenodd" clip-rule="evenodd" d="M116.047 115.249L116.114 119.987L116.815 120.587C119.486 123.49 116.514 129.396 113.476 129.196C105.698 129.53 99.7884 123.123 102.159 119.686L103.194 118.552L103.461 111.845C103.06 111.812 100.156 110.143 99.2876 109.877C98.4196 109.61 97.151 107.908 97.0842 106.173C97.0174 104.404 99.7216 105.005 99.7216 105.005C96.4499 100.467 92.7441 96.7301 97.6183 92.6927C102.493 88.6553 113.677 86.353 113.677 86.353L120.387 84.0841C119.519 86.3864 119.786 91.358 121.455 96.1962C123.826 103.036 121.789 112.379 116.047 115.249Z" fill="#F7AAAC"/>
<path fill-rule="evenodd" clip-rule="evenodd" d="M106.566 112.813C106.566 112.813 110.305 119.353 113.443 119.953C116.548 120.554 114.979 120.12 116.114 119.987L116.047 115.249C113.877 115.582 111.807 115.382 106.566 112.813Z" fill="#EA8287"/>
<path fill-rule="evenodd" clip-rule="evenodd" d="M194.369 170.037H142.288C141.553 170.037 140.919 170.637 140.919 171.405C140.919 172.139 141.52 172.773 142.288 172.773H195.737V171.405C195.737 170.637 195.103 170.037 194.369 170.037Z" fill="#CED6E0"/>
<path fill-rule="evenodd" clip-rule="evenodd" d="M84.5647 126.426C71.5445 132.232 76.5856 159.526 78.8892 169.469C81.1594 178.745 134.676 174.141 142.655 173.807C142.087 172.105 141.052 168.268 137.247 167.267C134.676 166.6 123.458 167.568 120.087 166.934C104.195 163.797 89.9063 164.765 89.8396 164.164C89.3388 152.219 94.5469 136.003 88.0034 128.128C87.4692 127.394 85.5329 125.993 84.5647 126.426Z" fill="#F7AAAC"/>
<path fill-rule="evenodd" clip-rule="evenodd" d="M169.163 119.152H111.74C109.504 119.152 109.136 121.054 108.669 123.257L100.556 162.83C100.256 164.698 99.4546 167.901 104.429 167.901L163.254 167.935L173.803 122.489C174.171 120.621 172.535 119.152 169.163 119.152Z" fill="#CED6E0"/>
<path fill-rule="evenodd" clip-rule="evenodd" d="M171.6 119.953H112.775C110.538 119.953 110.138 121.822 109.704 124.057L102.393 162.83L101.992 165.132C101.725 166.667 103.261 167.935 104.796 167.935H163.154C164.689 167.935 165.724 166.667 165.958 165.132L166.292 162.83H166.359L173.67 123.49C174.037 121.555 173.503 119.953 171.6 119.953Z" fill="#DFE4EA"/>
<path fill-rule="evenodd" clip-rule="evenodd" d="M102.459 166.8C102.993 167.467 103.895 167.935 104.796 167.935H163.154C163.855 167.935 164.489 167.668 164.956 167.201L156.41 160.961L118.184 161.461L102.459 166.8Z" fill="#A4B0BE"/>
<path fill-rule="evenodd" clip-rule="evenodd" d="M164.956 167.234C165.491 166.7 165.858 165.966 165.991 165.132L166.325 162.83H166.392L173.703 123.49C173.937 122.155 173.77 120.954 172.935 120.354L161.584 131.398L156.376 161.028L164.956 167.234Z" fill="#CED6E0"/>
<path fill-rule="evenodd" clip-rule="evenodd" d="M111.941 120.053C110.438 120.487 110.071 122.156 109.704 124.024L102.393 162.83L101.992 165.132C101.892 165.766 102.092 166.333 102.459 166.8L118.184 161.428L123.225 131.365L111.941 120.053Z" fill="#F5F7F9"/>
<path fill-rule="evenodd" clip-rule="evenodd" d="M171.6 119.953H112.775C112.475 119.953 112.174 119.987 111.941 120.053L123.258 131.365H161.584L173.203 120.587C172.869 120.187 172.335 119.953 171.6 119.953Z" fill="white"/>
<path fill-rule="evenodd" clip-rule="evenodd" d="M286.712 172.739H120.12V181.648H286.712C289.149 181.648 291.186 179.646 291.186 177.177C291.186 174.741 289.149 172.739 286.712 172.739Z" fill="#A4B0BE"/>
<path fill-rule="evenodd" clip-rule="evenodd" d="M286.712 172.739H121.389V177.211H291.186C291.186 174.741 289.149 172.739 286.712 172.739Z" fill="#A4B0BE"/>
<path fill-rule="evenodd" clip-rule="evenodd" d="M125.328 172.739H55.6532C53.2161 172.739 51.1796 174.741 51.1796 177.211C51.1796 179.646 53.1827 181.682 55.6532 181.682H125.328C127.765 181.682 129.802 179.68 129.802 177.211C129.802 174.741 127.765 172.739 125.328 172.739Z" fill="#747D8C"/>
<path d="M257.033 181.648H249.788V299.066H257.033V181.648Z" fill="#747D8C"/>
<path d="M257.033 181.648H255.664V299.066H257.033V181.648Z" fill="#A4B0BE"/>
<path d="M94.38 181.648H86.7682V299.066H94.38V181.648Z" fill="#747D8C"/>
<path d="M94.38 181.648H92.9445V299.066H94.38V181.648Z" fill="#A4B0BE"/>
<path fill-rule="evenodd" clip-rule="evenodd" d="M118.952 95.362C113.61 97.7644 107.5 92.7594 104.229 96.9303C102.626 98.999 102.893 101.869 104.963 106.206C105.564 107.508 106.365 108.442 104.095 107.474C103.06 107.04 101.358 106.44 100.823 106.94C99.5881 108.008 100.323 110.144 101.358 110.811C101.825 111.111 102.693 111.545 102.693 111.545C89.8396 108.809 84.3644 79.5462 114.812 81.615C115.747 81.6817 115.913 80.0467 116.882 80.2803C124.427 81.9486 125.495 91.6917 118.952 95.362Z" fill="#21242A"/>
<path fill-rule="evenodd" clip-rule="evenodd" d="M167.961 286.42C167.961 286.42 179.446 291.124 183.251 292.993C186.223 294.461 187.892 297.498 185.455 299.066H155.742C155.709 298.999 155.675 298.932 155.675 298.832C155.241 297.364 154.073 286.887 157.178 287.12C159.114 287.287 163.688 288.622 167.961 286.42Z" fill="#031542"/>
<path fill-rule="evenodd" clip-rule="evenodd" d="M186.657 296.163L186.623 297.364C186.59 298.298 186.256 298.599 185.455 299.099H155.609C155.575 299.032 155.542 298.966 155.542 298.866C155.442 298.565 155.241 297.097 155.141 296.263L186.657 296.163Z" fill="#A4B0BE"/>
<path fill-rule="evenodd" clip-rule="evenodd" d="M169.23 286.954C173.369 288.655 180.28 291.592 183.118 292.926C181.616 294.061 180.213 293.861 180.213 293.861C180.213 293.861 172.134 291.358 169.864 289.723C168.529 288.755 168.796 287.688 169.23 286.954Z" fill="#2F3542"/>
<path fill-rule="evenodd" clip-rule="evenodd" d="M90.2403 126.593C90.2403 126.593 92.4771 132.399 92.2434 142.276C91.9763 152.152 90.6409 161.228 90.6409 161.228C90.6409 161.228 89.606 161.795 84.5648 162.83C79.557 163.864 76.4522 162.262 76.4522 162.262C74.9498 153.187 72.6463 129.963 83.7969 125.559C86.234 124.625 90.2403 126.593 90.2403 126.593Z" fill="#F79F2D"/>
<path fill-rule="evenodd" clip-rule="evenodd" d="M144.358 143.343H134.342L137.948 172.739H147.963L144.358 143.343Z" fill="#CED6E0"/>
<path fill-rule="evenodd" clip-rule="evenodd" d="M150.868 140.44H133.24C132.573 140.44 132.439 141.008 132.306 141.675L130.102 153.287L129.969 153.987C129.902 154.454 130.336 154.821 130.803 154.821H148.297C148.764 154.821 149.065 154.421 149.132 153.987L149.232 153.287H149.265L151.469 141.475C151.602 140.941 151.435 140.44 150.868 140.44Z" fill="#CED6E0"/>
<path fill-rule="evenodd" clip-rule="evenodd" d="M240.006 119.086H182.584C180.347 119.086 179.946 120.954 179.512 123.19L171.834 162.83C171.533 164.698 170.732 167.901 175.706 167.901L234.531 167.935L244.814 121.822C245.148 119.92 241.909 119.086 240.006 119.086Z" fill="#CED6E0"/>
<path fill-rule="evenodd" clip-rule="evenodd" d="M242.844 119.953H184.019C181.782 119.953 181.382 121.822 180.948 124.057L173.67 162.83L173.269 165.132C173.002 166.667 174.538 167.935 176.074 167.935H234.431C235.967 167.935 237.002 166.667 237.235 165.132L237.569 162.83H237.636L244.947 123.49C245.315 121.555 244.78 119.953 242.844 119.953Z" fill="#DFE4EA"/>
<path fill-rule="evenodd" clip-rule="evenodd" d="M173.703 166.8C174.237 167.467 175.139 167.935 176.04 167.935H234.398C235.099 167.935 235.733 167.668 236.2 167.201L227.654 160.961L189.461 161.428L173.703 166.8Z" fill="#A4B0BE"/>
<path fill-rule="evenodd" clip-rule="evenodd" d="M236.2 167.234C236.735 166.7 237.102 165.966 237.235 165.132L237.569 162.83H237.636L244.947 123.49C245.181 122.155 245.014 120.954 244.179 120.354L232.828 131.398L227.62 161.028L236.2 167.234Z" fill="#CED6E0"/>
<path fill-rule="evenodd" clip-rule="evenodd" d="M183.185 120.053C181.682 120.487 181.315 122.156 180.948 124.024L173.67 162.83L173.269 165.132C173.169 165.766 173.369 166.333 173.737 166.8L189.461 161.428L194.502 131.365L183.185 120.053Z" fill="#F5F7F9"/>
<path fill-rule="evenodd" clip-rule="evenodd" d="M242.844 119.953H184.019C183.719 119.953 183.418 119.987 183.185 120.053L194.502 131.365H232.862L244.48 120.587C244.113 120.187 243.579 119.953 242.844 119.953Z" fill="white"/>
<path fill-rule="evenodd" clip-rule="evenodd" d="M222.145 140.44H204.518C203.85 140.44 203.717 141.008 203.583 141.675L201.38 153.287L201.246 153.987C201.179 154.454 201.613 154.821 202.081 154.821H219.575C220.042 154.821 220.342 154.421 220.409 153.987L220.509 153.287H220.543L222.746 141.475C222.88 140.941 222.713 140.44 222.145 140.44Z" fill="#CED6E0"/>
<path fill-rule="evenodd" clip-rule="evenodd" d="M216.236 143.343H206.187L209.826 172.739H219.842L216.236 143.343Z" fill="#CED6E0"/>
<path fill-rule="evenodd" clip-rule="evenodd" d="M17.7275 298.665H420.053C420.42 298.665 420.72 298.966 420.72 299.333C420.72 299.7 420.42 300 420.053 300H17.7275C17.3603 300 17.0598 299.7 17.0598 299.333C17.0598 298.966 17.3603 298.665 17.7275 298.665Z" fill="#2F3542"/>
<path d="M123.826 11.5115C138.282 16.9836 145.56 33.0998 140.118 47.5475C134.643 61.9953 118.518 69.2693 104.062 63.8305C89.6059 58.3584 82.3279 42.2422 87.7697 27.7945C93.2115 13.3467 109.37 6.03937 123.826 11.5115Z" fill="#CED6E0"/>
<path d="M105.731 31.4314C105.664 31.9319 105.631 32.5325 105.664 33.0998L105.631 33.1665C105.731 33.3 105.864 34.2342 105.965 34.5012C106.098 34.9349 106.399 35.3353 106.499 35.669C106.566 35.7357 107 36.3363 107.133 36.4698C107.4 36.7701 107.567 36.8702 107.868 37.1705C108.168 37.3707 108.435 37.6043 108.802 37.8045C109.771 38.4384 110.839 38.9056 111.941 39.306C113.376 39.8065 115.313 40.5072 116.047 41.4414C117.082 42.7761 116.347 44.7114 114.211 45.0117C113.009 45.1785 111.139 45.0784 109.871 44.7781C109.47 44.678 109.069 44.5445 108.669 44.4444C108.302 44.2776 106.966 43.8105 106.799 43.6436L106.465 43.5435C106.432 43.7104 106.432 43.8438 106.332 43.9439C106.365 44.1441 106.232 44.678 106.132 44.8448C106.098 45.0117 105.698 46.8135 105.531 47.0137C105.531 47.1805 105.464 47.6477 105.464 47.9146C105.564 47.9813 105.464 47.9146 105.564 47.9813L105.731 48.1482C105.898 48.1482 106.532 48.3817 106.666 48.4818L108.802 49.0824L109.804 49.2826L111.306 49.4828C111.44 49.4495 111.44 49.4495 111.607 49.4828L111.707 49.5162C111.807 49.5495 111.774 49.5496 111.807 49.5829L111.874 49.7498C111.907 50.0167 111.807 52.5526 111.907 53.0864H115.613C115.68 51.952 115.646 50.6507 115.646 49.5162C115.646 49.1158 115.713 49.2159 116.114 49.1158C117.149 48.8822 117.616 48.5819 118.217 48.4151C118.317 48.315 119.018 47.9813 119.252 47.8145C119.419 47.7144 119.586 47.6143 119.753 47.4808C119.92 47.3474 120.02 47.2139 120.187 47.1472C120.287 46.9803 120.988 46.313 121.556 45.3453C122.323 43.9773 122.123 43.4434 122.357 42.9429V41.4081C122.257 41.1745 122.29 40.7741 122.223 40.5072C121.889 38.8055 120.554 37.3707 119.152 36.4698C116.681 34.9349 111.774 34.034 111.507 31.9319C111.34 30.7307 112.408 30.03 113.376 29.7965C114.511 29.5295 115.98 29.6296 117.115 29.8632C117.917 30.03 120.12 30.8308 120.187 30.8308C120.354 30.5973 120.32 30.3637 120.454 30.1635C120.454 29.9299 120.554 29.5295 120.654 29.3293C120.754 28.7955 121.288 27.027 121.222 26.5933C120.821 26.293 120.587 26.3597 120.354 26.1595L120.32 26.1929C120.087 26.1261 119.252 25.9593 119.085 25.8258C118.851 25.8592 117.917 25.6256 117.583 25.5589C117.249 25.4922 116.181 25.4588 116.014 25.3587C115.613 25.1251 115.88 22.9563 115.78 22.0554H112.074C112.007 22.7227 112.174 25.2586 111.941 25.6256C111.674 26.0928 106.799 26.3931 105.731 31.4314Z" fill="white"/>
</g>
<defs>
<clipPath id="clip0_113_1116">
<rect width="429" height="300" fill="white"/>
</clipPath>
</defs>
</svg>
