<svg width="575" height="382" viewBox="0 0 575 382" fill="none" xmlns="http://www.w3.org/2000/svg">
<g clip-path="url(#clip0_78_213)">
<path fill-rule="evenodd" clip-rule="evenodd" d="M270.521 26.5124C241.378 37.2104 213.714 60.0442 191.878 81.3134C146.474 125.67 139.717 134.973 83.6694 172.225C51.0211 193.918 25.2994 212.269 12.5864 236.794C-23.0185 305.718 19.4286 380.182 108.335 380.182C111.967 380.182 469.833 380.182 469.833 380.182C469.833 380.182 512.364 381.112 543.408 344.282C648.575 219.415 474.141 -48.0355 270.521 26.5124Z" fill="#F5F7F9"/>
<path fill-rule="evenodd" clip-rule="evenodd" d="M48.1912 0H324.161C330.707 0 336.071 6.30042 336.071 13.9962V193.241C336.071 200.937 330.707 207.237 324.161 207.237H48.1912C41.6446 207.237 36.2806 200.937 36.2806 193.241V13.9962C36.2806 6.30042 41.6446 0 48.1912 0Z" fill="#CED6E0"/>
<path fill-rule="evenodd" clip-rule="evenodd" d="M44.2633 6.63867H328.089C328.807 6.63867 329.44 7.23066 329.44 7.99178V199.245C329.44 199.964 328.849 200.599 328.089 200.599H44.2633C43.5453 200.599 42.9117 200.007 42.9117 199.245V7.99178C42.9117 7.23066 43.503 6.63867 44.2633 6.63867Z" fill="#2F3542"/>
<path d="M329.398 163.303H42.9117V200.556H329.398V163.303Z" fill="#57606F"/>
<path d="M312.504 172.86H60.5663V173.24H312.504V172.86Z" fill="#CED6E0"/>
<path d="M312.504 188.505H60.5663V188.886H312.504V188.505Z" fill="#CED6E0"/>
<path d="M61.3265 189.816C61.3688 189.732 71.3787 165.714 78.4743 169.942C81.4308 171.718 83.5426 173.875 85.2743 175.651C87.3861 177.807 88.9911 179.456 90.9339 179.16C92.919 178.822 95.2842 178.526 97.6494 178.737C100.057 178.949 102.38 179.625 104.28 181.317C105.632 182.501 106.435 183.685 107.237 184.784C108.589 186.687 109.813 188.421 113.403 189.774C116.867 191.085 120.288 184.108 123.16 178.272C124.723 175.101 126.116 172.268 127.384 171.126C127.468 171.042 127.51 170.999 127.595 170.915C129.369 169.35 131.269 168.758 133.128 168.885C134.986 169.012 136.76 169.815 138.238 171.084C138.323 171.169 138.407 171.211 138.492 171.295C140.181 172.818 143.813 175.186 147.741 176.962C150.571 178.23 153.57 179.16 156.104 179.16C160.497 179.16 163.157 183.262 165.311 186.56C166.283 188.082 167.17 189.393 168.015 190.027L168.141 190.112C170.76 192.057 174.772 194.975 177.518 193.749C178.658 193.241 180.685 191 183.051 188.421C186.598 184.488 190.864 179.795 194.454 178.526C197.411 177.511 201.254 174.932 204.675 172.691C208.012 170.492 210.968 168.547 212.32 168.547C214.221 168.547 219.542 173.452 223.85 177.469C225.878 179.372 227.736 181.063 228.834 181.909C229.806 182.67 231.073 183.769 232.467 184.996C235.845 187.956 239.9 191.507 241.378 191.254C242.434 191.085 245.095 189.097 247.883 186.729C250.966 184.108 254.134 181.063 255.316 179.329C256.499 177.638 258.399 175.016 261.271 173.156C264.186 171.253 268.071 170.069 273.182 171.38C279.433 172.944 285.008 177.3 289.232 180.598C291.808 182.585 293.835 184.192 295.145 184.488C298.608 185.292 303.043 181.909 303.085 181.909L303.634 182.501C303.634 182.501 298.861 186.137 294.933 185.207C293.413 184.869 291.301 183.22 288.683 181.148C284.501 177.892 279.011 173.621 272.971 172.099C268.156 170.873 264.481 171.972 261.778 173.748C259.033 175.566 257.175 178.103 256.034 179.752C254.809 181.528 251.557 184.657 248.432 187.279C245.56 189.732 242.688 191.761 241.505 191.973C239.604 192.311 235.381 188.632 231.875 185.503C230.524 184.319 229.257 183.22 228.285 182.459C227.145 181.571 225.329 179.879 223.259 177.976C219.036 174.086 213.883 169.308 212.32 169.308C211.222 169.308 208.392 171.169 205.14 173.325C201.677 175.608 197.749 178.23 194.708 179.287C191.329 180.471 187.147 185.08 183.642 188.928C181.234 191.592 179.123 193.918 177.813 194.467C174.561 195.905 170.295 192.776 167.508 190.704L167.381 190.619C166.452 189.943 165.523 188.548 164.509 186.941C162.482 183.812 159.905 179.921 156.02 179.921C153.359 179.921 150.233 178.949 147.277 177.638C143.264 175.862 139.547 173.41 137.816 171.845C137.731 171.761 137.689 171.718 137.605 171.634C136.253 170.492 134.648 169.731 133.043 169.646C131.438 169.562 129.749 170.069 128.144 171.465C128.059 171.507 128.017 171.591 127.933 171.634C126.792 172.691 125.441 175.482 123.878 178.568C120.837 184.7 117.205 192.057 112.981 190.45C109.095 189.013 107.828 187.152 106.392 185.165C105.632 184.108 104.83 182.966 103.562 181.824C101.831 180.26 99.6345 179.625 97.4383 179.456C95.1998 179.287 92.8768 179.583 90.9339 179.879C88.4842 180.26 86.7526 178.484 84.4718 176.116C82.7402 174.34 80.7128 172.268 77.8408 170.534C71.6321 166.855 62.0023 189.985 61.9601 190.027L61.3265 189.816Z" fill="#F79646"/>
<path fill-rule="evenodd" clip-rule="evenodd" d="M206.491 66.4292H207.547V73.237H211.94V117.255H207.547V124.063H206.491V117.255H202.099V73.1948H206.491V66.4292ZM221.739 72.941V82.2437H220.683V72.941H216.29V50.4033H220.683H221.739H226.131V72.941H221.739ZM237.07 30.3604H238.126V41.9464H242.519V52.5175H238.126V70.0234H237.07V52.5175H232.678V41.9464H237.07V30.3604ZM124.554 66.7252H125.61V73.533H130.002V117.551H125.61V124.359H124.554V117.551H120.161V73.533H124.554V66.7252ZM138.745 43.5955H139.801V52.3484H144.193V65.5835H139.801V82.0745H138.745V65.5835H134.352V52.3484H138.745V43.5955ZM68.5911 80.6791H69.647V100.172H74.0396V144.191H69.647V147.362H68.5911V144.191H64.1986V100.172H68.5911V80.6791ZM282.685 52.8981H287.078V47.7816H288.134V52.8981H292.526V69.4314H288.134V76.1124H287.078V69.4314H282.685V52.8981Z" fill="#57BD5B"/>
<path fill-rule="evenodd" clip-rule="evenodd" d="M254.471 55.7312H255.527V57.7609H259.92V70.996H255.527V73.0256H254.471V70.996H250.079V57.7609H254.471V55.7312ZM270.901 60.8476H271.957V70.5308H276.35V94.3371H271.999V104.02H270.943V94.3371H266.509V70.5308H270.901V60.8476ZM155.175 68.0783H156.231V71.7571H160.623V95.5634H156.273V99.2422H155.217V95.5634H150.824V71.7571H155.217V68.0783H155.175ZM172.238 90.7429H173.294V94.3794H177.687V117.847H173.294V121.484H172.238V117.847H167.846V94.3794H172.238V90.7429ZM188.71 94.4217H189.766V115.141H194.159V141.019H189.766V144.698H188.71V141.019H184.318V115.141H188.71V94.4217ZM90.8917 96.0285H91.9476V99.7073H96.3401V123.514H91.9476V127.192H90.8917V123.514H86.4991V99.7073H90.8917V96.0285ZM107.913 113.704H108.969V120.765H113.361V134H108.969V141.062H107.913V134H103.52V120.765H107.913V113.704ZM299.622 84.9499H304.014V75.2667H305.07V84.9499H309.463V108.756H305.07V118.439H304.014V108.756H299.622V84.9499Z" fill="#D43232"/>
<path fill-rule="evenodd" clip-rule="evenodd" d="M92.7501 380.182H510.548C511.055 380.182 511.435 380.605 511.435 381.07C511.435 381.577 511.013 381.958 510.548 381.958H92.7501C92.2433 381.958 91.8632 381.535 91.8632 381.07C91.8632 380.605 92.2433 380.182 92.7501 380.182Z" fill="#9B9B9B"/>
<path d="M464.891 110.194H405.803C401.917 110.194 398.749 113.365 398.749 117.255V136.622C398.749 140.512 401.917 143.683 405.803 143.683H414.419V150.068C414.419 152.817 416.108 153.113 418.516 152.14L438.705 143.979C438.874 143.895 439 143.768 439.127 143.683H464.891C468.777 143.683 471.944 140.512 471.944 136.622V117.255C471.944 113.365 468.777 110.194 464.891 110.194Z" fill="#57BD5B"/>
<path fill-rule="evenodd" clip-rule="evenodd" d="M479.124 346.354C482.461 323.943 503.114 295.697 507.507 290.665C480.307 287.324 473.634 329.482 474.859 349.864L479.124 346.354Z" fill="#4BA64E"/>
<path fill-rule="evenodd" clip-rule="evenodd" d="M471.86 346.692C466.158 325.339 446.349 311.85 442.421 307.325C469.157 299.587 476.801 331.47 475.703 349.864L471.86 346.692Z" fill="#4BA64E"/>
<path fill-rule="evenodd" clip-rule="evenodd" d="M474.225 348.299C472.662 326.565 461.512 292.779 457.88 288.466C483.095 288.086 478.744 330.666 477.435 347.961L474.225 348.299Z" fill="#7DBF80"/>
<path fill-rule="evenodd" clip-rule="evenodd" d="M482.081 353.162C486.516 335.36 505.902 316.459 517.644 309.651C489.303 302.293 478.364 335.825 477.857 355.826L482.081 353.162Z" fill="#7DBF80"/>
<path fill-rule="evenodd" clip-rule="evenodd" d="M495.808 349.864H460.034V365.001C460.034 373.332 466.834 380.139 475.154 380.139H480.645C488.965 380.139 495.765 373.332 495.765 365.001V349.864H495.808Z" fill="#CED6E0"/>
<path d="M495.85 349.864H460.076V352.443H495.85V349.864Z" fill="#A4B0BE"/>
<path fill-rule="evenodd" clip-rule="evenodd" d="M495.301 345.931H460.583C459.358 345.931 458.302 346.946 458.302 348.215C458.302 349.441 459.316 350.498 460.583 350.498H495.301C496.526 350.498 497.582 349.483 497.582 348.215C497.582 346.988 496.568 345.931 495.301 345.931Z" fill="#CED6E0"/>
<path fill-rule="evenodd" clip-rule="evenodd" d="M58.4968 15.2224H138.154C139.716 15.2224 140.984 16.491 140.984 18.0555C140.984 19.62 139.716 20.8886 138.154 20.8886H58.4968C56.9341 20.8886 55.667 19.62 55.667 18.0555C55.667 16.491 56.9341 15.2224 58.4968 15.2224Z" fill="#CED6E0"/>
<path fill-rule="evenodd" clip-rule="evenodd" d="M58.4968 27.6965H98.1141C99.6768 27.6965 100.944 28.9651 100.944 30.5296C100.944 32.0941 99.6768 33.3627 98.1141 33.3627H58.4968C56.9341 33.3627 55.667 32.0941 55.667 30.5296C55.667 28.9651 56.9341 27.6965 58.4968 27.6965Z" fill="#CED6E0"/>
<path d="M422.782 49.0925H363.694C359.808 49.0925 356.64 52.2639 356.64 56.1541V75.5205C356.64 79.4107 359.808 82.582 363.694 82.582H372.31V88.967C372.31 91.7155 373.999 92.0115 376.407 91.039L396.595 82.878C396.764 82.7934 396.891 82.6666 397.018 82.582H422.782C426.667 82.582 429.835 79.4107 429.835 75.5205V56.1541C429.835 52.2639 426.667 49.0925 422.782 49.0925Z" fill="#D43232"/>
<path d="M449.686 122.118L446.223 127.742C446.18 127.827 446.138 127.911 446.096 128.038C446.054 128.165 446.054 128.249 446.054 128.376V131.548C446.054 131.632 446.011 131.717 445.969 131.801C445.885 131.886 445.843 131.886 445.716 131.886H443.646C443.562 131.886 443.477 131.844 443.393 131.801C443.308 131.759 443.308 131.675 443.308 131.548V128.376C443.308 128.292 443.308 128.165 443.266 128.038C443.224 127.911 443.182 127.827 443.139 127.742C442.59 126.769 441.999 125.839 441.45 124.951C440.859 124.021 440.31 123.091 439.718 122.118C439.676 122.034 439.676 121.949 439.676 121.864C439.718 121.78 439.761 121.738 439.845 121.738H442.295C442.379 121.738 442.464 121.78 442.59 121.822C442.675 121.864 442.759 121.949 442.802 122.034L444.491 124.994C444.533 125.078 444.575 125.12 444.66 125.12C444.744 125.12 444.787 125.078 444.829 124.994L446.518 122.034C446.561 121.949 446.645 121.864 446.729 121.822C446.814 121.78 446.941 121.738 447.025 121.738H449.517C449.602 121.738 449.686 121.78 449.728 121.822C449.77 121.907 449.77 121.991 449.686 122.118ZM430.426 122.076C430.426 121.991 430.469 121.907 430.511 121.822C430.595 121.738 430.638 121.738 430.764 121.738H432.834C432.918 121.738 433.003 121.78 433.087 121.822C433.172 121.907 433.172 121.949 433.172 122.076V127.7C433.172 128.08 433.214 128.376 433.341 128.588C433.467 128.841 433.594 129.011 433.763 129.137C433.932 129.264 434.101 129.349 434.312 129.433C434.523 129.476 434.692 129.518 434.861 129.518C435.03 129.518 435.199 129.476 435.41 129.433C435.621 129.391 435.79 129.264 435.959 129.137C436.128 129.011 436.255 128.799 436.382 128.588C436.508 128.334 436.551 128.038 436.551 127.7V122.076C436.551 121.991 436.593 121.907 436.635 121.822C436.72 121.738 436.762 121.738 436.889 121.738H438.958C439.043 121.738 439.127 121.78 439.212 121.822C439.296 121.907 439.296 121.949 439.296 122.076V127.7C439.296 128.376 439.212 128.968 439 129.476C438.789 130.025 438.494 130.491 438.113 130.829C437.733 131.209 437.269 131.505 436.72 131.717C436.171 131.928 435.579 132.013 434.903 132.013C434.228 132.013 433.636 131.928 433.087 131.717C432.538 131.505 432.074 131.209 431.693 130.829C431.313 130.448 431.018 129.983 430.807 129.476C430.595 128.926 430.469 128.334 430.469 127.7V122.076H430.426ZM425.443 127.869H424.007C423.922 127.869 423.838 127.911 423.753 127.953C423.669 128.038 423.669 128.08 423.669 128.207V129.011C423.669 129.095 423.711 129.18 423.753 129.264C423.838 129.349 423.88 129.349 424.007 129.349H425.569C425.738 129.349 425.907 129.264 426.034 129.137C426.203 129.011 426.245 128.841 426.245 128.672C426.245 128.503 426.161 128.334 426.034 128.165C425.907 127.953 425.696 127.869 425.443 127.869ZM424.007 125.586H425.316C425.485 125.586 425.654 125.501 425.78 125.374C425.907 125.247 425.949 125.078 425.949 124.909C425.949 124.74 425.865 124.613 425.738 124.486C425.612 124.359 425.485 124.317 425.358 124.317H424.049C423.964 124.317 423.88 124.359 423.795 124.402C423.711 124.486 423.711 124.528 423.711 124.655V125.29C423.711 125.374 423.753 125.459 423.795 125.543C423.838 125.543 423.922 125.586 424.007 125.586ZM427.892 126.643C428.061 126.727 428.188 126.812 428.315 126.939C428.441 127.065 428.61 127.192 428.737 127.404C428.864 127.573 428.948 127.784 429.033 127.996C429.117 128.207 429.159 128.503 429.159 128.799C429.159 129.391 429.075 129.899 428.864 130.279C428.695 130.66 428.399 130.998 428.103 131.209C427.766 131.463 427.428 131.632 427.005 131.717C426.583 131.801 426.161 131.844 425.696 131.844H421.303C421.219 131.844 421.135 131.801 421.05 131.759C420.966 131.675 420.966 131.632 420.966 131.505V122.034C420.966 121.949 421.008 121.864 421.05 121.78C421.135 121.695 421.177 121.695 421.303 121.695H425.485C425.907 121.695 426.372 121.738 426.752 121.822C427.174 121.907 427.512 122.076 427.808 122.287C428.103 122.499 428.357 122.795 428.568 123.175C428.737 123.514 428.864 123.979 428.864 124.486C428.864 124.909 428.779 125.247 428.568 125.586C428.357 125.882 428.146 126.135 427.892 126.304C427.681 126.473 427.681 126.558 427.892 126.643Z" fill="white"/>
<path d="M410.956 68.8817V70.7846C410.956 70.8691 410.913 70.9537 410.871 71.0383C410.787 71.1228 410.744 71.1228 410.618 71.1228H403.691C403.607 71.1228 403.522 71.0806 403.438 71.0383C403.395 70.9537 403.353 70.9114 403.353 70.7846V61.3128C403.353 61.2282 403.395 61.1436 403.438 61.0591C403.48 60.9745 403.564 60.9745 403.691 60.9745H405.761C405.845 60.9745 405.93 61.0168 406.014 61.0591C406.098 61.1436 406.098 61.1859 406.098 61.3128V68.2475C406.098 68.332 406.141 68.4166 406.183 68.5012C406.225 68.5858 406.31 68.5858 406.436 68.5858H410.618C410.702 68.5858 410.787 68.628 410.871 68.6703C410.913 68.7126 410.956 68.7972 410.956 68.8817ZM402.424 68.8817V70.7846C402.424 70.8691 402.382 70.9537 402.339 71.0383C402.255 71.1228 402.213 71.1228 402.086 71.1228H395.159C395.075 71.1228 394.99 71.0806 394.906 71.0383C394.864 70.9537 394.821 70.9114 394.821 70.7846V61.3128C394.821 61.2282 394.864 61.1436 394.906 61.0591C394.948 60.9745 395.033 60.9745 395.159 60.9745H397.229C397.313 60.9745 397.398 61.0168 397.482 61.0591C397.567 61.1436 397.567 61.1859 397.567 61.3128V68.2475C397.567 68.332 397.609 68.4166 397.651 68.5012C397.694 68.5858 397.778 68.5858 397.905 68.5858H402.086C402.171 68.5858 402.255 68.628 402.339 68.6703C402.382 68.7126 402.424 68.7972 402.424 68.8817ZM388.148 63.8499V64.4419C388.148 64.5264 388.19 64.611 388.233 64.6956C388.317 64.7801 388.359 64.7801 388.486 64.7801H392.245C392.33 64.7801 392.414 64.8224 392.499 64.8647C392.583 64.9493 392.583 64.9916 392.583 65.1184V67.0212C392.583 67.1058 392.541 67.1904 392.499 67.2749C392.414 67.3595 392.372 67.3595 392.245 67.3595H388.486C388.402 67.3595 388.317 67.4018 388.233 67.4441C388.148 67.5286 388.148 67.5709 388.148 67.6978V68.2052C388.148 68.2898 388.19 68.3743 388.233 68.4589C388.317 68.5435 388.359 68.5435 388.486 68.5435H392.794C392.879 68.5435 392.963 68.5858 393.048 68.628C393.132 68.7126 393.132 68.7549 393.132 68.8817V70.7846C393.132 70.8691 393.09 70.9537 393.048 71.0383C392.963 71.1228 392.921 71.1228 392.794 71.1228H385.741C385.656 71.1228 385.572 71.0806 385.487 71.0383C385.403 70.9537 385.403 70.9114 385.403 70.7846V61.3128C385.403 61.2282 385.445 61.1436 385.487 61.0591C385.572 60.9745 385.614 60.9745 385.741 60.9745H392.794C392.879 60.9745 392.963 61.0168 393.048 61.0591C393.132 61.1436 393.132 61.1859 393.132 61.3128V63.2156C393.132 63.3002 393.09 63.3847 393.048 63.4693C392.963 63.5539 392.921 63.5539 392.794 63.5539H388.486C388.402 63.5539 388.317 63.5962 388.233 63.6384C388.148 63.6807 388.148 63.723 388.148 63.8499ZM377.125 67.6132C377.631 67.9515 378.138 68.2052 378.603 68.3743C379.11 68.5435 379.532 68.6703 379.954 68.6703C380.377 68.6703 380.672 68.628 380.884 68.5012C381.095 68.3743 381.222 68.2052 381.222 67.9938C381.222 67.8669 381.179 67.7824 381.095 67.6978C381.01 67.6132 380.884 67.5709 380.715 67.5286C380.546 67.4864 380.377 67.4441 380.166 67.4018C379.954 67.3595 379.743 67.3172 379.532 67.2749C379.321 67.2327 379.11 67.1904 378.814 67.1481C378.561 67.1058 378.265 67.0212 377.969 66.9367C377.674 66.8521 377.378 66.7252 377.125 66.5561C376.829 66.4292 376.576 66.2178 376.364 66.0064C376.153 65.795 375.984 65.499 375.815 65.1607C375.689 64.8224 375.604 64.4841 375.604 64.019C375.604 63.3847 375.731 62.835 375.984 62.4545C376.238 62.0316 376.533 61.6934 376.913 61.4819C377.294 61.2282 377.716 61.0591 378.181 60.9745C378.645 60.8899 379.11 60.8477 379.532 60.8477C380.292 60.8477 381.01 60.9745 381.602 61.1859C382.235 61.3974 382.784 61.7356 383.376 62.1585C383.46 62.2431 383.502 62.2853 383.502 62.4122C383.502 62.4968 383.502 62.5813 383.418 62.6659L382.32 64.1882C382.277 64.2727 382.193 64.315 382.108 64.315C382.024 64.315 381.94 64.315 381.855 64.2727C381.39 63.9767 380.926 63.7653 380.546 63.6384C380.166 63.5116 379.785 63.4693 379.405 63.4693C379.321 63.4693 379.194 63.4693 379.067 63.4693C378.941 63.4693 378.814 63.5116 378.687 63.5116C378.561 63.5539 378.476 63.5962 378.392 63.6807C378.307 63.7653 378.265 63.8499 378.265 63.9767C378.265 64.1036 378.349 64.2304 378.561 64.315C378.772 64.3996 378.983 64.4841 379.236 64.5687C379.49 64.6533 379.743 64.6956 379.954 64.7379C380.166 64.7801 380.335 64.8224 380.377 64.8224C380.715 64.907 381.095 64.9916 381.475 65.1184C381.855 65.2453 382.235 65.4144 382.573 65.6681C382.911 65.9218 383.207 66.2178 383.46 66.6407C383.713 67.0212 383.798 67.5286 383.798 68.1206C383.798 68.6703 383.713 69.1355 383.502 69.5583C383.291 69.9812 383.038 70.2771 382.7 70.5309C382.362 70.7846 381.94 70.996 381.433 71.1228C380.968 71.2497 380.419 71.292 379.828 71.292C379.363 71.292 378.899 71.2497 378.476 71.1651C378.054 71.0806 377.674 70.996 377.294 70.8268C376.913 70.7 376.618 70.5309 376.28 70.3194C375.984 70.1503 375.689 69.9389 375.435 69.7274C375.351 69.6852 375.308 69.6006 375.308 69.516C375.308 69.4315 375.308 69.3469 375.393 69.2623L376.449 67.7401C376.491 67.6555 376.576 67.6132 376.66 67.6132C376.956 67.5709 377.04 67.5709 377.125 67.6132Z" fill="white"/>
<path fill-rule="evenodd" clip-rule="evenodd" d="M189.048 148.123L193.145 156.369H184.909L189.048 148.123Z" fill="#F79646"/>
<path fill-rule="evenodd" clip-rule="evenodd" d="M237.577 23.3835L233.776 15.73H241.378L237.577 23.3835Z" fill="#CED6E0"/>
<path fill-rule="evenodd" clip-rule="evenodd" d="M287.204 43.807L283.403 36.1958H291.006L287.204 43.807Z" fill="#CED6E0"/>
<path fill-rule="evenodd" clip-rule="evenodd" d="M108.969 145.333L113.066 153.578H104.83L108.969 145.333Z" fill="#F79646"/>
<path d="M199.185 238.147H126.961V374.093H199.185V238.147Z" fill="white"/>
<path d="M199.142 238.147H175.701V374.093H199.142V238.147Z" fill="#A4B0BE"/>
<path d="M125.103 238.147H122.104V374.093H125.103V238.147Z" fill="#A4B0BE"/>
<path d="M175.702 238.147H172.703V374.093H175.702V238.147Z" fill="#A4B0BE"/>
<path d="M172.703 329.99H126.961V374.093H172.703V329.99Z" fill="white"/>
<path d="M126.919 329.99H125.103V374.093H126.919V329.99Z" fill="#2F3542"/>
<path d="M172.703 329.99H125.103V330.835H172.703V329.99Z" fill="#2F3542"/>
<path d="M126.919 241.784H125.103V326.353H126.919V241.784Z" fill="#2F3542"/>
<path d="M172.703 326.353H125.103V329.99H172.703V326.353Z" fill="#A4B0BE"/>
<path fill-rule="evenodd" clip-rule="evenodd" d="M136.422 343.521C137.267 343.521 137.943 344.198 137.943 345.043V356.587C137.943 357.433 137.267 358.109 136.422 358.109C135.577 358.109 134.902 357.433 134.902 356.587V345.043C134.902 344.198 135.577 343.521 136.422 343.521Z" fill="#A4B0BE"/>
<path d="M172.703 370.456H125.103V374.093H172.703V370.456Z" fill="#A4B0BE"/>
<path d="M172.703 285.887H126.961V329.99H172.703V285.887Z" fill="white"/>
<path d="M126.919 285.887H125.103V329.99H126.919V285.887Z" fill="#2F3542"/>
<path d="M172.703 285.887H125.103V286.732H172.703V285.887Z" fill="#2F3542"/>
<path d="M172.703 282.25H125.103V285.887H172.703V282.25Z" fill="#A4B0BE"/>
<path fill-rule="evenodd" clip-rule="evenodd" d="M136.422 299.418C137.267 299.418 137.943 300.095 137.943 300.94V312.484C137.943 313.33 137.267 314.006 136.422 314.006C135.577 314.006 134.902 313.33 134.902 312.484V300.94C134.902 300.095 135.577 299.418 136.422 299.418Z" fill="#A4B0BE"/>
<path d="M172.703 326.353H125.103V329.99H172.703V326.353Z" fill="#A4B0BE"/>
<path d="M172.703 238.147H125.103V241.784H172.703V238.147Z" fill="#A4B0BE"/>
<path d="M172.703 282.25H125.103V285.887H172.703V282.25Z" fill="#A4B0BE"/>
<path fill-rule="evenodd" clip-rule="evenodd" d="M136.422 254.765C137.267 254.765 137.943 255.442 137.943 256.288V267.831C137.943 268.677 137.267 269.354 136.422 269.354C135.577 269.354 134.902 268.677 134.902 267.831V256.288C134.902 255.442 135.577 254.765 136.422 254.765Z" fill="#A4B0BE"/>
<path d="M125.103 374.093H122.104V380.182H125.103V374.093Z" fill="#A4B0BE"/>
<path d="M126.919 374.093H125.103V380.182H126.919V374.093Z" fill="#2F3542"/>
<path d="M175.702 374.093H172.703V380.182H175.702V374.093Z" fill="#A4B0BE"/>
<path d="M177.518 374.093H175.701V380.182H177.518V374.093Z" fill="#57606F"/>
<path d="M146.685 374.093H143.687V380.182H146.685V374.093Z" fill="#A4B0BE"/>
<path d="M148.544 374.093H146.728V380.182H148.544V374.093Z" fill="#2F3542"/>
<path d="M197.284 374.093H194.285V380.182H197.284V374.093Z" fill="#A4B0BE"/>
<path d="M199.142 374.093H197.326V380.182H199.142V374.093Z" fill="#57606F"/>
<path fill-rule="evenodd" clip-rule="evenodd" d="M415.01 301.828L411.969 302.209L421.515 378.955C421.599 379.801 422.401 380.393 423.246 380.309L423.415 380.266C424.175 380.182 424.682 379.463 424.598 378.744L415.01 301.828Z" fill="#CED6E0"/>
<path fill-rule="evenodd" clip-rule="evenodd" d="M360.019 301.701H356.936V379.082C356.936 379.928 357.612 380.605 358.456 380.605H358.625C359.385 380.605 359.977 379.97 359.977 379.252V301.701H360.019Z" fill="#CED6E0"/>
<path fill-rule="evenodd" clip-rule="evenodd" d="M314.615 301.701H311.532V379.082C311.532 379.928 312.208 380.605 313.053 380.605H313.222C313.982 380.605 314.573 379.97 314.573 379.252V301.701H314.615Z" fill="#CED6E0"/>
<path fill-rule="evenodd" clip-rule="evenodd" d="M380.377 301.828L377.336 302.209L386.881 378.955C386.966 379.801 387.768 380.393 388.613 380.309L388.782 380.266C389.542 380.182 390.049 379.463 389.964 378.744L380.377 301.828Z" fill="#CED6E0"/>
<path fill-rule="evenodd" clip-rule="evenodd" d="M360.146 292.272H307.351C304.183 292.272 301.607 294.851 301.607 298.023C301.607 301.194 304.183 303.773 307.351 303.773H360.146C363.314 303.773 365.89 301.194 365.89 298.023C365.89 294.851 363.314 292.272 360.146 292.272Z" fill="#CED6E0"/>
<path fill-rule="evenodd" clip-rule="evenodd" d="M377.885 202.797H431.651L418.136 292.483L364.369 292.525C364.158 292.525 363.947 292.525 363.736 292.483C361.54 292.483 360.061 290.073 360.399 287.874L373.281 206.18C373.661 203.981 375.689 202.797 377.885 202.797Z" fill="#CED6E0"/>
<path fill-rule="evenodd" clip-rule="evenodd" d="M427.681 206.18L414.039 292.272H354.359C351.192 292.272 348.615 294.851 348.615 298.023C348.615 301.194 351.192 303.773 354.359 303.773H414.461C420.205 303.773 421.177 298.403 421.726 295.147L435.621 207.449C435.959 205.25 434.481 202.84 432.285 202.84C430.088 202.797 428.019 203.981 427.681 206.18Z" fill="#A4B0BE"/>
<path fill-rule="evenodd" clip-rule="evenodd" d="M300.002 304.746L306.168 305.422L298.481 378.025C298.312 379.717 296.75 380.985 295.06 380.774C293.371 380.605 292.104 379.04 292.315 377.349L300.002 304.746Z" fill="#DAE2ED"/>
<path fill-rule="evenodd" clip-rule="evenodd" d="M306.126 305.718L298.481 378.025C298.312 379.547 297.045 380.731 295.567 380.816C294.638 380.182 294.047 379.082 294.173 377.898L301.86 305.295L306.126 305.718Z" fill="#A2BCD9"/>
<path d="M325.048 268.466L294.385 283.181L294.342 366.101C294.131 366.355 293.92 366.608 293.709 366.862C293.54 367.074 293.371 367.243 293.202 367.412C292.822 367.877 292.399 368.258 292.019 368.68C291.85 368.85 291.681 369.019 291.47 369.188C288.598 371.894 285.135 372.317 282.263 372.782C280.067 373.12 278.377 373.247 276.688 376.038C276.645 376.123 276.603 376.207 276.561 376.292C276.181 377.307 276.857 378.448 277.997 378.533L303.719 379.759C304.986 379.844 306.084 378.956 306.295 377.729C306.337 377.56 306.337 377.391 306.337 377.222L305.535 365.89C305.535 365.89 305.535 365.89 305.535 365.847C307.9 344.028 314.151 319.842 312.124 294.006C312.124 294.006 345.617 262.461 345.617 261.277C345.617 260.093 325.048 268.466 325.048 268.466Z" fill="#F7AAAC"/>
<path d="M325.217 275.485C326.315 285.126 319.599 290.876 320.74 300.517C320.74 324.704 324.921 342.675 330.665 367.073C330.834 367.877 329.398 375.573 329.567 376.376C332.101 379.082 339.619 383.015 340.422 370.456C337.169 349.356 345.617 325.127 337.296 299.46L342.576 273.878L325.217 275.485Z" fill="#F7AAAC"/>
<path fill-rule="evenodd" clip-rule="evenodd" d="M343.125 250.706C340.548 266.732 284.755 247.408 290.963 308.044C300.382 312.357 327.497 313.372 342.618 309.735C346.292 292.695 412.814 315.021 387.768 251.763C382.911 240.473 344.899 243.475 343.125 250.706Z" fill="#21242A"/>
<path fill-rule="evenodd" clip-rule="evenodd" d="M352.163 206.645C349.249 213.03 347.686 226.35 334.551 235.272C320.275 244.955 291.935 245.124 292.906 240.008C293.54 236.667 311.025 237.471 330.369 221.318C334.509 217.851 340.717 192.649 352.459 186.602C353.853 185.672 356.218 200.514 352.163 206.645Z" fill="#F7AAAC"/>
<path fill-rule="evenodd" clip-rule="evenodd" d="M397.651 192.184C402.551 212.269 383.925 215.018 388.402 255.569C373.661 257.598 353.43 257.852 340.76 254.723C342.787 239.797 339.577 226.308 338.986 218.189C338.099 205.927 340.928 196.878 347.728 189.647C354.233 182.712 389.331 179.795 397.651 192.184Z" fill="#D43232"/>
<path fill-rule="evenodd" clip-rule="evenodd" d="M387.05 240.346C386.881 244.575 387.768 250.072 388.359 255.569C382.911 256.33 379.532 256.753 373.45 257.049C374.717 254.3 384.094 242.334 387.05 240.346Z" fill="#D43232"/>
<path fill-rule="evenodd" clip-rule="evenodd" d="M359.977 179.921L359.935 184.869L359.217 185.503C356.429 188.548 359.512 194.721 362.722 194.51C370.832 194.848 377.04 188.125 374.548 184.53L373.492 183.346L373.197 176.327C373.619 176.285 376.66 174.551 377.547 174.255C378.434 173.959 379.786 172.226 379.828 170.365C379.912 168.505 377.04 169.139 377.04 169.139C380.461 164.361 384.347 160.47 379.237 156.242C374.126 152.014 362.469 149.603 362.469 149.603L355.458 147.235C356.387 149.646 356.091 154.847 354.317 159.921C351.868 167.151 353.979 176.919 359.977 179.921Z" fill="#F7AAAC"/>
<path fill-rule="evenodd" clip-rule="evenodd" d="M369.902 177.342C369.902 177.342 365.974 184.192 362.722 184.826C359.47 185.461 361.117 184.996 359.935 184.869L359.977 179.921C362.215 180.26 364.412 180.091 369.902 177.342Z" fill="#EA8287"/>
<path fill-rule="evenodd" clip-rule="evenodd" d="M278.124 220.092C279.517 219.754 280.953 220.811 281.334 222.46C281.714 224.109 280.911 225.673 279.517 226.012C278.124 226.35 276.688 225.293 276.308 223.644C275.927 221.995 276.73 220.388 278.124 220.092Z" fill="white"/>
<path fill-rule="evenodd" clip-rule="evenodd" d="M298.481 236.202H349.038V237.386C349.038 238.021 348.489 238.57 347.855 238.57H299.706C299.073 238.57 298.524 238.021 298.524 237.386V236.202H298.481Z" fill="#2F3542"/>
<path fill-rule="evenodd" clip-rule="evenodd" d="M277.997 204.7H317.783C319.346 204.7 320.36 206.011 320.655 207.576L326.104 236.794H280.996L275.547 207.195C275.294 205.842 276.645 204.7 277.997 204.7Z" fill="#2F3542"/>
<path fill-rule="evenodd" clip-rule="evenodd" d="M276.645 204.7H316.432C317.994 204.7 319.008 206.011 319.304 207.576L324.372 234.595H324.456L324.794 236.583C324.963 237.64 323.907 238.57 322.809 238.57H281.587C280.489 238.57 279.771 237.682 279.602 236.583L279.348 234.934L274.196 207.195C273.942 205.842 275.294 204.7 276.645 204.7Z" fill="#CED6E0"/>
<path fill-rule="evenodd" clip-rule="evenodd" d="M297.594 219.923C298.524 219.711 299.537 220.43 299.791 221.529C300.044 222.629 299.495 223.728 298.566 223.982C297.637 224.193 296.623 223.475 296.37 222.375C296.116 221.233 296.665 220.134 297.594 219.923Z" fill="#EDF8FD"/>
<path fill-rule="evenodd" clip-rule="evenodd" d="M396.891 192.691C411.124 199.076 395.666 225.885 393.132 236.752C390.64 246.9 340.844 238.951 332.143 238.613C332.777 236.752 338.817 233.961 342.998 232.862C345.828 232.143 350.558 234.384 354.19 233.665C371.549 230.24 381.053 231.593 381.137 230.959C381.686 217.893 385.952 203.22 393.09 194.552C393.723 193.749 395.835 192.184 396.891 192.691Z" fill="#F7AAAC"/>
<path fill-rule="evenodd" clip-rule="evenodd" d="M369.015 160.048C369.015 160.048 358.33 160.428 354.317 156.961C345.955 149.772 351.065 132.605 372.436 138.948C389.458 144.022 381.137 160.724 403.269 167.659C411.462 170.238 410.491 174.34 403.311 177.131C408.21 178.864 403.48 183.685 398.918 183.093C407.577 190.027 388.824 195.44 375.097 185.376C367.199 179.625 381.095 161.866 369.015 160.048Z" fill="#21242A"/>
<path fill-rule="evenodd" clip-rule="evenodd" d="M283.15 372.021C283.15 372.021 274.365 374.642 274.534 377.433C274.914 383.057 305.957 380.224 306.126 380.013C307.309 378.744 307.52 373.205 306.21 371.217C305.239 369.78 292.653 376.249 283.15 372.021Z" fill="#21242A"/>
<path fill-rule="evenodd" clip-rule="evenodd" d="M326.695 379.421C326.906 383.015 339.83 381.958 341.773 380.901C344.645 379.294 341.14 368.934 340.041 370.203C340.041 370.203 336.663 375.53 332.692 374.431C328.722 373.374 330.116 372.19 329.44 373.501C328.173 376.038 326.526 376.08 326.695 379.421Z" fill="#21242A"/>
<path d="M257.977 248.169H249.826V380.182H257.977V248.169Z" fill="#A4B0BE"/>
<path fill-rule="evenodd" clip-rule="evenodd" d="M232.382 238.147H367.79V249.057H232.382C229.383 249.057 226.934 246.604 226.934 243.602C226.934 240.6 229.383 238.147 232.382 238.147Z" fill="#A4B0BE"/>
<path fill-rule="evenodd" clip-rule="evenodd" d="M362.384 238.147H439.718C442.717 238.147 445.167 240.6 445.167 243.602C445.167 246.604 442.717 249.057 439.718 249.057H405.211V380.182H398.285H396.68V249.057H362.384C359.385 249.057 356.936 246.604 356.936 243.602C356.936 240.6 359.385 238.147 362.384 238.147Z" fill="#A4B0BE"/>
</g>
<defs>
<clipPath id="clip0_78_213">
<rect width="575" height="382" fill="white"/>
</clipPath>
</defs>
</svg>
