<svg width="50" height="50" viewBox="0 0 50 50" fill="none" xmlns="http://www.w3.org/2000/svg">
<path d="M40.3647 31.9138C42.275 30.7486 43.5531 28.645 43.5531 26.2483V21.1702C43.5531 17.8612 41.1168 15.1109 37.9439 14.6178V9.71316C37.9439 9.30994 37.6171 8.98308 37.2139 8.98308H29.3923V6.05251C29.3923 3.44607 27.2718 1.32556 24.6653 1.32556H13.2787C10.6723 1.32556 8.55176 3.44607 8.55176 6.05251V8.98308H0.730078C0.326855 8.98308 0 9.30994 0 9.71316V15.3009V35.6346C0 36.0379 0.326855 36.3647 0.730078 36.3647H7.16914C7.57236 36.3647 7.89922 36.0379 7.89922 35.6346C7.89922 35.2315 7.57236 34.9046 7.16914 34.9046H1.46016V20.1615C2.72715 22.0845 4.72647 23.4952 7.08633 23.9738V24.7751C7.08633 26.0633 8.13437 27.1112 9.42256 27.1112C10.7107 27.1112 11.7588 26.0632 11.7588 24.7751V24.1556H17.3984C17.8017 24.1556 18.1285 23.8288 18.1285 23.4256C18.1285 23.0223 17.8017 22.6955 17.3984 22.6955H11.7588V20.9082C11.7588 20.505 11.4319 20.1781 11.0287 20.1781H7.81631C7.41309 20.1781 7.08623 20.505 7.08623 20.9082V22.4802C3.82656 21.6809 1.46006 18.7293 1.46006 15.3009V10.4431H9.28164H11.8943H26.0495H28.6621H36.4838V14.5532C36.4403 14.556 36.3977 14.5612 36.3544 14.5649C36.3045 14.5692 36.2545 14.573 36.2049 14.5784C36.1444 14.5849 36.0845 14.5931 36.0245 14.6013C35.9766 14.6079 35.9283 14.6138 35.8807 14.6214C35.8197 14.631 35.7594 14.6426 35.699 14.6539C35.6532 14.6625 35.607 14.6703 35.5614 14.6799C35.4992 14.6929 35.4379 14.7079 35.3764 14.7227C35.3335 14.7331 35.2903 14.7424 35.2478 14.7535C35.1824 14.7705 35.1181 14.7898 35.0536 14.8088C35.0158 14.8199 34.9775 14.83 34.9401 14.8417C34.8675 14.8644 34.7959 14.8896 34.7243 14.9149C34.6958 14.925 34.6668 14.9339 34.6384 14.9444C34.4385 15.018 34.243 15.1009 34.0526 15.1926C34.0328 15.2021 34.0136 15.2127 33.9939 15.2224C33.9192 15.2593 33.845 15.2967 33.772 15.3362C33.7422 15.3523 33.7134 15.3698 33.6839 15.3863C33.622 15.4212 33.56 15.4559 33.4992 15.4926C33.4661 15.5126 33.434 15.534 33.4013 15.5545C33.3454 15.5896 33.2896 15.6246 33.2348 15.6613C33.2005 15.6843 33.1672 15.7085 33.1334 15.7322C33.0816 15.7684 33.0297 15.8045 32.9789 15.8421C32.9445 15.8676 32.911 15.8942 32.8771 15.9203C32.8285 15.9579 32.7797 15.9955 32.7321 16.0343C32.6981 16.062 32.665 16.0907 32.6316 16.1191C32.5857 16.1583 32.5397 16.1973 32.4948 16.2377C32.4616 16.2675 32.4293 16.2982 32.3967 16.3287C32.3531 16.3694 32.3099 16.41 32.2675 16.4518C32.2353 16.4836 32.2038 16.5161 32.1723 16.5485C32.1312 16.5908 32.0903 16.6331 32.0504 16.6763C32.0193 16.7099 31.9891 16.7441 31.9588 16.7784C31.92 16.8221 31.8816 16.8661 31.844 16.9109C31.8144 16.9463 31.7854 16.982 31.7564 17.0179C31.7199 17.0633 31.6839 17.1088 31.6487 17.155C31.6205 17.192 31.5929 17.2292 31.5654 17.2668C31.5313 17.3134 31.4977 17.3606 31.4647 17.4082C31.4382 17.4467 31.412 17.4854 31.3861 17.5245C31.3543 17.5726 31.3231 17.6213 31.2926 17.6702C31.2677 17.7101 31.2431 17.7502 31.2189 17.7907C31.1895 17.8402 31.1608 17.8903 31.1326 17.9406C31.1095 17.9819 31.0866 18.0232 31.0643 18.0651C31.0372 18.116 31.011 18.1676 30.9853 18.2192C30.9641 18.2618 30.9429 18.3043 30.9226 18.3473C30.8979 18.3996 30.8743 18.4524 30.8509 18.5055C30.8316 18.5493 30.8123 18.5928 30.7939 18.637C30.7718 18.6906 30.7507 18.7448 30.7299 18.7992C30.7128 18.8437 30.6954 18.8883 30.6792 18.9334C30.6594 18.9886 30.6409 19.0445 30.6226 19.1004C30.6077 19.1457 30.5924 19.1906 30.5785 19.2362C30.5612 19.293 30.5455 19.3505 30.5297 19.408C30.517 19.4538 30.5039 19.4993 30.4922 19.5455C30.4773 19.6041 30.4645 19.6634 30.4512 19.7225C30.4409 19.7684 30.43 19.8141 30.4206 19.8603C30.4082 19.9217 30.3981 19.9836 30.3874 20.0455C30.3797 20.0905 30.3711 20.1352 30.3643 20.1805C30.3544 20.2459 30.3471 20.3119 30.3392 20.3777C30.334 20.4205 30.3277 20.4629 30.3235 20.5058C30.3162 20.5789 30.3116 20.6525 30.3067 20.7261C30.3043 20.7629 30.3005 20.7991 30.2986 20.8359C30.2931 20.9466 30.2901 21.058 30.2901 21.17V22.5968C29.9512 22.6526 29.6093 22.6848 29.2673 22.6932V20.9082C29.2673 20.505 28.9404 20.1781 28.5372 20.1781H25.3249C24.9217 20.1781 24.5948 20.505 24.5948 20.9082V22.6955H19.8312C19.428 22.6955 19.1011 23.0223 19.1011 23.4256C19.1011 23.8287 19.4279 24.1556 19.8312 24.1556H24.5948V24.7751C24.5948 26.0633 25.6429 27.1112 26.931 27.1112C28.2191 27.1112 29.2672 26.0632 29.2672 24.7751V24.1529C29.6089 24.146 29.9504 24.119 30.29 24.0724V26.2483C30.29 26.3591 30.293 26.4696 30.2984 26.5796C30.3006 26.6224 30.3048 26.6647 30.3077 26.7074C30.3123 26.7739 30.3164 26.8404 30.3229 26.9064C30.3282 26.9593 30.3356 27.0115 30.3421 27.0641C30.3489 27.1189 30.355 27.1739 30.363 27.2286C30.3718 27.2872 30.3825 27.3451 30.3928 27.4031C30.4012 27.4506 30.4088 27.4983 30.4183 27.5455C30.4309 27.6084 30.4453 27.6706 30.4597 27.7328C30.4692 27.7742 30.478 27.8157 30.4884 27.857C30.5051 27.9239 30.5238 27.99 30.5425 28.0559C30.5526 28.0914 30.562 28.127 30.5728 28.1622C30.5943 28.2338 30.6179 28.3044 30.6419 28.3749C30.6516 28.4033 30.6607 28.4319 30.6708 28.4602C30.6983 28.5377 30.7277 28.6142 30.758 28.6903C30.766 28.7103 30.7735 28.7305 30.7817 28.7505C30.8165 28.8354 30.8533 28.9192 30.8914 29.0024C30.896 29.0124 30.9004 29.0223 30.905 29.0323C31.4604 30.2278 32.3605 31.2318 33.4785 31.9138C31.4502 32.4902 29.6041 33.5333 28.0826 34.9047H9.60244C9.19922 34.9047 8.87236 35.2315 8.87236 35.6347C8.87236 36.038 9.19922 36.3648 9.60244 36.3648H26.6873C24.9149 38.5239 23.8437 41.2147 23.8437 44.0792V47.9445C23.8437 48.3476 24.1705 48.6746 24.5737 48.6746H30.1345C30.5377 48.6746 30.8646 48.3477 30.8646 47.9445C30.8646 47.5413 30.5377 47.2144 30.1345 47.2144H25.3037V44.0791C25.3037 41.1632 26.5479 38.375 28.8072 36.2284C28.8298 36.207 28.8528 36.1861 28.8756 36.1649C28.963 36.0832 29.0517 36.0028 29.1413 35.9237C29.1483 35.9175 29.1554 35.9112 29.1623 35.9051C29.3392 35.7498 29.5205 35.6001 29.7057 35.4553C29.7393 35.4292 29.7731 35.4035 29.8069 35.3777C29.8564 35.3398 29.9063 35.3024 29.9564 35.2653C30.0059 35.2288 30.0553 35.1923 30.1052 35.1565C30.1263 35.1413 30.1477 35.1266 30.1688 35.1116C31.2062 34.3784 32.3512 33.8096 33.5477 33.4283L34.733 35.7312L33.1494 42.6055C33.0903 42.8619 33.1738 43.1302 33.368 43.308L36.429 46.1095C36.5685 46.2373 36.7451 46.301 36.9219 46.301C37.0986 46.301 37.2752 46.2372 37.4148 46.1095L40.4759 43.308C40.6699 43.1303 40.7535 42.862 40.6944 42.6055L39.1108 35.7312L40.2962 33.4283C42.0445 33.9855 43.6834 34.9426 45.0365 36.2284C47.2957 38.3749 48.54 41.1631 48.54 44.079V47.2142H32.5679C32.1647 47.2142 31.8378 47.5411 31.8378 47.9443C31.8378 48.3474 32.1646 48.6744 32.5679 48.6744H49.2699C49.673 48.6744 50 48.3475 50 47.9443V44.079C50 38.4386 45.8467 33.4715 40.3647 31.9138ZM8.54619 23.3572V21.6382H8.54629H10.2984V23.4255V24.775C10.2984 25.2581 9.90537 25.651 9.42227 25.651C8.93916 25.651 8.54609 25.258 8.54609 24.775V23.3572H8.54619ZM25.3194 8.98308H12.6244V6.57585C12.6244 5.91013 13.166 5.36843 13.8318 5.36843H24.1121C24.7778 5.36843 25.3195 5.91003 25.3195 6.57585V8.98308H25.3194ZM27.932 8.98308H26.7795V6.57585C26.7795 5.10505 25.5829 3.90837 24.112 3.90837H13.8317C12.3609 3.90837 11.1643 5.10496 11.1643 6.57585V8.98318H10.0117V6.05251C10.0117 4.25115 11.4772 2.78562 13.2786 2.78562H24.6651C26.4665 2.78562 27.932 4.25115 27.932 6.05251V8.98308ZM27.8076 23.4256V24.7752C27.8076 25.2583 27.4146 25.6512 26.9314 25.6512C26.4483 25.6512 26.0554 25.2582 26.0554 24.7752V23.4257V21.6383H27.8075V23.4256H27.8076ZM31.7537 21.1671C31.7537 18.4064 33.9294 16.1444 36.6562 16.0057C36.7442 16.0012 36.8327 15.999 36.9218 15.999C37.0049 15.999 37.0875 16.0014 37.1697 16.0053C37.1726 16.0054 37.1752 16.0055 37.178 16.0056C37.1792 16.0057 37.1803 16.0055 37.1814 16.0056C37.1834 16.0057 37.1855 16.0056 37.1874 16.0057C39.9141 16.1444 42.0898 18.4064 42.0898 21.1671V22.906C39.7349 22.4691 38.7819 20.0747 38.7396 19.9651C38.6388 19.6992 38.3919 19.5177 38.1082 19.4974C37.8243 19.4777 37.554 19.6251 37.4162 19.8738C37.35 19.9935 35.8274 22.659 31.7536 22.9492V21.1671H31.7537ZM39.1759 42.5184L36.9218 44.5814L34.6677 42.5184L36.0854 36.3648H37.7582L39.1759 42.5184ZM35.0014 33.0621C35.065 33.0503 35.1289 33.0395 35.1928 33.0287C35.2381 33.0211 35.2836 33.0135 35.3289 33.0065C35.4086 32.994 35.4884 32.9822 35.5683 32.9714C35.6725 32.9574 35.7767 32.9448 35.881 32.9338C35.9229 32.9293 35.9647 32.9251 36.0067 32.9211C36.0169 32.9201 36.027 32.9192 36.0371 32.9182C36.1454 32.9082 36.2539 32.8998 36.3623 32.8928C36.406 32.8901 36.4494 32.8871 36.4932 32.8848C36.4934 32.8848 36.4936 32.8848 36.4938 32.8848C36.5817 32.8802 36.6697 32.8779 36.7577 32.8754C36.8124 32.8767 36.8667 32.8796 36.9219 32.8796C36.977 32.8796 37.0312 32.8767 37.0859 32.8754C37.174 32.8779 37.2621 32.8802 37.3503 32.8848C37.3785 32.8863 37.4067 32.8875 37.435 32.8892C37.5629 32.8969 37.6906 32.9072 37.8186 32.9191C37.8662 32.9236 37.914 32.9285 37.9616 32.9336C38.0676 32.9448 38.1735 32.9576 38.2793 32.9718C38.3574 32.9824 38.4355 32.994 38.5135 33.0062C38.5595 33.0134 38.6056 33.0211 38.6516 33.0287C38.7151 33.0394 38.7788 33.0501 38.8423 33.0619L37.8941 34.9046H35.9498L35.0014 33.0621ZM37.2241 31.41C37.2089 31.4098 37.1938 31.4092 37.1786 31.4098C37.1604 31.4107 37.1421 31.4119 37.1238 31.4132C37.1183 31.4135 37.1128 31.4138 37.1073 31.4141C37.0488 31.4126 36.9905 31.4103 36.9318 31.4095C36.9252 31.4095 36.9185 31.4095 36.9119 31.4095C36.8532 31.4103 36.7948 31.4126 36.7363 31.4141C34.0721 31.3186 31.8912 29.1443 31.7571 26.5057C31.7529 26.4205 31.7506 26.3346 31.7506 26.2483V24.4123C35.0517 24.2099 36.9935 22.6556 37.9514 21.5856C38.626 22.639 39.9333 24.1031 42.0931 24.3856V26.2484C42.0931 28.9982 39.9353 31.2529 37.2241 31.41Z" fill="#333333"/>
</svg>
