<svg width="24" height="24" viewBox="0 0 24 24" fill="none" xmlns="http://www.w3.org/2000/svg">
<path d="M22.1053 0H1.89474C1.39222 0 0.910288 0.199623 0.554956 0.554956C0.199623 0.910288 0 1.39222 0 1.89474L0 22.1053C0 22.6078 0.199623 23.0897 0.554956 23.445C0.910288 23.8004 1.39222 24 1.89474 24H22.1053C22.6078 24 23.0897 23.8004 23.445 23.445C23.8004 23.0897 24 22.6078 24 22.1053V1.89474C24 1.39222 23.8004 0.910288 23.445 0.554956C23.0897 0.199623 22.6078 0 22.1053 0V0ZM15.4137 7.80947C15.4137 8.03526 15.3189 8.12526 15.0979 8.12526C14.6732 8.12526 14.2484 8.12526 13.8253 8.14263C13.4021 8.16 13.1716 8.35263 13.1716 8.79474C13.1621 9.26842 13.1716 9.73263 13.1716 10.2158H14.9889C15.2479 10.2158 15.3363 10.3042 15.3363 10.5647C15.3363 11.1963 15.3363 11.8311 15.3363 12.4689C15.3363 12.7263 15.2542 12.8068 14.9937 12.8084H13.1558V17.9463C13.1558 18.2211 13.0705 18.3079 12.7989 18.3079H10.8221C10.5837 18.3079 10.4905 18.2147 10.4905 17.9763V12.8163H8.92105C8.67474 12.8163 8.58632 12.7263 8.58632 12.4784C8.58632 11.8395 8.58632 11.2011 8.58632 10.5632C8.58632 10.3168 8.67947 10.2237 8.92263 10.2237H10.4905V8.8421C10.4719 8.22151 10.6208 7.60737 10.9216 7.06421C11.2342 6.51585 11.7352 6.09957 12.3316 5.89263C12.7186 5.75181 13.1276 5.68123 13.5395 5.68421H15.0916C15.3142 5.68421 15.4074 5.7821 15.4074 6C15.4153 6.60789 15.4153 7.20947 15.4137 7.80947Z" fill="#A4B0BE"/>
</svg>
