<svg width="100" height="100" viewBox="0 0 100 100" fill="none" xmlns="http://www.w3.org/2000/svg">
<path d="M50 16.0156C27.823 16.0156 9.78064 34.0578 9.78064 56.235C9.78064 59.6307 10.2049 63.0049 11.0414 66.2639C11.2426 67.0475 12.0404 67.5193 12.8244 67.3186C13.608 67.1174 14.0802 66.3189 13.8791 65.5355C13.2238 62.9834 12.8449 60.3537 12.742 57.6998H33.0195C33.1293 65.2195 34.0836 72.3809 35.7699 78.509H20.0844C18.3873 76.2301 16.9332 73.7355 15.7705 71.0535C15.4486 70.3113 14.5863 69.9707 13.8437 70.2922C13.1015 70.6141 12.7607 71.4766 13.0824 72.2189C19.465 86.9414 33.956 96.4543 50 96.4543C72.1769 96.4543 90.2193 78.4119 90.2193 56.235C90.2193 34.058 72.1769 16.0156 50 16.0156ZM77.4568 31.0313H63.3396C62.2197 27.666 60.8775 24.749 59.3617 22.4178C58.6803 21.3697 57.9662 20.4471 57.2258 19.6504C65.1551 21.2137 72.1896 25.2977 77.4568 31.0313ZM87.2582 54.7701H72.9092C72.2752 51.8527 69.7898 49.6197 66.7494 49.3666C66.6177 47.5029 66.4349 45.6557 66.1976 43.8648C66.0914 43.0629 65.3541 42.4986 64.5531 42.6051C63.7511 42.7113 63.1871 43.4477 63.2933 44.2496C63.5303 46.0373 63.7113 47.8844 63.8392 49.7479C61.6306 50.5449 59.9431 52.4395 59.4369 54.7699H35.9494C36.0631 47.1816 37.0586 39.9979 38.8129 33.9609H61.1851C61.5984 35.39 61.9758 36.902 62.3111 38.4896C62.4783 39.2811 63.2558 39.7875 64.047 39.6201C64.8386 39.4529 65.3449 38.6758 65.1775 37.8842C64.8912 36.5287 64.572 35.2213 64.2256 33.9609H79.8883C84.2619 39.8145 86.956 46.9906 87.2582 54.7701ZM79.8885 78.509H64.2254C65.4933 73.8881 66.3613 68.6383 66.7523 63.1031C69.7912 62.8488 72.2754 60.6162 72.909 57.6998H87.258C86.956 65.4793 84.2619 72.6555 79.8885 78.509ZM66.1728 52.2703C68.359 52.2703 70.1375 54.0488 70.1375 56.235C70.1375 58.4211 68.3588 60.1996 66.1728 60.1996C63.9867 60.1996 62.2082 58.4211 62.2082 56.235C62.2082 54.0488 63.9867 52.2703 66.1728 52.2703ZM20.1113 33.9609H35.7699C34.0836 40.0891 33.1295 47.2504 33.0195 54.7699H12.7418C13.0439 46.9906 15.7379 39.8145 20.1113 33.9609ZM50 18.9453C53.8316 18.9453 57.5808 23.5043 60.2467 31.0313H39.7564C39.9572 30.467 40.1646 29.9141 40.3801 29.3762C43.0361 22.7473 46.5424 18.9453 50 18.9453ZM42.7771 19.65C40.8646 21.7104 39.1318 24.6145 37.6605 28.2865C37.3072 29.1684 36.9734 30.085 36.658 31.0313H22.5429C27.8109 25.2971 34.8465 21.2129 42.7771 19.65ZM35.9494 57.6998H59.4367C59.9433 60.0312 61.6318 61.9262 63.8416 62.7227C63.4414 68.5385 62.4947 73.9229 61.1623 78.509H38.8129C37.0586 72.4719 36.0631 65.2881 35.9494 57.6998ZM50 93.5246C46.5424 93.5246 43.0361 89.7227 40.3801 83.0938C40.1644 82.5559 39.9572 82.0029 39.7564 81.4387H60.2203C57.5959 88.8352 53.8972 93.5246 50 93.5246ZM22.5074 81.4387H36.658C36.9734 82.385 37.3072 83.3016 37.6605 84.1834C39.1316 87.8551 40.8636 90.7598 42.776 92.8197C34.9418 91.2762 27.848 87.2613 22.5074 81.4387ZM57.2469 92.8154C58.7761 91.1576 60.1931 88.9488 61.4668 86.2065C62.1474 84.7408 62.7726 83.1436 63.339 81.4387H77.4568C72.1943 87.167 65.1676 91.249 57.2469 92.8154Z" fill="#F1F2F6"/>
<path d="M93.1543 30.9666C88.9959 23.8799 83.1219 17.899 76.1266 13.6026C76.6182 12.6545 76.8979 11.5797 76.8979 10.4401C76.8979 6.63849 73.8051 3.54572 70.0035 3.54572C67.0283 3.54572 64.4875 5.44044 63.5234 8.08634C59.1402 6.85783 54.5957 6.23497 50 6.23497C38.6164 6.23497 27.5416 10.1385 18.6947 17.2467C17.4398 15.526 15.41 14.4047 13.1219 14.4047C9.32031 14.4047 6.22754 17.4975 6.22754 21.299C6.22754 23.7199 7.48281 25.852 9.37578 27.0822C3.23711 35.6082 0 45.6492 0 56.235C0 57.044 0.655859 57.6998 1.46484 57.6998C2.27383 57.6998 2.92969 57.044 2.92969 56.235C2.92969 45.9959 6.14531 36.2986 12.2357 28.1344C12.5262 28.1719 12.8215 28.1932 13.1219 28.1932C16.9234 28.1932 20.0162 25.1004 20.0162 21.2988C20.0162 20.8711 19.975 20.4529 19.9002 20.0465C28.3289 13.0287 39.0111 9.16466 50 9.16466C54.4695 9.16466 58.8857 9.79122 63.1357 11.0236C63.4332 14.5529 66.3988 17.3344 70.0035 17.3344C71.5963 17.3344 73.0633 16.7901 74.2318 15.8797C80.9779 19.9399 86.6404 25.6545 90.6273 32.4494C94.8424 39.6326 97.0703 47.8576 97.0703 56.235C97.0703 57.044 97.7262 57.6998 98.5352 57.6998C99.3441 57.6998 100 57.044 100 56.235C100 47.3369 97.6328 38.5992 93.1543 30.9666ZM13.1219 25.2637C10.9357 25.2637 9.15723 23.4852 9.15723 21.299C9.15723 19.1129 10.9357 17.3344 13.1219 17.3344C15.308 17.3344 17.0865 19.1129 17.0865 21.299C17.0865 23.4852 15.308 25.2637 13.1219 25.2637ZM70.0035 14.4047C67.8174 14.4047 66.0389 12.6262 66.0389 10.4401C66.0389 8.25392 67.8174 6.4754 70.0035 6.4754C72.1897 6.4754 73.9682 8.25392 73.9682 10.4401C73.9682 12.6262 72.1897 14.4047 70.0035 14.4047Z" fill="#F1F2F6"/>
</svg>
