<svg width="600" height="404" viewBox="0 0 600 404" fill="none" xmlns="http://www.w3.org/2000/svg">
<g clip-path="url(#clip0_87_6)">
<path fill-rule="evenodd" clip-rule="evenodd" d="M53.0524 402.246H583.622C584.106 402.246 584.502 402.64 584.502 403.123C584.502 403.605 584.106 404 583.622 404H53.0524C52.5681 404 52.1719 403.605 52.1719 403.123C52.1719 402.64 52.5681 402.246 53.0524 402.246Z" fill="#2F3542"/>
<path fill-rule="evenodd" clip-rule="evenodd" d="M155.283 343.622C153.786 375.637 149.868 383.707 122.747 401.951H182.932H243.117C215.952 383.707 212.034 375.637 210.581 343.622L182.932 341.035L155.283 343.622Z" fill="#CED6E0"/>
<path fill-rule="evenodd" clip-rule="evenodd" d="M22.1456 89.7291H345.744C357.323 89.7291 366.833 100.254 366.833 113.104V320.016V322.998C366.833 335.848 357.323 346.373 345.744 346.373H22.1456C10.5665 346.373 1.05664 335.848 1.05664 322.998V320.016V307.605V113.104C1.05664 100.254 10.5665 89.7291 22.1456 89.7291Z" fill="#CED6E0"/>
<path d="M11.491 101.921H356.002C356.134 101.921 356.266 102.053 356.266 102.228V307.649H11.2268V102.184C11.2268 102.053 11.3589 101.921 11.491 101.921Z" fill="#2F3542"/>
<path d="M356.266 267.828H11.2268V307.605H356.266V267.828Z" fill="#57606F"/>
<path d="M211.462 346.417H154.315V356.548H211.462V346.417Z" fill="#A4B0BE"/>
<path d="M211.462 346.417H154.315V356.548H211.462V346.417Z" stroke="#A4B0BE" stroke-width="0.216" stroke-miterlimit="22.9256"/>
<path d="M287.188 276.818H21.7935V277.257H287.188V276.818Z" fill="#A4B0BE"/>
<path d="M287.188 295.676H21.7935V296.115H287.188V295.676Z" fill="#A4B0BE"/>
<path d="M298.415 294.931C301.981 294.58 305.636 291.729 305.636 291.729L306.252 292.431C306.252 292.431 302.333 295.544 298.415 295.851V294.931ZM21.9255 297.255C21.9696 297.167 33.5487 268.222 41.7817 273.353C45.2158 275.502 47.6373 278.046 49.6625 280.239C52.1281 282.87 53.9772 284.844 56.2226 284.449C58.512 284.054 61.2857 283.703 64.0153 283.923C66.789 284.142 69.5187 285.019 71.7201 287.036C73.261 288.484 74.2296 289.887 75.1102 291.203C76.6511 293.483 78.06 295.588 82.2865 297.211C86.293 298.746 90.2554 290.369 93.6015 283.353C95.4066 279.537 97.0356 276.116 98.4885 274.757C98.5765 274.669 98.6646 274.581 98.7526 274.538C100.778 272.696 103.023 271.95 105.181 272.082C107.294 272.213 109.363 273.178 111.124 274.757C111.212 274.845 111.3 274.932 111.388 275.02C113.326 276.862 117.552 279.713 122.087 281.818C125.389 283.353 128.867 284.449 131.773 284.449C136.88 284.449 139.962 289.405 142.471 293.396C143.616 295.238 144.629 296.816 145.597 297.562L145.729 297.693C148.767 300.018 153.39 303.526 156.604 302.079C157.925 301.465 160.302 298.79 163.032 295.632C167.127 290.94 172.102 285.238 176.24 283.747C179.63 282.519 184.121 279.449 188.083 276.686C191.958 274.011 195.348 271.687 196.977 271.687C199.178 271.687 205.342 277.607 210.361 282.432C212.739 284.712 214.852 286.729 216.129 287.782C217.273 288.703 218.726 290.019 220.311 291.466C224.23 295.062 228.896 299.316 230.614 299.009C231.802 298.79 234.928 296.422 238.186 293.571C241.752 290.413 245.407 286.729 246.815 284.668C248.18 282.651 250.382 279.493 253.728 277.213C257.074 274.888 261.609 273.529 267.552 275.064C267.86 275.152 268.169 275.239 268.433 275.327V276.292C268.036 276.16 267.64 276.073 267.288 275.941C261.697 274.494 257.47 275.766 254.3 277.958C251.13 280.151 248.973 283.221 247.652 285.151C246.199 287.256 242.501 291.027 238.847 294.229C235.501 297.167 232.198 299.623 230.79 299.886C228.588 300.281 223.701 295.851 219.607 292.08C218.022 290.633 216.569 289.317 215.468 288.44C214.147 287.387 212.034 285.326 209.657 283.046C204.77 278.353 198.782 272.608 196.977 272.608C195.7 272.608 192.442 274.845 188.7 277.432C184.693 280.195 180.159 283.309 176.592 284.581C172.674 285.984 167.831 291.554 163.781 296.202C160.963 299.404 158.585 302.167 157.044 302.868C153.258 304.579 148.371 300.851 145.113 298.351L144.981 298.22C143.88 297.386 142.824 295.72 141.635 293.79C139.257 290.019 136.308 285.326 131.817 285.326C128.735 285.326 125.125 284.186 121.691 282.607C117.024 280.458 112.709 277.52 110.728 275.634C110.64 275.546 110.552 275.459 110.464 275.415C108.879 274.011 107.03 273.134 105.137 273.003C103.243 272.871 101.306 273.529 99.5011 275.195C99.4131 275.283 99.369 275.327 99.281 275.415C97.9602 276.686 96.3752 280.02 94.6141 283.747C91.0919 291.159 86.9094 299.974 82.0224 298.088C77.5316 296.334 76.0347 294.141 74.4057 291.729C73.5252 290.413 72.6006 289.054 71.1477 287.694C69.1225 285.809 66.6129 285.063 64.0594 284.844C61.4618 284.624 58.7761 284.975 56.5308 285.37C53.713 285.852 51.6878 283.703 49.0462 280.853C47.065 278.748 44.6875 276.204 41.3414 274.143C34.165 269.67 22.9822 297.562 22.9822 297.606L21.9255 297.255Z" fill="#F79D2C"/>
<path fill-rule="evenodd" clip-rule="evenodd" d="M24.0386 109.683H109.539C111.212 109.683 112.577 111.043 112.577 112.71C112.577 114.376 111.212 115.736 109.539 115.736H24.0386C22.3656 115.736 21.0008 114.376 21.0008 112.71C20.9567 111.043 22.3656 109.683 24.0386 109.683Z" fill="#CED6E0"/>
<path fill-rule="evenodd" clip-rule="evenodd" d="M24.0386 122.972H66.5687C68.2417 122.972 69.6066 124.331 69.6066 125.998C69.6066 127.664 68.2417 129.024 66.5687 129.024H24.0386C22.3656 129.024 21.0008 127.664 21.0008 125.998C20.9567 124.331 22.3656 122.972 24.0386 122.972Z" fill="#CED6E0"/>
<path d="M97.5639 172.353H87.3496V217.92H97.5639V172.353Z" fill="#4BA64E"/>
<path d="M92.985 165.337H91.8843V224.937H92.985V165.337Z" fill="#4BA64E"/>
<path d="M112.313 150.426H102.099V164.109H112.313V150.426Z" fill="#4BA64E"/>
<path d="M107.778 141.391H106.677V181.168H107.778V141.391Z" fill="#4BA64E"/>
<path d="M182.756 172.003H172.542V217.569H182.756V172.003Z" fill="#4BA64E"/>
<path d="M178.221 164.986H177.121V224.586H178.221V164.986Z" fill="#4BA64E"/>
<path d="M197.549 148.452H187.335V171.739H197.549V148.452Z" fill="#4BA64E"/>
<path d="M192.97 148.452H191.87V181.388H192.97V148.452Z" fill="#4BA64E"/>
<path d="M214.544 139.681H204.329V150.601H214.544V139.681Z" fill="#4BA64E"/>
<path d="M210.009 127.664H208.908V168.713H210.009V127.664Z" fill="#4BA64E"/>
<path d="M266.583 150.996H256.369V168.099H266.583V150.996Z" fill="#4BA64E"/>
<path d="M262.005 145.733H260.904V175.029H262.005V145.733Z" fill="#4BA64E"/>
<path d="M39.3161 199.939H29.1018V245.505H39.3161V199.939Z" fill="#4BA64E"/>
<path d="M34.7813 179.765H33.6807V248.75H34.7813V179.765Z" fill="#4BA64E"/>
<path fill-rule="evenodd" clip-rule="evenodd" d="M227.003 153.934H228.104V156.039H232.683V169.722H228.104V171.827H227.003V169.722H222.424V156.039H227.003V153.934ZM244.13 159.241H245.23V169.284H249.809V193.887H245.23V203.93H244.13V193.887H239.551V169.284H244.13V159.241ZM123.76 166.74H124.861V170.555H129.439V195.159H124.861V198.974H123.76V195.159H119.181V170.555H123.76V166.74ZM141.503 190.159H142.603V193.931H147.182V218.227H142.603V221.998H141.503V218.227H136.924V193.931H141.503V190.159ZM158.629 193.974H159.73V215.42H164.309V242.172H159.73V245.987H158.629V242.172H154.05V215.42H158.629V193.974ZM56.8388 195.641H57.9395V199.456H62.5183V224.06H57.9395V227.875H56.8388V224.06H52.26V199.456H56.8388V195.641ZM74.6257 213.929H75.7264V221.209H80.3052V234.892H75.7264V242.172H74.6257V234.892H70.0469V221.209H74.6257V213.929ZM273.98 184.195H278.559V174.152H279.659V184.195H284.238V208.798H279.659V218.841H278.559V208.798H273.98V184.195Z" fill="#D53232"/>
<path fill-rule="evenodd" clip-rule="evenodd" d="M158.937 249.54L163.252 258.092H154.667L158.937 249.54Z" fill="#F79646"/>
<path fill-rule="evenodd" clip-rule="evenodd" d="M209.437 120.428L205.474 112.578H213.399L209.437 120.428Z" fill="#A4B0BE"/>
<path fill-rule="evenodd" clip-rule="evenodd" d="M261.036 141.611L257.074 133.716H264.999L261.036 141.611Z" fill="#A4B0BE"/>
<path fill-rule="evenodd" clip-rule="evenodd" d="M75.6825 246.645L79.9531 255.197H71.4119L75.6825 246.645Z" fill="#F79646"/>
<path fill-rule="evenodd" clip-rule="evenodd" d="M244.35 210.815L248.62 219.323H240.035L244.35 210.815Z" fill="#F79646"/>
<path d="M356.267 102.184H294.145V307.605H356.267V102.184Z" fill="#57606F"/>
<path fill-rule="evenodd" clip-rule="evenodd" d="M344.159 237.699C344.159 248.268 335.574 256.82 324.963 256.82C314.353 256.82 305.768 248.268 305.768 237.699C305.768 227.129 314.353 218.578 324.963 218.578V227.173C319.108 227.173 314.397 231.91 314.397 237.699C314.397 243.531 319.152 248.224 324.963 248.224C330.819 248.224 335.53 243.488 335.53 237.699H344.159Z" fill="#A4B0BE"/>
<path fill-rule="evenodd" clip-rule="evenodd" d="M327.209 217.35C337.159 217.744 345.172 225.726 345.568 235.637H336.983C336.586 230.419 332.448 226.296 327.209 225.901V217.35Z" fill="#D53232"/>
<path fill-rule="evenodd" clip-rule="evenodd" d="M306.296 287.826H318.711C321.441 287.826 323.687 290.063 323.687 292.782C323.687 295.501 321.441 297.737 318.711 297.737H306.296C303.566 297.737 301.321 295.501 301.321 292.782C301.321 290.063 303.566 287.826 306.296 287.826Z" fill="#4BA64E"/>
<path fill-rule="evenodd" clip-rule="evenodd" d="M332.492 287.826H344.908C347.637 287.826 349.883 290.063 349.883 292.782C349.883 295.501 347.637 297.737 344.908 297.737H332.492C329.762 297.737 327.517 295.501 327.517 292.782C327.561 290.063 329.806 287.826 332.492 287.826Z" fill="#D53232"/>
<path d="M349.178 267.828H301.321V279.318H349.178V267.828Z" fill="#CED6E0"/>
<path d="M325.271 267.828H301.321V279.318H325.271V267.828Z" fill="#A4B0BE"/>
<path fill-rule="evenodd" clip-rule="evenodd" d="M307.044 140.821H317.567C319.24 140.821 320.605 142.181 320.605 143.847C320.605 145.514 319.24 146.873 317.567 146.873H307.044C305.371 146.873 304.006 145.514 304.006 143.847C304.006 142.181 305.371 140.821 307.044 140.821Z" fill="#A4B0BE"/>
<path fill-rule="evenodd" clip-rule="evenodd" d="M326.724 140.821H344.864C346.537 140.821 347.901 142.181 347.901 143.847C347.901 145.514 346.537 146.873 344.864 146.873H326.724C325.051 146.873 323.687 145.514 323.687 143.847C323.643 142.181 325.007 140.821 326.724 140.821Z" fill="#A4B0BE"/>
<path d="M316.73 158.758H304.799V163.012H316.73V158.758Z" fill="#4BA64E"/>
<path d="M326.68 164.986H304.799V169.24H326.68V164.986Z" fill="#4BA64E"/>
<path d="M336.939 171.213H304.799V175.467H336.939V171.213Z" fill="#4BA64E"/>
<path d="M345.348 177.397H304.799V181.651H345.348V177.397Z" fill="#4BA64E"/>
<path d="M331.391 183.624H304.799V187.878H331.391V183.624Z" fill="#D53232"/>
<path d="M340.549 189.808H304.799V194.062H340.549V189.808Z" fill="#D53232"/>
<path d="M344.115 196.036H304.799V200.29H344.115V196.036Z" fill="#D53232"/>
<path d="M347.989 202.219H304.799V206.473H347.989V202.219Z" fill="#D53232"/>
<path fill-rule="evenodd" clip-rule="evenodd" d="M183.945 319.446C187.291 319.446 190.021 322.165 190.021 325.498C190.021 328.831 187.291 331.55 183.945 331.55C180.599 331.55 177.869 328.831 177.869 325.498C177.869 322.165 180.599 319.446 183.945 319.446Z" fill="#F1F2F6"/>
<path fill-rule="evenodd" clip-rule="evenodd" d="M315.498 99.5966H348.122C350.279 99.5966 352.084 101.351 352.084 103.544C352.084 105.693 350.323 107.491 348.122 107.491H315.498C313.34 107.491 311.535 105.736 311.535 103.544C311.535 101.351 313.296 99.5966 315.498 99.5966Z" fill="#A4B0BE"/>
<path fill-rule="evenodd" clip-rule="evenodd" d="M315.498 116.788H329.102C331.259 116.788 333.064 118.542 333.064 120.735C333.064 122.884 331.303 124.682 329.102 124.682H315.498C313.34 124.682 311.535 122.928 311.535 120.735C311.535 118.542 313.296 116.788 315.498 116.788Z" fill="#A4B0BE"/>
<path fill-rule="evenodd" clip-rule="evenodd" d="M340.901 116.788H364.368C366.525 116.788 368.33 118.542 368.33 120.735C368.33 122.884 366.569 124.682 364.368 124.682H340.901C338.744 124.682 336.939 122.928 336.939 120.735C336.939 118.542 338.744 116.788 340.901 116.788Z" fill="#A4B0BE"/>
<path fill-rule="evenodd" clip-rule="evenodd" d="M294.321 0H474.699C481.171 0 486.454 5.87668 486.454 13.069V113.85V115.516C486.454 122.709 481.171 128.585 474.699 128.585H294.321C287.849 128.585 282.565 122.709 282.565 115.516V113.85V106.921V13.069C282.565 5.87668 287.849 0 294.321 0Z" fill="#CED6E0"/>
<path d="M288.377 6.79765H480.423C480.511 6.79765 480.555 6.88536 480.555 6.97308V121.481H288.245V6.97308C288.245 6.88536 288.289 6.79765 288.377 6.79765Z" fill="#57606F"/>
<path d="M480.555 6.79765H438.113V121.305H480.555V6.79765Z" fill="#2F3542"/>
<path fill-rule="evenodd" clip-rule="evenodd" d="M450.264 71.5727C450.264 77.4494 455.063 82.2297 460.963 82.2297C466.862 82.2297 471.661 77.4494 471.661 71.5727C471.661 65.696 466.862 60.9158 460.963 60.9158V65.696C464.221 65.696 466.862 68.3274 466.862 71.5727C466.862 74.8181 464.221 77.4494 460.963 77.4494C457.705 77.4494 455.063 74.8181 455.063 71.5727H450.264Z" fill="#A4B0BE"/>
<path fill-rule="evenodd" clip-rule="evenodd" d="M459.73 60.2141C454.183 60.4333 449.692 64.8628 449.472 70.4325H454.271C454.491 67.538 456.824 65.2136 459.73 64.9943V60.2141Z" fill="#EA7E2F"/>
<path d="M430.848 13.069H295.113V22.0156H430.848V13.069Z" fill="#A4B0BE"/>
<path d="M307.044 13.069H295.113V22.0156H307.044V13.069Z" fill="#CED6E0"/>
<path d="M300.837 55.0829H296.786V107.535H300.837V55.0829Z" fill="#D53232"/>
<path d="M304.843 65.1259H300.792V107.535H304.843V65.1259Z" fill="#A4B0BE"/>
<path d="M308.893 97.2284H304.843V107.535H308.893V97.2284Z" fill="#F48120"/>
<path fill-rule="evenodd" clip-rule="evenodd" d="M298.371 111.876H306.736C307.617 111.876 308.321 112.578 308.321 113.455C308.321 114.332 307.617 115.034 306.736 115.034H298.371C297.491 115.034 296.786 114.332 296.786 113.455C296.786 112.578 297.491 111.876 298.371 111.876Z" fill="#2F3542"/>
<path d="M321.177 44.0313H317.126V107.535H321.177V44.0313Z" fill="#D53232"/>
<path d="M325.227 57.2319H321.177V107.535H325.227V57.2319Z" fill="#A4B0BE"/>
<path d="M329.278 92.185H325.228V107.535H329.278V92.185Z" fill="#F48120"/>
<path fill-rule="evenodd" clip-rule="evenodd" d="M318.756 111.876H327.121C328.001 111.876 328.706 112.578 328.706 113.455C328.706 114.332 328.001 115.034 327.121 115.034H318.756C317.875 115.034 317.171 114.332 317.171 113.455C317.127 112.578 317.875 111.876 318.756 111.876Z" fill="#2F3542"/>
<path d="M341.561 48.4169H337.511V107.535H341.561V48.4169Z" fill="#D53232"/>
<path d="M345.612 68.8098H341.562V107.535H345.612V68.8098Z" fill="#A4B0BE"/>
<path d="M349.663 102.403H345.612V107.535H349.663V102.403Z" fill="#F48120"/>
<path fill-rule="evenodd" clip-rule="evenodd" d="M339.14 111.876H347.505C348.386 111.876 349.09 112.578 349.09 113.455C349.09 114.332 348.386 115.034 347.505 115.034H339.14C338.259 115.034 337.555 114.332 337.555 113.455C337.511 112.578 338.259 111.876 339.14 111.876Z" fill="#2F3542"/>
<path d="M361.946 38.2861H357.896V107.535H361.946V38.2861Z" fill="#D53232"/>
<path d="M365.997 65.1259H361.946V107.535H365.997V65.1259Z" fill="#A4B0BE"/>
<path d="M370.003 97.4915H365.952V107.535H370.003V97.4915Z" fill="#F48120"/>
<path fill-rule="evenodd" clip-rule="evenodd" d="M359.48 111.876H367.846C368.726 111.876 369.431 112.578 369.431 113.455C369.431 114.332 368.726 115.034 367.846 115.034H359.48C358.6 115.034 357.896 114.332 357.896 113.455C357.896 112.578 358.6 111.876 359.48 111.876Z" fill="#2F3542"/>
<path fill-rule="evenodd" clip-rule="evenodd" d="M470.869 98.6756C470.869 104.552 466.07 109.333 460.17 109.333C454.271 109.333 449.472 104.552 449.472 98.6756C449.472 92.799 454.271 88.0187 460.17 88.0187V92.799C456.912 92.799 454.271 95.4303 454.271 98.6756C454.271 101.921 456.912 104.552 460.17 104.552C463.428 104.552 466.07 101.921 466.07 98.6756H470.869Z" fill="#A4B0BE"/>
<path fill-rule="evenodd" clip-rule="evenodd" d="M461.403 87.317C466.95 87.5363 471.441 91.9657 471.661 97.5354H466.862C466.642 94.6409 464.309 92.3165 461.403 92.0973V87.317Z" fill="#EA7E2F"/>
<path fill-rule="evenodd" clip-rule="evenodd" d="M448.591 18.1125H462.636C463.56 18.1125 464.353 18.858 464.353 19.8228C464.353 20.7438 463.604 21.5332 462.636 21.5332H448.591C447.667 21.5332 446.874 20.7877 446.874 19.8228C446.874 18.9019 447.667 18.1125 448.591 18.1125Z" fill="#A4B0BE"/>
<path fill-rule="evenodd" clip-rule="evenodd" d="M448.591 25.5241H454.447C455.371 25.5241 456.164 26.2696 456.164 27.2345C456.164 28.1554 455.415 28.9448 454.447 28.9448H448.591C447.667 28.9448 446.874 28.1993 446.874 27.2345C446.874 26.3135 447.667 25.5241 448.591 25.5241Z" fill="#A4B0BE"/>
<path fill-rule="evenodd" clip-rule="evenodd" d="M459.554 25.5241H469.68C470.605 25.5241 471.397 26.2696 471.397 27.2345C471.397 28.1554 470.649 28.9448 469.68 28.9448H459.554C458.629 28.9448 457.837 28.1993 457.837 27.2345C457.837 26.3135 458.629 25.5241 459.554 25.5241Z" fill="#A4B0BE"/>
<path fill-rule="evenodd" clip-rule="evenodd" d="M448.591 32.9796H454.447C455.371 32.9796 456.164 33.7251 456.164 34.69C456.164 35.6109 455.415 36.4003 454.447 36.4003H448.591C447.667 36.4003 446.874 35.6548 446.874 34.69C446.874 33.769 447.667 32.9796 448.591 32.9796Z" fill="#A4B0BE"/>
<path fill-rule="evenodd" clip-rule="evenodd" d="M459.554 32.9796H469.68C470.605 32.9796 471.397 33.7251 471.397 34.69C471.397 35.6109 470.649 36.4003 469.68 36.4003H459.554C458.629 36.4003 457.837 35.6548 457.837 34.69C457.837 33.769 458.629 32.9796 459.554 32.9796Z" fill="#A4B0BE"/>
<path d="M394.394 75.739H382.022V78.5458H394.394V75.739Z" fill="#A4B0BE"/>
<path d="M404.696 79.8176H382.022V82.6244H404.696V79.8176Z" fill="#A4B0BE"/>
<path d="M415.351 83.9401H382.022V86.7468H415.351V83.9401Z" fill="#A4B0BE"/>
<path d="M424.024 88.0625H382.022V90.8693H424.024V88.0625Z" fill="#A4B0BE"/>
<path d="M409.583 92.1411H382.022V94.9479H409.583V92.1411Z" fill="#2F3542"/>
<path d="M419.093 96.2635H382.022V99.0703H419.093V96.2635Z" fill="#2F3542"/>
<path d="M422.747 100.386H382.022V103.193H422.747V100.386Z" fill="#2F3542"/>
<path d="M426.798 104.465H382.022V107.271H426.798V104.465Z" fill="#2F3542"/>
<path d="M430.892 32.5849H381.538V66.1346H430.892V32.5849Z" fill="#2F3542"/>
<path d="M385.104 35.7425V62.7577H427.854V63.1085H384.796V35.7425H385.104Z" fill="white"/>
<path fill-rule="evenodd" clip-rule="evenodd" d="M385.104 51.2236C385.104 51.2236 389.331 44.2505 392.633 46.7503C395.979 49.2062 396.023 53.7234 399.193 54.2935C402.363 54.8637 403.992 40.3035 408.923 41.1806C413.81 42.1016 412.973 50.1711 418.521 53.3725C424.068 56.574 426.798 46.7503 426.798 46.7503V62.8016H385.148V51.2236H385.104Z" fill="#F79D2C"/>
<path fill-rule="evenodd" clip-rule="evenodd" d="M448.591 40.172H469.68C470.605 40.172 471.397 40.9175 471.397 41.8823C471.397 42.8033 470.649 43.5927 469.68 43.5927H448.591C447.667 43.5927 446.874 42.8472 446.874 41.8823C446.874 40.9175 447.667 40.172 448.591 40.172Z" fill="#A4B0BE"/>
<path fill-rule="evenodd" clip-rule="evenodd" d="M448.591 47.1889H460.919C461.843 47.1889 462.636 47.9344 462.636 48.8993C462.636 49.8202 461.887 50.6096 460.919 50.6096H448.591C447.667 50.6096 446.874 49.8641 446.874 48.8993C446.874 47.9783 447.667 47.1889 448.591 47.1889Z" fill="#A4B0BE"/>
<path fill-rule="evenodd" clip-rule="evenodd" d="M466.994 204.807H477.605C479.278 204.807 480.687 206.166 480.687 207.877C480.687 209.543 479.322 210.947 477.605 210.947H466.994C465.321 210.947 463.913 209.587 463.913 207.877C463.957 206.166 465.321 204.807 466.994 204.807Z" fill="#A4B0BE"/>
<path fill-rule="evenodd" clip-rule="evenodd" d="M486.763 204.807H505.034C506.707 204.807 508.116 206.166 508.116 207.877C508.116 209.543 506.751 210.947 505.034 210.947H486.763C485.09 210.947 483.681 209.587 483.681 207.877C483.725 206.166 485.09 204.807 486.763 204.807Z" fill="#A4B0BE"/>
<path fill-rule="evenodd" clip-rule="evenodd" d="M450.528 113.981H590.842C595.861 113.981 600 118.542 600 124.156V202.526V203.842C600 209.455 595.905 214.016 590.842 214.016H450.528C445.509 214.016 441.371 209.455 441.371 203.842V202.526V197.132V124.156C441.415 118.542 445.509 113.981 450.528 113.981Z" fill="#CED6E0"/>
<path d="M445.905 119.244H595.289C595.333 119.244 595.421 119.288 595.421 119.376V208.447H445.817V119.376C445.817 119.332 445.861 119.244 445.905 119.244Z" fill="#57606F"/>
<path d="M454.535 187.659H586.44V187.791H454.535V187.659ZM454.535 175.687H586.44V175.818H454.535V175.687ZM454.535 163.758H586.44V163.889H454.535V163.758ZM454.535 151.829H586.44V151.96H454.535V151.829ZM497.505 139.9H586.396V140.032H497.505V139.9ZM530.041 127.927H586.396V128.059H530.041V127.927Z" fill="#A4B0BE"/>
<path fill-rule="evenodd" clip-rule="evenodd" d="M458.101 199.676L475.095 194.764L479.498 191.475L483.46 189.808H483.681C483.681 189.808 487.555 191.65 491.737 186.65C495.876 181.651 495.876 181.475 495.876 181.475C495.876 181.475 493.719 187.659 499.618 179.634C505.518 171.608 505.342 170.38 508.071 168.187C510.801 166.038 513.091 163.451 513.091 163.451H512.342H513.091C513.091 163.451 511.55 164.021 514.808 166.959C518.066 169.898 519.915 170.819 519.915 170.819L522.38 174.327L524.229 173.494L526.079 170.336C526.079 170.336 527.796 168.626 529.16 168.319C530.569 168.012 534.444 164.065 535.368 163.933C536.293 163.802 540.255 161.214 540.255 161.214C540.255 161.214 540.211 159.065 542.06 157.486C543.909 155.951 547.344 155.337 547.344 155.337C547.344 155.337 548.444 155.337 549.677 155.337C550.91 155.337 554.344 159.065 555.401 155.337C556.501 151.61 557.118 148.54 558.482 146.391C559.891 144.242 562.665 142.531 562.665 142.531H565.13H570.106H576.445C576.445 142.531 577.546 140.997 578.471 140.076C579.395 139.155 585.427 134.374 585.427 134.374V199.676H458.101Z" fill="#F79D2C"/>
<path fill-rule="evenodd" clip-rule="evenodd" d="M458.101 199.676L476.856 198.009C476.856 198.009 477.341 197.395 479.322 196.913C481.347 196.43 480.467 199.369 483.681 196.913C486.894 194.457 486.586 194.15 488.303 193.974C490.02 193.799 489.536 196.123 494.027 193.974C498.518 191.825 501.644 188.01 501.644 188.01C501.644 188.01 505.21 184.282 508.16 183.317C511.109 182.396 513.883 181.3 513.883 181.3C513.883 181.3 515.732 182.089 516.965 182.703C518.198 183.317 519.518 187.703 520.663 184.502C521.808 181.3 521.632 182.835 523.349 181.782C525.066 180.686 528.324 181.782 528.324 181.782C528.324 181.782 532.683 178.713 533.607 178.055C534.532 177.441 534.224 177.572 537.482 174.678C540.74 171.739 544.438 170.336 544.438 170.336H547.388C547.388 170.336 549.105 170.336 550.646 170.336C552.187 170.336 551.438 170.336 553.419 170.336C555.445 170.336 562.401 170.336 562.401 170.336L565.13 173.055L566.759 171.432L568.477 167.003L571.558 163.933H574.508L577.282 163.451H580.364L585.471 157.662V199.632H458.101V199.676Z" fill="#EA7E2F"/>
<path d="M454.535 125.384V199.544H585.515V199.851H454.227V125.384H454.535Z" fill="white"/>
<path fill-rule="evenodd" clip-rule="evenodd" d="M462.768 126.656H521.764C522.909 126.656 523.877 127.621 523.877 128.761C523.877 129.901 522.909 130.866 521.764 130.866H462.768C461.623 130.866 460.655 129.901 460.655 128.761C460.699 127.577 461.623 126.656 462.768 126.656Z" fill="#CED6E0"/>
<path fill-rule="evenodd" clip-rule="evenodd" d="M462.768 135.822H492.134C493.279 135.822 494.247 136.786 494.247 137.927C494.247 139.067 493.279 140.032 492.134 140.032H462.768C461.623 140.032 460.655 139.067 460.655 137.927C460.699 136.786 461.623 135.822 462.768 135.822Z" fill="#CED6E0"/>
<path fill-rule="evenodd" clip-rule="evenodd" d="M414.206 245.768C399.633 261.512 389.727 268.88 376.783 266.424C369.21 262.872 351.776 248.794 353.801 244.716C355.298 241.733 353.669 239.058 357.895 241.295C363.575 244.145 375.902 251.952 377.355 252.215C384.18 253.487 402.583 233.094 405.885 233.489C407.074 233.357 418.785 243.181 414.206 245.768Z" fill="#2F3542"/>
<path fill-rule="evenodd" clip-rule="evenodd" d="M356.046 239.628C355.958 238.576 355.474 234.409 354.813 233.62C354.461 233.225 354.373 233.357 354.197 233.576C354.021 233.752 353.845 234.278 353.845 234.629C353.845 235.374 353.184 236.646 353.273 237.041C348.914 236.646 345.436 231.734 344.027 233.576C344.027 234.059 344.863 236.602 344.907 237.348C345.039 239.628 345.348 240.769 352.964 245.066C353.317 245.286 354.153 245.987 354.549 246.207C355.21 245.768 356.751 244.102 357.191 241.865L356.046 239.628Z" fill="#F7AAAC"/>
<path fill-rule="evenodd" clip-rule="evenodd" d="M394.614 294.053C390.564 311.771 397.476 354.838 399.677 387.949C399.809 390.185 399.457 392.948 396.991 394.308C394.746 395.536 389.815 396.15 388.494 397.422C387.526 398.343 383.079 402.597 396.111 402.246C405.357 401.983 407.558 401.369 408.571 399.878C408.703 399.658 414.999 322.954 415.967 317.209C417.64 324.577 438.729 393.431 438.729 393.475C438.597 394.571 437.1 397.553 435.427 399.351C434.943 401.149 432.125 403.518 441.107 403.43C450.088 403.342 447.975 399.878 448.019 399.351C444.056 362.03 438.597 313.964 436.968 292.343C436.968 292.343 425.037 292.168 418.521 288.528C408.615 282.958 402.539 260.328 404.388 283.616C404.652 287.914 396.155 288.045 394.614 294.053Z" fill="#2F3542"/>
<path fill-rule="evenodd" clip-rule="evenodd" d="M449.604 251.952C455.679 266.687 458.189 282.739 460.082 298.439C460.258 300.018 459.642 301.509 457.661 302.561C456.428 303.219 455.503 302.912 453.17 300.851C449.648 296.641 447.182 281.511 443.396 275.283C435.867 263.047 428.647 251.162 432.609 243.312C432.785 242.26 448.415 247.128 449.604 251.952Z" fill="#2F3542"/>
<path fill-rule="evenodd" clip-rule="evenodd" d="M439.83 267.082C438.377 275.546 437.188 289.975 437.981 304.403C420.502 307.386 403.86 306.465 393.425 303.132C393.91 291.641 390.52 236.558 407.602 232.918C419.137 229.673 434.635 230.726 441.063 236.997L441.107 237.041C445.994 241.602 452.025 256.644 454.887 267.564C460.831 290.457 444.805 277.827 439.83 267.082Z" fill="#2F3542"/>
<path fill-rule="evenodd" clip-rule="evenodd" d="M412.049 231.822C409.935 241.295 409.231 273.31 409.451 283.879C409.847 283.089 427.634 239.014 429.131 231.69C424.288 230.331 417.42 230.506 412.049 231.822Z" fill="white"/>
<path d="M408.747 265.898L409.451 283.923L417.332 267.389L417.816 243.926L419.665 241.339L417.684 239.146L415.219 240.462L416.055 243.444C413.634 249.847 410.376 260.855 408.747 265.898Z" fill="#D53232"/>
<path fill-rule="evenodd" clip-rule="evenodd" d="M439.83 267.082C438.465 275.722 437.672 293.571 437.98 304.403C433.402 293.089 435.823 263.486 436.704 258.925C437.54 261.732 438.597 264.538 439.83 267.082Z" fill="#21242B"/>
<path fill-rule="evenodd" clip-rule="evenodd" d="M415.659 228.401L415.615 231.954L415.087 232.392C413.061 234.541 415.263 238.97 417.552 238.839C423.364 239.146 427.854 234.366 426.093 231.778L425.345 230.945L425.169 225.945C425.477 225.945 427.678 224.673 428.295 224.498C428.955 224.279 429.924 223.051 429.968 221.735C430.012 220.419 427.987 220.858 427.987 220.858C430.452 217.481 433.27 214.718 429.616 211.648C425.961 208.622 417.596 206.824 417.596 206.824L412.577 205.07C413.237 206.78 412.357 212.569 411.08 216.165C409.275 221.297 410.288 225.858 415.659 228.401Z" fill="#F7AAAC"/>
<path fill-rule="evenodd" clip-rule="evenodd" d="M422.791 226.647C422.791 226.647 419.929 231.515 417.596 231.954C415.263 232.392 416.451 232.085 415.571 231.954L415.615 228.401C417.288 228.664 418.873 228.533 422.791 226.647Z" fill="#EA8287"/>
<path fill-rule="evenodd" clip-rule="evenodd" d="M413.502 212.569C417.684 214.718 422.527 212.175 424.949 215.025C426.137 216.429 426.049 218.49 424.684 221.647C424.288 222.568 423.76 223.27 425.345 222.525C426.049 222.174 427.238 221.735 427.678 222.042C428.603 222.788 428.119 224.323 427.414 224.805C427.106 225.024 426.49 225.375 426.49 225.375C432.125 224.323 434.458 219.235 434.37 215.157C434.326 213.797 434.194 212.525 433.93 211.473C434.062 211.078 434.106 210.683 434.106 210.289C434.106 208.535 432.962 207.043 431.421 206.561C431.112 204.719 429.616 203.316 427.766 203.316C427.194 203.316 426.666 203.447 426.225 203.667L426.049 203.623C425.389 202.482 424.112 201.693 422.659 201.693C421.647 201.693 420.722 202.088 420.018 202.702C419.005 201.298 417.42 200.421 415.703 200.421C412.621 200.421 410.112 203.228 410.112 206.693C410.112 208.842 411.08 210.771 412.577 211.911C412.797 212.087 413.105 212.35 413.502 212.569Z" fill="#21242A"/>
<path fill-rule="evenodd" clip-rule="evenodd" d="M409.451 283.879L404.608 244.233L408.571 240.9L406.061 237.962L408.527 232.699C409.539 232.699 410.904 232.041 412.093 231.822C409.979 241.295 409.231 273.31 409.451 283.879Z" fill="#21242A"/>
<path fill-rule="evenodd" clip-rule="evenodd" d="M409.451 283.879L433.49 247.084L430.672 242.742L433.93 240.637L432.785 232.611C431.949 232.392 430.144 231.866 429.131 231.734C427.59 239.19 409.891 283.089 409.451 283.879Z" fill="#21242A"/>
<path fill-rule="evenodd" clip-rule="evenodd" d="M454.05 300.895L454.931 303.789L454.359 308.745C454.138 309.315 453.522 312.911 454.623 311.903C455.415 311.201 456.648 309.052 456.736 309.096C457.969 309.666 460.17 316.244 460.258 316.288C461.843 317.122 460.698 312.911 460.522 312.166C460.478 311.99 461.975 314.885 462.063 314.753C462.195 314.578 462.592 314.139 462.416 313.35C462.151 312.385 461.491 310.762 461.623 310.543C461.755 310.324 463.164 313.175 463.296 312.955C463.384 312.78 463.56 312.473 463.384 311.859C463.12 310.85 462.371 309.403 462.46 309.14C462.548 308.877 463.428 310.982 463.516 310.719C463.56 310.543 463.912 310.455 463.868 310.28C462.9 305.193 460.346 305.894 459.378 300.062C458.893 296.86 454.491 299.755 454.05 300.895Z" fill="#F7AAAC"/>
<path d="M527.531 252.083C545.186 258.706 554.08 278.353 547.388 295.939C540.74 313.525 521.016 322.384 503.361 315.718C485.706 309.096 476.812 289.449 483.504 271.862C490.197 254.276 509.921 245.417 527.531 252.083Z" fill="#CED6E0"/>
<path d="M505.43 276.292C505.342 276.906 505.298 277.651 505.342 278.309L505.298 278.397C505.386 278.528 505.606 279.713 505.694 280.02C505.87 280.546 506.222 281.028 506.31 281.423C506.399 281.511 506.927 282.212 507.059 282.388C507.367 282.739 507.587 282.87 507.984 283.221C508.336 283.484 508.688 283.747 509.128 284.01C510.317 284.756 511.638 285.37 512.959 285.852C514.72 286.466 517.097 287.3 517.978 288.484C519.254 290.106 518.33 292.475 515.732 292.825C514.235 293.045 511.99 292.913 510.449 292.562C509.965 292.431 509.48 292.255 508.996 292.168C508.556 291.992 506.927 291.378 506.707 291.203L506.31 291.115C506.266 291.29 506.266 291.466 506.134 291.641C506.178 291.904 506.002 292.562 505.914 292.738C505.87 292.913 505.386 295.15 505.21 295.413C505.21 295.632 505.166 296.202 505.166 296.509C505.298 296.597 505.166 296.509 505.298 296.597L505.518 296.816C505.738 296.816 506.487 297.123 506.663 297.255L509.26 298L510.449 298.264L512.254 298.483C512.43 298.483 512.43 298.439 512.606 298.483L512.738 298.527C512.87 298.571 512.782 298.571 512.826 298.571L512.915 298.746C512.959 299.053 512.826 302.167 512.959 302.825H517.493C517.581 301.465 517.537 299.842 517.537 298.483C517.537 298 517.625 298.088 518.11 298C519.387 297.693 519.915 297.343 520.663 297.167C520.795 297.036 521.676 296.641 521.94 296.465C522.16 296.334 522.336 296.202 522.556 296.071C522.777 295.895 522.909 295.764 523.085 295.676C523.173 295.457 524.053 294.667 524.758 293.483C525.726 291.817 525.462 291.159 525.726 290.589V288.571C525.594 288.308 525.638 287.826 525.55 287.475C525.154 285.414 523.525 283.66 521.808 282.563C518.814 280.677 512.782 279.581 512.474 277.037C512.298 275.546 513.575 274.713 514.764 274.45C516.172 274.099 517.978 274.231 519.298 274.538C520.267 274.757 522.997 275.722 523.041 275.722C523.261 275.459 523.217 275.152 523.393 274.932C523.393 274.625 523.525 274.187 523.613 273.924C523.701 273.266 524.362 271.117 524.318 270.591C523.789 270.24 523.525 270.284 523.261 270.064H523.217C522.909 270.02 521.896 269.801 521.72 269.626C521.456 269.67 520.311 269.363 519.871 269.319C519.475 269.275 518.198 269.187 517.978 269.056C517.493 268.792 517.802 266.161 517.713 265.021H513.179C513.135 265.854 513.311 268.924 513.047 269.363C512.694 269.801 506.751 270.152 505.43 276.292Z" fill="white"/>
</g>
<defs>
<clipPath id="clip0_87_6">
<rect width="600" height="404" fill="white"/>
</clipPath>
</defs>
</svg>
