<svg width="30" height="30" viewBox="0 0 30 30" fill="none" xmlns="http://www.w3.org/2000/svg">
<g clip-path="url(#clip0_171_665)">
<path d="M15 30C23.2843 30 30 23.2843 30 15C30 6.71573 23.2843 0 15 0C6.71573 0 0 6.71573 0 15C0 23.2843 6.71573 30 15 30Z" fill="#4BA64E"/>
<path d="M11.1646 21.8566C11.1625 22.1103 11.0604 22.353 10.8804 22.5319C10.7005 22.7107 10.4572 22.8114 10.2034 22.8119H7.57054C7.31698 22.8113 7.0739 22.7107 6.89424 22.5317C6.71458 22.3528 6.61289 22.1102 6.61133 21.8566V14.3566C6.61289 14.1029 6.71451 13.86 6.89411 13.6808C7.07372 13.5015 7.3168 13.4004 7.57054 13.3994H10.2034C10.4575 13.3999 10.7011 13.5008 10.8811 13.6801C11.0612 13.8594 11.1631 14.1025 11.1646 14.3566V21.8566ZM22.3732 15.973C22.5647 16.1269 22.7091 16.3315 22.7898 16.5635C22.8706 16.7956 22.8843 17.0457 22.8295 17.2852C22.7747 17.5247 22.6537 17.7439 22.4801 17.9178C22.3066 18.0917 22.0876 18.2132 21.8482 18.2684C22.0405 18.4216 22.1857 18.6259 22.2671 18.8578C22.3485 19.0898 22.3628 19.34 22.3084 19.5797C22.254 19.8195 22.133 20.039 21.9594 20.2131C21.7859 20.3872 21.5667 20.5087 21.3271 20.5638C21.5378 20.7336 21.6907 20.9644 21.765 21.2246C21.8392 21.4847 21.8312 21.7615 21.7418 22.0169C21.6525 22.2722 21.4864 22.4937 21.2662 22.6509C21.046 22.8081 20.7825 22.8933 20.512 22.8948L13.087 22.8119C12.834 22.8108 12.5916 22.7098 12.4127 22.5309C12.2337 22.352 12.1328 22.1096 12.1317 21.8566V14.3566C12.1317 13.1724 15.9192 10.9855 16.1225 9.81713C16.2488 9.04344 16.0811 7.10529 16.6021 7.10529C17.4863 7.10529 18.6212 7.44476 18.6212 9.40857C18.6212 11.1415 17.4863 13.3895 17.4863 13.3895H22.0791C22.4005 13.3896 22.7106 13.5079 22.9503 13.722C23.19 13.936 23.3426 14.2308 23.3789 14.5501C23.4153 14.8694 23.3328 15.1909 23.1473 15.4533C22.9619 15.7157 22.6863 15.9007 22.3732 15.973Z" fill="white"/>
</g>
<defs>
<clipPath id="clip0_171_665">
<rect width="30" height="30" fill="white"/>
</clipPath>
</defs>
</svg>
