<svg width="24" height="24" viewBox="0 0 24 24" fill="none" xmlns="http://www.w3.org/2000/svg">
<g clip-path="url(#clip0_81_381)">
<path d="M22.1053 0H1.89474C1.39222 0 0.910288 0.199623 0.554956 0.554956C0.199623 0.910288 0 1.39222 0 1.89474L0 22.1053C0 22.6078 0.199623 23.0897 0.554956 23.445C0.910288 23.8004 1.39222 24 1.89474 24H22.1053C22.6078 24 23.0897 23.8004 23.445 23.445C23.8004 23.0897 24 22.6078 24 22.1053V1.89474C24 1.39222 23.8004 0.910288 23.445 0.554956C23.0897 0.199623 22.6078 0 22.1053 0V0ZM8.51053 18.3158H5.89263V9.88263H8.51053V18.3158ZM7.2 8.73158C6.89871 8.73282 6.60382 8.64472 6.3526 8.4784C6.10138 8.31209 5.9051 8.07502 5.78858 7.79718C5.67206 7.51934 5.64053 7.21318 5.69797 6.91742C5.75541 6.62166 5.89924 6.34957 6.11129 6.13553C6.32333 5.9215 6.59408 5.77514 6.88929 5.71494C7.1845 5.65475 7.49093 5.68343 7.76985 5.79735C8.04877 5.91128 8.28765 6.10534 8.4563 6.355C8.62496 6.60466 8.7158 6.89872 8.71737 7.2C8.71821 7.604 8.55907 7.9919 8.27473 8.27891C7.99039 8.56591 7.60399 8.72866 7.2 8.73158ZM18.3158 18.3158H15.6995V14.2105C15.6995 13.2316 15.6805 11.9763 14.3384 11.9763C12.9963 11.9763 12.7595 13.0405 12.7595 14.1395V18.3158H10.1526V9.88263H12.6647V11.0321H12.7011C13.05 10.3689 13.9042 9.67105 15.1784 9.67105C17.8279 9.67105 18.3158 11.4079 18.3158 13.6832V18.3158Z" fill="white"/>
</g>
<defs>
<clipPath id="clip0_81_381">
<rect width="24" height="24" fill="white"/>
</clipPath>
</defs>
</svg>
