<svg width="161" height="24" viewBox="0 0 161 24" fill="none" xmlns="http://www.w3.org/2000/svg">
<g clip-path="url(#clip0_81_358)">
<path d="M8.71986 8.86989C7.85365 7.94235 6.64095 7.42062 5.13952 7.42062C3.86907 7.42062 2.94511 7.6525 2.36764 8.17424C1.79016 8.63801 1.50143 9.33366 1.50143 10.1453C1.50143 10.551 1.55917 10.8989 1.73242 11.1887C1.90566 11.4786 2.13665 11.7105 2.42539 11.8844C2.71412 12.0583 3.11836 12.2322 3.63808 12.4061C4.10006 12.5221 4.67754 12.696 5.37051 12.8119C6.06348 12.9858 6.6987 13.1018 7.27618 13.2757C7.85365 13.4496 8.31563 13.6815 8.71986 13.9713C9.12409 14.2612 9.41283 14.551 9.64382 14.9568C9.87481 15.3626 9.99031 15.8264 9.99031 16.4061C9.99031 16.9858 9.87481 17.5076 9.64382 17.9134C9.41283 18.3192 9.12409 18.725 8.66212 19.0148C8.25788 19.3047 7.73815 19.5366 7.16068 19.6525C6.58321 19.8264 5.94798 19.8844 5.25501 19.8844C3.23385 19.8844 1.50143 19.2467 0.0577393 17.9134L0.577467 17.1597C1.15494 17.7395 1.79016 18.2032 2.59863 18.5511C3.34935 18.9568 4.21556 19.1308 5.25501 19.1308C6.40996 19.1308 7.27618 18.8989 7.96915 18.4931C8.60437 18.0873 8.95085 17.4496 8.95085 16.58C8.95085 16.1742 8.83536 15.7684 8.71986 15.4786C8.54662 15.1887 8.31563 14.8989 7.96915 14.667C7.62266 14.4351 7.21843 14.2612 6.6987 14.0873C6.17897 13.9134 5.6015 13.7974 4.90853 13.6235C4.04232 13.5076 3.46484 13.3916 2.88737 13.2177C2.30989 13.0438 1.90566 12.8119 1.55917 12.58C1.21269 12.3482 0.923952 12.0003 0.750709 11.6525C0.577467 11.3047 0.461972 10.8409 0.461972 10.3192C0.461972 9.73946 0.577467 9.21772 0.808457 8.75395C1.03945 8.29018 1.32818 7.88438 1.73242 7.59453C2.13665 7.30467 2.59863 7.01482 3.1761 6.89888C3.75358 6.72496 4.3888 6.66699 5.08177 6.66699C5.94798 6.66699 6.6987 6.78293 7.33392 7.07279C8.02689 7.30467 8.60437 7.71047 9.12409 8.23221L8.71986 8.86989Z" fill="white"/>
<path d="M11.9537 8.05811V6.37695H12.8777V8.05811H11.9537ZM11.9537 19.8842V10.203H12.8777V19.8262H11.9537V19.8842Z" fill="white"/>
<path d="M29.9132 19.884H28.9892V14.4927C28.9892 13.2753 28.816 12.3478 28.4118 11.7681C28.0075 11.1884 27.4878 10.8985 26.6793 10.8985C26.2751 10.8985 25.9286 10.9565 25.5244 11.1304C25.1779 11.3043 24.8314 11.4782 24.5427 11.7681C24.2539 12.0579 23.9652 12.3478 23.792 12.6956C23.561 13.0434 23.3877 13.4492 23.2722 13.913V19.884H22.3483V14.4927C22.3483 13.2753 22.175 12.3478 21.7708 11.7681C21.4243 11.1884 20.8468 10.8985 20.0384 10.8985C19.6341 10.8985 19.2876 10.9565 18.9412 11.1304C18.5947 11.2463 18.2482 11.4782 17.9595 11.7681C17.6707 12.0579 17.382 12.3478 17.151 12.6956C16.92 13.0434 16.7468 13.4492 16.6313 13.913V19.884H15.7073V10.2029H16.5735V12.5217C16.9778 11.7681 17.4975 11.1304 18.1327 10.7246C18.7679 10.3188 19.4609 10.0869 20.2694 10.0869C21.0778 10.0869 21.713 10.3188 22.2328 10.7826C22.7525 11.2463 23.0412 11.884 23.1567 12.6956C24.0807 10.9565 25.3511 10.0869 26.9103 10.0869C27.9498 10.0869 28.7005 10.4347 29.1625 11.1884C29.6245 11.942 29.8554 12.9855 29.8554 14.3188V19.884H29.9132Z" fill="white"/>
<path d="M37.4204 20.0579C36.6119 20.0579 35.8612 19.826 35.226 19.4202C34.5907 19.0145 34.071 18.4347 33.6668 17.7971V23.826H32.7428V10.2029H33.609V12.1739C34.0133 11.5362 34.533 11.0724 35.1682 10.6666C35.8034 10.2608 36.4964 10.0869 37.2471 10.0869C37.9401 10.0869 38.5176 10.2029 39.095 10.4927C39.6725 10.7826 40.1345 11.1304 40.5387 11.5942C40.943 12.0579 41.2895 12.5797 41.4627 13.2173C41.6359 13.855 41.8092 14.4347 41.8092 15.0724C41.8092 15.7681 41.6937 16.4058 41.5204 16.9855C41.2895 17.5652 41.0007 18.1449 40.5965 18.6087C40.1923 19.0724 39.7303 19.4202 39.2105 19.7101C38.6908 20 38.0556 20.0579 37.4204 20.0579ZM37.1894 19.2463C37.7669 19.2463 38.2288 19.1304 38.6908 18.8985C39.1528 18.6666 39.557 18.3768 39.8458 17.971C40.1923 17.5652 40.4232 17.1594 40.5965 16.6376C40.7697 16.1159 40.8275 15.6521 40.8275 15.1304C40.8275 14.5507 40.712 14.0289 40.5387 13.5652C40.3655 13.0434 40.0768 12.6376 39.7303 12.2318C39.3838 11.826 38.9796 11.5362 38.5176 11.3043C38.0556 11.0724 37.5359 10.9565 37.0161 10.9565C36.6697 10.9565 36.3232 11.0145 35.9767 11.1884C35.5725 11.3043 35.226 11.5362 34.9372 11.7681C34.6485 12 34.302 12.2898 34.071 12.5797C33.84 12.8695 33.7245 13.2173 33.6668 13.5652V16.7536C33.84 17.1014 34.0133 17.4492 34.302 17.7391C34.533 18.0289 34.8217 18.3188 35.1105 18.5507C35.3992 18.7826 35.7457 18.9565 36.0922 19.0724C36.4387 19.1304 36.7852 19.2463 37.1894 19.2463Z" fill="white"/>
<path d="M44.1191 6.31885H45.043V17.971C45.043 18.3188 45.1585 18.6087 45.3318 18.8406C45.5628 19.0725 45.7938 19.1304 46.198 19.1304C46.3135 19.1304 46.4867 19.1304 46.66 19.0725C46.8332 19.0145 47.0065 19.0145 47.1797 18.9565L47.3529 19.7102C47.122 19.7681 46.891 19.8841 46.6022 19.942C46.3135 20 46.0248 20 45.7938 20C45.274 20 44.8698 19.8261 44.5233 19.5362C44.1768 19.2464 44.0613 18.7826 44.0613 18.2609V6.31885H44.1191Z" fill="white"/>
<path d="M49.4318 23.1307C49.4896 23.1307 49.6051 23.1307 49.7206 23.1307C49.8361 23.1307 49.9516 23.1307 50.0671 23.1307C50.1826 23.1307 50.298 23.0727 50.3558 23.0147C50.4135 22.9567 50.4713 22.8988 50.5868 22.8408C50.6445 22.7828 50.76 22.6089 50.8178 22.435C50.9333 22.2031 51.0488 21.9133 51.222 21.5075C51.3952 21.1017 51.6262 20.522 51.915 19.8263L47.6417 10.2031H48.6234L52.4347 18.9567L56.015 10.2031H56.939L51.684 22.8988C51.5685 23.2466 51.3375 23.5365 51.0488 23.7104C50.76 23.8843 50.3558 24.0002 49.8361 24.0002C49.7783 24.0002 49.7206 24.0002 49.6628 24.0002C49.6051 24.0002 49.5473 24.0002 49.4896 24.0002V23.1307H49.4318Z" fill="white"/>
<path d="M58.5559 19.8841V18.3188H59.3644V19.8841H58.5559Z" fill="white"/>
<path d="M61.8476 19.8841V18.3188H62.656V19.8841H61.8476Z" fill="white"/>
<path d="M65.1392 19.8841V18.3188H65.9476V19.8841H65.1392Z" fill="white"/>
<path d="M72.0688 19.8843V0.116211H85.5818V4.86983H77.4971V8.11621H84.0803V12.522H77.4971V19.8843H72.0688Z" fill="#CC0000"/>
<path d="M96.5538 20.0581C95.0523 20.0581 93.7242 19.7682 92.4537 19.1885C91.241 18.6088 90.2016 17.8552 89.3353 16.9277C88.4691 16.0001 87.7762 14.8987 87.3142 13.7393C86.8522 12.5219 86.6212 11.3045 86.6212 10.0291C86.6212 8.75376 86.8522 7.47839 87.3719 6.261C87.8917 5.04361 88.5846 4.00013 89.4508 3.0726C90.3748 2.14506 91.4143 1.44941 92.627 0.8697C93.8396 0.347961 95.2256 0.0581055 96.6693 0.0581055C98.1707 0.0581055 99.4989 0.347961 100.769 0.927671C101.982 1.50738 103.022 2.261 103.888 3.18854C104.754 4.11608 105.447 5.21753 105.909 6.43492C106.371 7.65231 106.602 8.8697 106.602 10.1451C106.602 11.4204 106.371 12.6958 105.851 13.9132C105.331 15.1306 104.638 16.174 103.772 17.1016C102.906 18.0291 101.809 18.7827 100.596 19.3045C99.3834 19.7682 97.9975 20.0581 96.5538 20.0581ZM92.1072 10.0291C92.1072 10.7248 92.2227 11.3625 92.396 11.9422C92.5692 12.5798 92.8579 13.1016 93.2044 13.6233C93.5509 14.0871 94.0129 14.4929 94.5904 14.7827C95.1678 15.0726 95.8031 15.2465 96.6115 15.2465C97.3623 15.2465 98.0552 15.0726 98.6327 14.7827C99.2102 14.4929 99.6721 14.0871 100.019 13.5654C100.365 13.1016 100.654 12.5219 100.827 11.8842C101 11.2465 101.116 10.6088 101.116 9.97115C101.116 9.2755 101 8.63781 100.827 8.0581C100.654 7.42042 100.365 6.89868 99.9609 6.43492C99.5567 5.97115 99.0947 5.56535 98.5749 5.2755C97.9975 4.98564 97.3623 4.8697 96.6115 4.8697C95.8608 4.8697 95.1678 5.04361 94.5904 5.33347C94.0129 5.62332 93.5509 6.02912 93.2044 6.49289C92.8579 6.95666 92.5692 7.53637 92.396 8.17405C92.165 8.75376 92.1072 9.39144 92.1072 10.0291Z" fill="#CC0000"/>
<path d="M108.912 19.8843V0.116211H117.92C118.902 0.116211 119.768 0.290124 120.577 0.695921C121.385 1.10172 122.078 1.62346 122.656 2.26114C123.233 2.89882 123.695 3.65244 124.042 4.46404C124.388 5.27563 124.561 6.1452 124.561 6.95679C124.561 8.11621 124.33 9.15969 123.811 10.1452C123.291 11.1307 122.598 11.9423 121.732 12.58L125.89 19.8264H119.768L116.303 13.7394H114.282V19.8264H108.912V19.8843ZM114.282 9.04375H117.689C118.036 9.04375 118.325 8.86983 118.613 8.46404C118.902 8.11621 119.018 7.59447 119.018 6.89882C119.018 6.20317 118.844 5.68143 118.498 5.3336C118.151 4.98578 117.805 4.81186 117.516 4.81186H114.225V9.04375H114.282Z" fill="#CC0000"/>
<path d="M141.655 15.1307V19.8843H127.622V0.116211H141.424V4.86983H133.05V7.65244H140.211V12.0582H133.05V15.1887H141.655V15.1307Z" fill="#CC0000"/>
<path d="M148.007 0.116211L151.587 6.37708L155.168 0.116211H161L154.417 10.1452L160.769 19.8843H154.937L151.587 13.9133L148.238 19.8843H142.405L148.758 10.1452L142.174 0.116211H148.007Z" fill="#CC0000"/>
</g>
<defs>
<clipPath id="clip0_81_358">
<rect width="161" height="24" fill="white"/>
</clipPath>
</defs>
</svg>
