<svg width="198" height="30" viewBox="0 0 198 30" fill="none" xmlns="http://www.w3.org/2000/svg">
<g clip-path="url(#clip0_91_634)">
<path d="M2.13295 20.2294C2.40818 21.7431 3.5779 22.5 5.4357 22.5C7.08708 22.5 8.18799 21.8119 8.18799 20.8486C8.18799 20.0229 7.63753 19.5413 6.46781 19.3349L3.92194 18.922C1.6513 18.5092 0.481571 17.4771 0.481571 15.6881C0.481571 13.4862 2.40818 12.1101 5.22928 12.1101C6.53662 12.1101 7.63754 12.3853 8.66965 13.0046C9.63295 13.6239 10.1834 14.5872 10.321 15.8945H8.18799C7.98157 14.5872 6.88065 13.8991 5.22928 13.8991C3.64671 13.8991 2.68341 14.5872 2.68341 15.4817C2.68341 16.3073 3.30267 16.789 4.61001 17.0642L6.81185 17.4083C9.08249 17.8211 10.2522 18.922 10.2522 20.711C10.2522 22.9817 8.18799 24.4266 5.22928 24.4266C2.20175 24.4266 0.137534 23.1193 -0.137695 20.2982L2.13295 20.2294Z" fill="#333333"/>
<path d="M12.1787 8.11926C12.1787 7.29358 12.798 6.67431 13.6925 6.67431C14.5182 6.67431 15.2062 7.29358 15.2062 8.11926C15.2062 8.94495 14.5182 9.56422 13.6925 9.56422C12.798 9.56422 12.1787 8.94495 12.1787 8.11926ZM14.8622 23.945H12.5916V12.3853H14.8622V23.945Z" fill="#333333"/>
<path d="M35.2292 13.555C36.1237 14.5183 36.6053 15.8257 36.6053 17.4771V24.0138H34.4035V17.6147C34.4035 15.4128 33.3026 14.1743 31.3072 14.1743C29.9998 14.1743 28.9677 14.7936 28.142 16.1009C28.2108 16.5138 28.2796 16.9954 28.2796 17.5459V24.0826H26.009V17.6835C26.009 15.4816 24.9081 14.2431 22.9127 14.2431C21.7429 14.2431 20.7108 14.8624 19.8851 16.1009V24.1514H17.6145V12.3853H19.8851V13.4174C20.7796 12.4541 21.9494 11.9725 23.3255 11.9725C24.9769 11.9725 26.2842 12.5917 27.2475 13.8991C28.4861 12.5917 29.9998 11.9725 31.72 11.9725C33.165 12.0413 34.3347 12.5229 35.2292 13.555Z" fill="#333333"/>
<path d="M49.1971 13.8991C50.3668 15.0688 50.9173 16.5138 50.9173 18.2339C50.9173 19.8853 50.3668 21.3303 49.1971 22.5688C48.0274 23.7385 46.6512 24.3578 44.9998 24.3578C43.4861 24.3578 42.1787 23.945 41.1466 23.0505V30.1376H38.876V12.3853H41.1466V13.4174C42.1787 12.5229 43.4861 12.1101 44.9998 12.1101C46.6512 12.1101 48.0274 12.7294 49.1971 13.8991ZM47.4769 21.055C48.2338 20.2294 48.6466 19.2661 48.6466 18.1651C48.6466 17.0642 48.3026 16.1009 47.4769 15.2752C46.72 14.4495 45.7567 14.0367 44.6558 14.0367C43.142 14.0367 41.9723 14.656 41.1466 15.8945V20.2982C42.0411 21.5367 43.2108 22.156 44.6558 22.156C45.8255 22.2936 46.72 21.8807 47.4769 21.055Z" fill="#333333"/>
<path d="M55.0458 23.945H52.7751V6.39908H55.0458V23.945Z" fill="#333333"/>
<path d="M61.6514 30H59.2431L61.7202 24.4954L55.8716 12.3853H58.3487L62.8899 21.8119L67.0872 12.3853H69.4954L61.6514 30Z" fill="#333333"/>
<path d="M67.844 22.9128C67.844 22.0872 68.5321 21.4679 69.2889 21.4679C70.1146 21.4679 70.8027 22.0872 70.8027 22.9128C70.8027 23.7385 70.1146 24.3578 69.2889 24.3578C68.5321 24.3578 67.844 23.7385 67.844 22.9128Z" fill="#333333"/>
<path d="M71.4219 22.9128C71.4219 22.0872 72.1099 21.4679 72.8668 21.4679C73.6925 21.4679 74.3806 22.0872 74.3806 22.9128C74.3806 23.7385 73.6925 24.3578 72.8668 24.3578C72.1099 24.3578 71.4219 23.7385 71.4219 22.9128Z" fill="#333333"/>
<path d="M74.9312 22.9128C74.9312 22.0872 75.6192 21.4679 76.3761 21.4679C77.2018 21.4679 77.8899 22.0872 77.8899 22.9128C77.8899 23.7385 77.2018 24.3578 76.3761 24.3578C75.6192 24.3578 74.9312 23.7385 74.9312 22.9128Z" fill="#333333"/>
<path d="M84.3577 23.945V0.481651H102.041V5.77982H90.1375V11.1468H100.183V16.3761H90.1375V23.945H84.3577Z" fill="#CC0000"/>
<path d="M116.353 24.4954C112.638 24.4954 109.541 23.3945 107.202 21.1239C104.862 18.8532 103.624 15.8945 103.624 12.3165C103.624 8.73853 104.793 5.77981 107.133 3.50917C109.472 1.23853 112.569 0.0688057 116.353 0.0688057C120.138 0.0688057 123.165 1.16972 125.573 3.44037C127.913 5.71101 129.151 8.66972 129.151 12.3165C129.151 15.8945 127.982 18.8532 125.642 21.1239C123.234 23.3257 120.138 24.4954 116.353 24.4954ZM111.537 17.2018C112.775 18.4404 114.358 19.0596 116.353 19.0596C118.349 19.0596 120 18.4404 121.17 17.2018C122.408 15.9633 123.027 14.3119 123.027 12.2477C123.027 10.1835 122.408 8.53211 121.238 7.29358C120 6.05504 118.417 5.43578 116.353 5.43578C114.358 5.43578 112.775 6.05504 111.537 7.29358C110.298 8.53211 109.679 10.1835 109.679 12.2477C109.679 14.3119 110.298 15.8945 111.537 17.2018Z" fill="#CC0000"/>
<path d="M153.027 23.945H146.009L141.812 17.7523H141.674H138.234V23.945H132.454V0.481651H142.156C145.39 0.481651 147.867 1.23853 149.587 2.68349C151.307 4.19725 152.133 6.33028 152.133 9.08257C152.133 12.7294 150.688 15.2752 147.729 16.5826L153.027 23.945ZM138.165 5.50459V12.9358H141.537C143.05 12.9358 144.151 12.5917 144.908 11.9725C145.665 11.3532 146.009 10.4587 146.009 9.42661C146.009 8.05046 145.665 7.08716 144.977 6.46789C144.289 5.84862 143.188 5.50459 141.674 5.50459H138.165Z" fill="#CC0000"/>
<path d="M155.229 23.945V0.481651H172.982V5.57339H160.871V9.97706H171.055V14.7936H160.871V18.8532H173.394V23.945H155.229Z" fill="#CC0000"/>
<path d="M197.959 23.945H191.147L186.261 16.1697L181.514 23.945H174.702L182.27 11.9725L174.908 0.481651H181.72L186.33 7.98165L190.94 0.481651H197.615L190.39 11.9725L197.959 23.945Z" fill="#CC0000"/>
</g>
<defs>
<clipPath id="clip0_91_634">
<rect width="197.959" height="30" fill="white"/>
</clipPath>
</defs>
</svg>
