<svg width="159" height="24" viewBox="0 0 159 24" fill="none" xmlns="http://www.w3.org/2000/svg">
<g clip-path="url(#clip0_91_650)">
<path d="M1.70641 16.1834C1.92659 17.3944 2.86237 17.9999 4.34861 17.9999C5.66971 17.9999 6.55044 17.4495 6.55044 16.6788C6.55044 16.0183 6.11008 15.6329 5.1743 15.4678L3.1376 15.1375C1.32109 14.8073 0.385305 13.9816 0.385305 12.5504C0.385305 10.7889 1.92659 9.68799 4.18347 9.68799C5.22934 9.68799 6.11008 9.90817 6.93576 10.4036C7.70641 10.899 8.14677 11.6696 8.25687 12.7155H6.55044C6.38531 11.6696 5.50457 11.1192 4.18347 11.1192C2.91742 11.1192 2.14677 11.6696 2.14677 12.3852C2.14677 13.0458 2.64219 13.4311 3.68806 13.6513L5.44953 13.9265C7.26604 14.2568 8.20182 15.1375 8.20182 16.5687C8.20182 18.3852 6.55044 19.5412 4.18347 19.5412C1.76145 19.5412 0.110076 18.4953 -0.110107 16.2384L1.70641 16.1834Z" fill="white"/>
<path d="M9.74316 6.49532C9.74316 5.83477 10.2386 5.33936 10.9542 5.33936C11.6147 5.33936 12.1652 5.83477 12.1652 6.49532C12.1652 7.15587 11.6147 7.65128 10.9542 7.65128C10.2386 7.65128 9.74316 7.15587 9.74316 6.49532ZM11.89 19.1559H10.0734V9.90816H11.89V19.1559Z" fill="white"/>
<path d="M28.1835 10.8439C28.8991 11.6146 29.2845 12.6604 29.2845 13.9816V19.2109H27.523V14.0916C27.523 12.3302 26.6423 11.3393 25.0459 11.3393C24.0001 11.3393 23.1744 11.8348 22.5138 12.8806C22.5689 13.2109 22.6239 13.5962 22.6239 14.0366V19.266H20.8074V14.1467C20.8074 12.3852 19.9267 11.3944 18.3303 11.3944C17.3945 11.3944 16.5689 11.8898 15.9083 12.8806V19.321H14.0918V9.90816H15.9083V10.7338C16.6239 9.9632 17.5597 9.57788 18.6606 9.57788C19.9817 9.57788 21.0276 10.0733 21.7982 11.1192C22.789 10.0733 24.0001 9.57788 25.3762 9.57788C26.5322 9.63293 27.4679 10.0182 28.1835 10.8439Z" fill="white"/>
<path d="M39.3577 11.1192C40.2935 12.055 40.7339 13.2109 40.7339 14.5871C40.7339 15.9082 40.2935 17.0641 39.3577 18.055C38.4219 18.9907 37.321 19.4862 35.9999 19.4862C34.7889 19.4862 33.743 19.1559 32.9173 18.4403V24.11H31.1008V9.90817H32.9173V10.7339C33.743 10.0183 34.7889 9.68799 35.9999 9.68799C37.321 9.68799 38.4219 10.1834 39.3577 11.1192ZM37.9816 16.844C38.5871 16.1834 38.9173 15.4128 38.9173 14.532C38.9173 13.6513 38.6421 12.8806 37.9816 12.2201C37.3761 11.5595 36.6054 11.2293 35.7247 11.2293C34.5137 11.2293 33.5779 11.7247 32.9173 12.7155V16.2384C33.6329 17.2293 34.5687 17.7247 35.7247 17.7247C36.6605 17.8348 37.3761 17.5045 37.9816 16.844Z" fill="white"/>
<path d="M44.0367 19.1558H42.2202V5.11914H44.0367V19.1558Z" fill="white"/>
<path d="M49.3211 23.9999H47.3945L49.3762 19.5963L44.6973 9.9082H46.6789L50.3119 17.4495L53.6697 9.9082H55.5963L49.3211 23.9999Z" fill="white"/>
<path d="M54.2751 18.3303C54.2751 17.6697 54.8256 17.1743 55.4311 17.1743C56.0917 17.1743 56.6421 17.6697 56.6421 18.3303C56.6421 18.9908 56.0917 19.4862 55.4311 19.4862C54.8256 19.4862 54.2751 18.9908 54.2751 18.3303Z" fill="white"/>
<path d="M57.1377 18.3303C57.1377 17.6697 57.6882 17.1743 58.2937 17.1743C58.9542 17.1743 59.5047 17.6697 59.5047 18.3303C59.5047 18.9908 58.9542 19.4862 58.2937 19.4862C57.6882 19.4862 57.1377 18.9908 57.1377 18.3303Z" fill="white"/>
<path d="M59.9448 18.3303C59.9448 17.6697 60.4953 17.1743 61.1008 17.1743C61.7613 17.1743 62.3118 17.6697 62.3118 18.3303C62.3118 18.9908 61.7613 19.4862 61.1008 19.4862C60.4953 19.4862 59.9448 18.9908 59.9448 18.3303Z" fill="white"/>
<path d="M67.4863 19.1559V0.385254H81.6331V4.62379H72.1102V8.91737H80.1469V13.1009H72.1102V19.1559H67.4863Z" fill="#CC0000"/>
<path d="M93.0827 19.5962C90.1102 19.5962 87.6331 18.7155 85.7616 16.899C83.89 15.0825 82.8992 12.7155 82.8992 9.8531C82.8992 6.99071 83.8349 4.62374 85.7065 2.80723C87.5781 0.990712 90.0551 0.0549316 93.0827 0.0549316C96.1102 0.0549316 98.5322 0.935666 100.459 2.75218C102.33 4.56869 103.321 6.93567 103.321 9.8531C103.321 12.7155 102.385 15.0825 100.514 16.899C98.5872 18.6604 96.1102 19.5962 93.0827 19.5962ZM89.2294 13.7614C90.2203 14.7522 91.4863 15.2476 93.0827 15.2476C94.679 15.2476 96.0001 14.7522 96.9359 13.7614C97.9267 12.7705 98.4221 11.4494 98.4221 9.79805C98.4221 8.14667 97.9267 6.82557 96.9909 5.83475C96.0001 4.84392 94.734 4.34851 93.0827 4.34851C91.4863 4.34851 90.2203 4.84392 89.2294 5.83475C88.2386 6.82557 87.7432 8.14667 87.7432 9.79805C87.7432 11.4494 88.2386 12.7155 89.2294 13.7614Z" fill="#CC0000"/>
<path d="M122.422 19.1559H116.807L113.45 14.2018H113.34H110.587V19.1559H105.963V0.385254H113.725C116.312 0.385254 118.294 0.990759 119.67 2.14672C121.046 3.35773 121.707 5.06415 121.707 7.26599C121.707 10.1834 120.551 12.2201 118.184 13.266L122.422 19.1559ZM110.532 4.4036V10.3486H113.229C114.44 10.3486 115.321 10.0733 115.927 9.57791C116.532 9.0825 116.807 8.36691 116.807 7.54122C116.807 6.4403 116.532 5.66966 115.982 5.17424C115.431 4.67883 114.551 4.4036 113.34 4.4036H110.532Z" fill="#CC0000"/>
<path d="M124.184 19.1559V0.385254H138.385V4.45865H128.697V7.98158H136.844V11.8348H128.697V15.0825H138.716V19.1559H124.184Z" fill="#CC0000"/>
<path d="M158.367 19.1559H152.917L149.009 12.9357L145.211 19.1559H139.761L145.817 9.57791L139.927 0.385254H145.376L149.064 6.38525L152.752 0.385254H158.092L152.312 9.57791L158.367 19.1559Z" fill="#CC0000"/>
</g>
<defs>
<clipPath id="clip0_91_650">
<rect width="158.367" height="24" fill="white"/>
</clipPath>
</defs>
</svg>
