<svg width="161" height="24" viewBox="0 0 161 24" fill="none" xmlns="http://www.w3.org/2000/svg">
<g clip-path="url(#clip0_25_183)">
<path d="M8.71986 8.86957C7.85365 7.94203 6.64095 7.42029 5.13952 7.42029C3.86907 7.42029 2.94511 7.65218 2.36764 8.17391C1.79016 8.63768 1.50143 9.33333 1.50143 10.1449C1.50143 10.5507 1.55917 10.8986 1.73242 11.1884C1.90566 11.4783 2.13665 11.7101 2.42539 11.8841C2.71412 12.058 3.11836 12.2319 3.63808 12.4058C4.10006 12.5217 4.67754 12.6957 5.37051 12.8116C6.06348 12.9855 6.6987 13.1014 7.27618 13.2754C7.85365 13.4493 8.31563 13.6812 8.71986 13.971C9.12409 14.2609 9.41283 14.5507 9.64382 14.9565C9.87481 15.3623 9.99031 15.8261 9.99031 16.4058C9.99031 16.9855 9.87481 17.5072 9.64382 17.913C9.41283 18.3188 9.12409 18.7246 8.66212 19.0145C8.25788 19.3043 7.73815 19.5362 7.16068 19.6522C6.58321 19.8261 5.94798 19.8841 5.25501 19.8841C3.23385 19.8841 1.50143 19.2464 0.0577393 17.913L0.577467 17.1594C1.15494 17.7391 1.79016 18.2029 2.59863 18.5507C3.34935 18.9565 4.21556 19.1304 5.25501 19.1304C6.40996 19.1304 7.27618 18.8986 7.96915 18.4928C8.60437 18.087 8.95085 17.4493 8.95085 16.5797C8.95085 16.1739 8.83536 15.7681 8.71986 15.4783C8.54662 15.1884 8.31563 14.8986 7.96915 14.6667C7.62266 14.4348 7.21843 14.2609 6.6987 14.087C6.17897 13.913 5.6015 13.7971 4.90853 13.6232C4.04232 13.5072 3.46484 13.3913 2.88737 13.2174C2.30989 13.0435 1.90566 12.8116 1.55917 12.5797C1.21269 12.3478 0.923952 12 0.750709 11.6522C0.577467 11.3043 0.461972 10.8406 0.461972 10.3188C0.461972 9.73913 0.577467 9.21739 0.808457 8.75362C1.03945 8.28986 1.32818 7.88406 1.73242 7.5942C2.13665 7.30435 2.59863 7.01449 3.1761 6.89855C3.75358 6.72464 4.3888 6.66667 5.08177 6.66667C5.94798 6.66667 6.6987 6.78261 7.33392 7.07246C8.02689 7.30435 8.60437 7.71015 9.12409 8.23189L8.71986 8.86957Z" fill="#333333"/>
<path d="M11.9537 8.05797V6.37681H12.8777V8.05797H11.9537ZM11.9537 19.8841V10.2029H12.8777V19.8261H11.9537V19.8841Z" fill="#333333"/>
<path d="M29.9132 19.8841H28.9892V14.4928C28.9892 13.2754 28.816 12.3478 28.4118 11.7681C28.0075 11.1884 27.4878 10.8985 26.6793 10.8985C26.2751 10.8985 25.9286 10.9565 25.5244 11.1304C25.1779 11.3043 24.8314 11.4783 24.5427 11.7681C24.2539 12.058 23.9652 12.3478 23.792 12.6957C23.561 13.0435 23.3877 13.4493 23.2722 13.913V19.8841H22.3483V14.4928C22.3483 13.2754 22.175 12.3478 21.7708 11.7681C21.4243 11.1884 20.8468 10.8985 20.0384 10.8985C19.6341 10.8985 19.2876 10.9565 18.9412 11.1304C18.5947 11.2464 18.2482 11.4783 17.9595 11.7681C17.6707 12.058 17.382 12.3478 17.151 12.6957C16.92 13.0435 16.7468 13.4493 16.6313 13.913V19.8841H15.7073V10.2029H16.5735V12.5217C16.9778 11.7681 17.4975 11.1304 18.1327 10.7246C18.7679 10.3188 19.4609 10.087 20.2694 10.087C21.0778 10.087 21.713 10.3188 22.2328 10.7826C22.7525 11.2464 23.0412 11.8841 23.1567 12.6957C24.0807 10.9565 25.3511 10.087 26.9103 10.087C27.9498 10.087 28.7005 10.4348 29.1625 11.1884C29.6245 11.942 29.8554 12.9855 29.8554 14.3188V19.8841H29.9132Z" fill="#333333"/>
<path d="M37.4204 20.058C36.6119 20.058 35.8612 19.8261 35.226 19.4203C34.5907 19.0145 34.071 18.4348 33.6668 17.7971V23.8261H32.7428V10.2029H33.609V12.1739C34.0133 11.5362 34.533 11.0725 35.1682 10.6667C35.8034 10.2609 36.4964 10.087 37.2471 10.087C37.9401 10.087 38.5176 10.2029 39.095 10.4928C39.6725 10.7826 40.1345 11.1304 40.5387 11.5942C40.943 12.058 41.2895 12.5797 41.4627 13.2174C41.6359 13.8551 41.8092 14.4348 41.8092 15.0725C41.8092 15.7681 41.6937 16.4058 41.5204 16.9855C41.2895 17.5652 41.0007 18.1449 40.5965 18.6087C40.1923 19.0725 39.7303 19.4203 39.2105 19.7101C38.6908 20 38.0556 20.058 37.4204 20.058ZM37.1894 19.2464C37.7669 19.2464 38.2288 19.1304 38.6908 18.8985C39.1528 18.6667 39.557 18.3768 39.8458 17.971C40.1923 17.5652 40.4232 17.1594 40.5965 16.6377C40.7697 16.1159 40.8275 15.6522 40.8275 15.1304C40.8275 14.5507 40.712 14.029 40.5387 13.5652C40.3655 13.0435 40.0768 12.6377 39.7303 12.2319C39.3838 11.8261 38.9796 11.5362 38.5176 11.3043C38.0556 11.0725 37.5359 10.9565 37.0161 10.9565C36.6697 10.9565 36.3232 11.0145 35.9767 11.1884C35.5725 11.3043 35.226 11.5362 34.9372 11.7681C34.6485 12 34.302 12.2899 34.071 12.5797C33.84 12.8696 33.7245 13.2174 33.6668 13.5652V16.7536C33.84 17.1014 34.0133 17.4493 34.302 17.7391C34.533 18.029 34.8217 18.3188 35.1105 18.5507C35.3992 18.7826 35.7457 18.9565 36.0922 19.0725C36.4387 19.1304 36.7852 19.2464 37.1894 19.2464Z" fill="#333333"/>
<path d="M44.1191 6.31884H45.043V17.971C45.043 18.3188 45.1585 18.6087 45.3318 18.8406C45.5628 19.0725 45.7938 19.1304 46.198 19.1304C46.3135 19.1304 46.4867 19.1304 46.66 19.0725C46.8332 19.0145 47.0065 19.0145 47.1797 18.9565L47.3529 19.7101C47.122 19.7681 46.891 19.8841 46.6022 19.942C46.3135 20 46.0248 20 45.7938 20C45.274 20 44.8698 19.8261 44.5233 19.5362C44.1768 19.2464 44.0613 18.7826 44.0613 18.2609V6.31884H44.1191Z" fill="#333333"/>
<path d="M49.4318 23.1304C49.4896 23.1304 49.6051 23.1304 49.7206 23.1304C49.8361 23.1304 49.9516 23.1304 50.0671 23.1304C50.1826 23.1304 50.298 23.0725 50.3558 23.0145C50.4135 22.9565 50.4713 22.8986 50.5868 22.8406C50.6445 22.7826 50.76 22.6087 50.8178 22.4348C50.9333 22.2029 51.0488 21.913 51.222 21.5072C51.3952 21.1014 51.6262 20.5217 51.915 19.8261L47.6417 10.2029H48.6234L52.4347 18.9565L56.015 10.2029H56.939L51.684 22.8986C51.5685 23.2464 51.3375 23.5362 51.0488 23.7101C50.76 23.8841 50.3558 24 49.8361 24C49.7783 24 49.7206 24 49.6628 24C49.6051 24 49.5473 24 49.4896 24V23.1304H49.4318Z" fill="#333333"/>
<path d="M58.5559 19.8841V18.3188H59.3644V19.8841H58.5559Z" fill="#333333"/>
<path d="M61.8476 19.8841V18.3188H62.656V19.8841H61.8476Z" fill="#333333"/>
<path d="M65.1392 19.8841V18.3188H65.9476V19.8841H65.1392Z" fill="#333333"/>
<path d="M72.0688 19.8841V0.115944H85.5818V4.86957H77.4971V8.11594H84.0803V12.5217H77.4971V19.8841H72.0688Z" fill="#CC0000"/>
<path d="M96.5538 20.058C95.0523 20.058 93.7242 19.7681 92.4537 19.1884C91.241 18.6087 90.2016 17.8551 89.3353 16.9275C88.4691 16 87.7762 14.8986 87.3142 13.7391C86.8522 12.5217 86.6212 11.3043 86.6212 10.029C86.6212 8.75362 86.8522 7.47826 87.3719 6.26087C87.8917 5.04348 88.5846 4 89.4508 3.07246C90.3748 2.14493 91.4143 1.44928 92.627 0.869566C93.8396 0.347827 95.2256 0.057972 96.6693 0.057972C98.1707 0.057972 99.4989 0.347827 100.769 0.927537C101.982 1.50725 103.022 2.26087 103.888 3.18841C104.754 4.11594 105.447 5.21739 105.909 6.43478C106.371 7.65217 106.602 8.86957 106.602 10.1449C106.602 11.4203 106.371 12.6957 105.851 13.913C105.331 15.1304 104.638 16.1739 103.772 17.1014C102.906 18.029 101.809 18.7826 100.596 19.3043C99.3834 19.7681 97.9975 20.058 96.5538 20.058ZM92.1072 10.029C92.1072 10.7246 92.2227 11.3623 92.396 11.942C92.5692 12.5797 92.8579 13.1014 93.2044 13.6232C93.5509 14.087 94.0129 14.4928 94.5904 14.7826C95.1678 15.0725 95.8031 15.2464 96.6115 15.2464C97.3623 15.2464 98.0552 15.0725 98.6327 14.7826C99.2102 14.4928 99.6721 14.087 100.019 13.5652C100.365 13.1014 100.654 12.5217 100.827 11.8841C101 11.2464 101.116 10.6087 101.116 9.97101C101.116 9.27536 101 8.63768 100.827 8.05797C100.654 7.42029 100.365 6.89855 99.9609 6.43478C99.5567 5.97102 99.0947 5.56522 98.5749 5.27536C97.9975 4.98551 97.3623 4.86957 96.6115 4.86957C95.8608 4.86957 95.1678 5.04348 94.5904 5.33333C94.0129 5.62319 93.5509 6.02899 93.2044 6.49275C92.8579 6.95652 92.5692 7.53623 92.396 8.17391C92.165 8.75362 92.1072 9.3913 92.1072 10.029Z" fill="#CC0000"/>
<path d="M108.912 19.8841V0.115944H117.92C118.902 0.115944 119.768 0.289857 120.577 0.695654C121.385 1.10145 122.078 1.62319 122.656 2.26087C123.233 2.89855 123.695 3.65218 124.042 4.46377C124.388 5.27536 124.561 6.14493 124.561 6.95652C124.561 8.11594 124.33 9.15942 123.811 10.1449C123.291 11.1304 122.598 11.942 121.732 12.5797L125.89 19.8261H119.768L116.303 13.7391H114.282V19.8261H108.912V19.8841ZM114.282 9.04348H117.689C118.036 9.04348 118.325 8.86957 118.613 8.46377C118.902 8.11594 119.018 7.5942 119.018 6.89855C119.018 6.2029 118.844 5.68116 118.498 5.33333C118.151 4.98551 117.805 4.8116 117.516 4.8116H114.225V9.04348H114.282Z" fill="#CC0000"/>
<path d="M141.655 15.1304V19.8841H127.622V0.115944H141.424V4.86957H133.05V7.65218H140.211V12.058H133.05V15.1884H141.655V15.1304Z" fill="#CC0000"/>
<path d="M148.007 0.115944L151.587 6.37681L155.168 0.115944H161L154.417 10.1449L160.769 19.8841H154.937L151.587 13.913L148.238 19.8841H142.405L148.758 10.1449L142.174 0.115944H148.007Z" fill="#CC0000"/>
</g>
<defs>
<clipPath id="clip0_25_183">
<rect width="161" height="24" fill="white"/>
</clipPath>
</defs>
</svg>
