<svg width="50" height="50" viewBox="0 0 50 50" fill="none" xmlns="http://www.w3.org/2000/svg">
<g clip-path="url(#clip0_60_158)">
<path d="M42.6776 7.32236C37.9558 2.60049 31.6777 0 25 0C18.3223 0 12.0442 2.60049 7.32236 7.32236C2.60049 12.0442 0 18.3223 0 25C0 28.5468 0.727734 31.9742 2.16309 35.1871C3.54951 38.2905 5.52285 41.0393 8.02832 43.3567C8.3248 43.6311 8.78779 43.6131 9.06221 43.3164C9.33652 43.0198 9.31855 42.5569 9.02188 42.2825C6.6624 40.1001 4.80439 37.512 3.49902 34.5902C2.14824 31.5664 1.46328 28.3397 1.46328 25C1.46328 18.7131 3.91152 12.8025 8.35703 8.35703C12.8025 3.91162 18.7131 1.46338 25 1.46338C31.2869 1.46338 37.1975 3.91162 41.643 8.35713C46.0885 12.8026 48.5367 18.7131 48.5367 25C48.5367 31.2869 46.0885 37.1975 41.643 41.643C37.1975 46.0885 31.2869 48.5366 25 48.5366C20.174 48.5366 15.5361 47.0869 11.5881 44.3441C11.2562 44.1135 10.8002 44.1957 10.5698 44.5276C10.3393 44.8595 10.4214 45.3154 10.7532 45.5459C14.9477 48.4598 19.8741 50 25 50C31.6777 50 37.9558 47.3996 42.6776 42.6776C47.3995 37.9558 50 31.6777 50 25C50 18.3223 47.3995 12.0442 42.6776 7.32236Z" fill="#333333"/>
<path d="M39.5258 35.5509C39.2401 35.2651 38.7768 35.2651 38.4912 35.5509C38.2053 35.8366 38.2053 36.2998 38.4911 36.5855L39.3327 37.4272C39.5928 37.6874 39.9444 37.832 40.3096 37.832C40.3425 37.832 40.3755 37.8309 40.4086 37.8285C40.8108 37.7997 41.1803 37.5977 41.4224 37.2741C44.0905 33.7083 45.5006 29.4642 45.5007 25.0003C45.5007 19.5301 43.3667 14.3835 39.4916 10.5085C35.6166 6.6335 30.4699 4.49941 24.9998 4.49951C20.536 4.49961 16.2918 5.90986 12.726 8.57783C12.4025 8.81992 12.2004 9.18936 12.1716 9.5916C12.1429 9.9917 12.2893 10.3839 12.5729 10.6675L13.3741 11.4688C13.6598 11.7545 14.1231 11.7545 14.4088 11.4688C14.6946 11.183 14.6946 10.7197 14.4088 10.434L13.6724 9.69756C16.9687 7.2541 20.8836 5.96299 24.9998 5.96289C30.0791 5.96279 34.8582 7.94463 38.4569 11.5433C42.0556 15.1419 44.0375 19.9211 44.0375 25.0004C44.0374 29.1166 42.7462 33.0316 40.3027 36.3279L39.5258 35.5509Z" fill="#333333"/>
<path d="M10.5809 14.5558C10.8666 14.8416 11.3297 14.8415 11.6156 14.5558C11.9013 14.2701 11.9013 13.8069 11.6155 13.5211L10.6673 12.573C10.3837 12.2893 9.99155 12.1432 9.59145 12.1717C9.18921 12.2005 8.81968 12.4026 8.57759 12.7261C5.90952 16.2919 4.49937 20.5361 4.49927 24.9999C4.49927 30.4702 6.63335 35.6167 10.5083 39.4917C14.3833 43.3667 19.53 45.5008 25.0002 45.5007C29.464 45.5007 33.7083 44.0904 37.274 41.4224C37.5975 41.1803 37.7997 40.8109 37.8284 40.4086C37.8571 40.0085 37.7107 39.6164 37.4271 39.3328L36.6259 38.5315C36.3402 38.2458 35.8769 38.2458 35.5913 38.5315C35.3054 38.8172 35.3054 39.2805 35.5912 39.5663L36.3276 40.3027C33.0313 42.7462 29.1165 44.0374 25.0002 44.0374C19.9209 44.0374 15.1417 42.0556 11.543 38.457C7.94429 34.8584 5.96255 30.0791 5.96255 24.9999C5.96265 20.8836 7.25386 16.9686 9.69731 13.6723L10.5809 14.5558Z" fill="#333333"/>
<path d="M22.1072 17.1005C22.1072 15.3992 20.723 14.0149 19.0216 14.0149C17.3201 14.0149 15.9359 15.3991 15.9359 17.1005C15.9359 18.802 17.3202 20.1863 19.0216 20.1863C20.7229 20.1863 22.1072 18.802 22.1072 17.1005ZM17.3992 17.1005C17.3992 16.206 18.127 15.4782 19.0216 15.4782C19.9161 15.4782 20.6439 16.206 20.6439 17.1005C20.6439 17.9952 19.9161 18.723 19.0216 18.723C18.127 18.723 17.3992 17.9952 17.3992 17.1005Z" fill="#333333"/>
<path d="M24.8835 17.1006C24.8835 13.8684 22.2539 11.2388 19.0216 11.2388C15.7894 11.2388 13.1598 13.8684 13.1598 17.1006C13.1598 20.3328 15.7894 22.9624 19.0216 22.9624C22.2538 22.9624 24.8835 20.3328 24.8835 17.1006ZM14.6231 17.1006C14.6231 14.6752 16.5962 12.7021 19.0216 12.7021C21.447 12.7021 23.4202 14.6752 23.4202 17.1006C23.4202 19.526 21.447 21.4991 19.0216 21.4991C16.5962 21.4991 14.6231 19.526 14.6231 17.1006Z" fill="#333333"/>
<path d="M30.9784 38.7612C34.2106 38.7612 36.8402 36.1316 36.8402 32.8994C36.8402 29.6672 34.2106 27.0376 30.9784 27.0376C27.7461 27.0376 25.1165 29.6672 25.1165 32.8994C25.1165 36.1316 27.7461 38.7612 30.9784 38.7612ZM30.9784 28.5009C33.4038 28.5009 35.3769 30.4741 35.3769 32.8994C35.3769 35.3248 33.4038 37.2979 30.9784 37.2979C28.553 37.2979 26.5797 35.3248 26.5797 32.8994C26.5797 30.474 28.553 28.5009 30.9784 28.5009Z" fill="#333333"/>
<path d="M30.9785 35.9851C32.6799 35.9851 34.0641 34.6009 34.0641 32.8995C34.0641 31.198 32.6798 29.8137 30.9785 29.8137C29.2771 29.8137 27.8928 31.198 27.8928 32.8995C27.8928 34.6008 29.277 35.9851 30.9785 35.9851ZM30.9785 31.277C31.873 31.277 32.6008 32.0048 32.6008 32.8995C32.6008 33.794 31.873 34.5218 30.9785 34.5218C30.0839 34.5218 29.3561 33.794 29.3561 32.8995C29.3561 32.0048 30.0839 31.277 30.9785 31.277Z" fill="#333333"/>
<path d="M16.776 37.3178C17.1258 37.5513 17.5324 37.6748 17.9517 37.6748C18.6622 37.6748 19.3217 37.3223 19.716 36.7319L30.8629 20.0362C31.0873 19.7001 30.9968 19.2458 30.6607 19.0214C30.3247 18.797 29.8704 18.8875 29.646 19.2237L18.499 35.9193C18.3769 36.1022 18.1722 36.2114 17.9517 36.2114C17.8225 36.2114 17.6968 36.1731 17.5885 36.1007C17.2874 35.8998 17.2061 35.4913 17.4071 35.1902L31.5011 14.0805C31.7021 13.7796 32.1106 13.6981 32.4116 13.899C32.7126 14.1 32.794 14.5084 32.5931 14.8094L31.501 16.4445C31.2766 16.7805 31.3669 17.2348 31.703 17.4592C32.0391 17.6836 32.4934 17.5932 32.7177 17.2572L33.8099 15.6219C34.4588 14.6499 34.196 13.331 33.224 12.682C32.252 12.0332 30.9331 12.2959 30.284 13.2679L16.1901 34.3779C15.5412 35.3499 15.804 36.6688 16.776 37.3178Z" fill="#333333"/>
</g>
<defs>
<clipPath id="clip0_60_158">
<rect width="50" height="50" fill="white"/>
</clipPath>
</defs>
</svg>
