<svg width="20" height="20" viewBox="0 0 20 20" fill="none" xmlns="http://www.w3.org/2000/svg">
<path d="M8.74682 17.4972C13.5775 17.4972 17.4937 13.5812 17.4937 8.75042C17.4937 3.91966 13.5776 0.00363159 8.74682 0.00363159C3.91606 0.00363159 -5.72205e-06 3.9197 -5.72205e-06 8.75046C-5.72205e-06 13.5812 3.91611 17.4972 8.74682 17.4972ZM8.74682 2.50274C12.1974 2.50274 14.9945 5.29992 14.9945 8.75046C14.9945 12.201 12.1974 14.9982 8.74682 14.9982C5.29629 14.9982 2.4991 12.201 2.4991 8.75046C2.4991 5.29992 5.29633 2.50274 8.74682 2.50274Z" fill="#999999"/>
<path d="M18.7432 19.9963C19.0754 19.9983 19.3946 19.8679 19.6304 19.634C20.1204 19.148 20.1236 18.3568 19.6376 17.8668C19.6352 17.8644 19.6328 17.862 19.6304 17.8596L14.9321 13.1613C14.4249 12.6713 13.6165 12.6853 13.1265 13.1926C12.6365 13.6998 12.6505 14.5082 13.1577 14.9982L17.856 19.634C18.0918 19.8679 18.4111 19.9983 18.7432 19.9963Z" fill="#999999"/>
</svg>
