<svg width="14" height="10" viewBox="0 0 14 10" fill="none" xmlns="http://www.w3.org/2000/svg">
<path d="M11.431 1.23599L7.00029 5.66666L2.56962 1.23599C2.33031 0.996592 2.00569 0.862062 1.66719 0.862C1.32869 0.861937 1.00402 0.996347 0.76462 1.23566C0.525217 1.47497 0.390688 1.79959 0.390625 2.13809C0.390563 2.47659 0.524972 2.80126 0.764286 3.04066L6.76429 9.04066C6.79525 9.0717 6.83203 9.09633 6.87253 9.11313C6.91303 9.12994 6.95644 9.13859 7.00029 9.13859C7.04413 9.13859 7.08754 9.12994 7.12804 9.11313C7.16854 9.09633 7.20532 9.0717 7.23629 9.04066L13.2363 3.04066C13.3548 2.92212 13.4488 2.7814 13.5129 2.62654C13.577 2.47168 13.61 2.3057 13.6099 2.13809C13.6099 1.97048 13.5769 1.80452 13.5127 1.64968C13.4485 1.49484 13.3545 1.35416 13.236 1.23566C13.1174 1.11716 12.9767 1.02318 12.8218 0.959064C12.667 0.894951 12.501 0.861969 12.3334 0.862C11.9949 0.862062 11.6703 0.996592 11.431 1.23599Z" fill="#999999"/>
</svg>
