<svg width="100" height="100" viewBox="0 0 100 100" fill="none" xmlns="http://www.w3.org/2000/svg">
<path d="M94.573 4.11523H5.42697C2.43458 4.11523 0 6.54962 0 9.54201V18.7688C0 19.5778 0.655862 20.2337 1.46485 20.2337C2.27384 20.2337 2.9297 19.5778 2.9297 18.7688V9.54201C2.9297 8.16505 4.05002 7.04474 5.42697 7.04474H58.4485V60.1635H2.9297V25.2774C2.9297 24.4684 2.27384 23.8126 1.46485 23.8126C0.655862 23.8126 0 24.4684 0 25.2774V67.9346C0 70.927 2.43458 73.3614 5.42697 73.3614H37.1046L36.0216 85.4327H32.2958C30.4113 85.4327 28.8779 86.9661 28.8779 88.8507V92.4668C28.8779 94.3513 30.4113 95.8847 32.2958 95.8847H67.7036C69.5882 95.8847 71.1216 94.3513 71.1216 92.4668V88.8507C71.1216 86.9661 69.5882 85.4327 67.7036 85.4327H63.9778L62.8948 73.3614H94.5728C97.5652 73.3614 99.9998 70.927 99.9998 67.9346V9.54201C100 6.54962 97.5654 4.11523 94.573 4.11523ZM68.1919 88.8507V92.4668C68.1919 92.7359 67.9727 92.955 67.7036 92.955H32.2958C32.0267 92.955 31.8076 92.7359 31.8076 92.4668V88.8507C31.8076 88.5816 32.0267 88.3624 32.2958 88.3624H67.7036C67.9729 88.3624 68.1919 88.5814 68.1919 88.8507ZM61.0364 85.4327H38.9631L40.0461 73.3614H44.2609V75.2341C44.2609 78.3985 46.8353 80.9728 49.9996 80.9728C53.1639 80.9728 55.7383 78.3983 55.7383 75.2341V73.3614H59.9532L61.0364 85.4327ZM52.8088 73.3614V75.2341C52.8088 76.7831 51.5486 78.0431 49.9998 78.0431C48.451 78.0431 47.1908 76.7829 47.1908 75.2341V73.3614H52.8088ZM94.573 70.4317H5.42697C4.05002 70.4317 2.9297 69.3116 2.9297 67.9346V63.0932H78.7907C79.5997 63.0932 80.2556 62.4373 80.2556 61.6283C80.2556 60.8194 79.5997 60.1635 78.7907 60.1635H61.3782V7.04493H94.573C95.95 7.04493 97.0703 8.16525 97.0703 9.54221V60.1637H85.2994C84.4904 60.1637 83.8345 60.8196 83.8345 61.6285C83.8345 62.4375 84.4904 63.0934 85.2994 63.0934H97.0703V67.9348C97.0703 69.3116 95.95 70.4317 94.573 70.4317Z" fill="#F1F2F6"/>
<path d="M10.3691 53.2973C10.3691 54.1063 11.025 54.7622 11.834 54.7622H51.1064C51.9154 54.7622 52.5713 54.1063 52.5713 53.2973C52.5713 52.4884 51.9154 51.8325 51.1064 51.8325H50.3643V43.8229C50.3643 43.0139 49.7084 42.3581 48.8994 42.3581C48.0904 42.3581 47.4346 43.0139 47.4346 43.8229V51.8325H43.7596V50.6823C43.7596 49.8733 43.1037 49.2175 42.2947 49.2175C41.4857 49.2175 40.8299 49.8733 40.8299 50.6823V51.8325H35.9053V50.6823C35.9053 49.8733 35.2494 49.2175 34.4404 49.2175C33.6314 49.2175 32.9756 49.8733 32.9756 50.6823V51.8325H28.0512V50.6823C28.0512 49.8733 27.3953 49.2175 26.5863 49.2175C25.7773 49.2175 25.1215 49.8733 25.1215 50.6823V51.8325H20.1971V50.6823C20.1971 49.8733 19.5412 49.2175 18.7322 49.2175C17.9232 49.2175 17.2674 49.8733 17.2674 50.6823V51.8325H13.2988V42.9665L20.8998 38.5323L28.2146 41.4403C28.7836 41.6669 29.4336 41.5149 29.8438 41.06L35.35 34.953L37.7209 36.927C38.3402 37.4427 39.2596 37.3614 39.7785 36.745L47.4344 27.6555V37.3141C47.4344 38.1231 48.0902 38.779 48.8992 38.779C49.7082 38.779 50.3641 38.1231 50.3641 37.3141V23.6427C50.3641 23.0274 49.9795 22.4776 49.4016 22.2667C48.8236 22.0555 48.1754 22.2284 47.7789 22.6991L38.4762 33.7436L36.1424 31.8005C35.5383 31.2973 34.6439 31.361 34.1172 31.9452L28.35 38.3415L21.3189 35.5464C20.9006 35.38 20.4287 35.4157 20.0396 35.6423L13.2988 39.5747V26.8081C13.2988 25.9991 12.643 25.3432 11.834 25.3432C11.025 25.3432 10.3691 25.9991 10.3691 26.8081V53.2973Z" fill="#F1F2F6"/>
<path d="M19.3131 30.3847V31.4152C19.3131 32.2242 19.969 32.88 20.778 32.88C21.5869 32.88 22.2428 32.2242 22.2428 31.4152V30.3847C22.2428 29.5757 21.5869 28.9199 20.778 28.9199C19.969 28.9199 19.3131 29.5757 19.3131 30.3847Z" fill="#F1F2F6"/>
<path d="M35.182 28.7882C35.991 28.7882 36.6469 28.1323 36.6469 27.3233V26.2928C36.6469 25.4839 35.991 24.828 35.182 24.828C34.373 24.828 33.7172 25.4839 33.7172 26.2928V27.3233C33.7172 28.1323 34.373 28.7882 35.182 28.7882Z" fill="#F1F2F6"/>
<path d="M48.8997 19.9911C49.7086 19.9911 50.3645 19.3352 50.3645 18.5263V17.4958C50.3645 16.6868 49.7086 16.0309 48.8997 16.0309C48.0907 16.0309 47.4348 16.6868 47.4348 17.4958V18.5263C47.4348 19.3352 48.0907 19.9911 48.8997 19.9911Z" fill="#F1F2F6"/>
<path d="M11.834 14.7631H16.8826C17.6916 14.7631 18.3475 14.1072 18.3475 13.2982C18.3475 12.4892 17.6916 11.8334 16.8826 11.8334H11.834C11.025 11.8334 10.3691 12.4892 10.3691 13.2982C10.3691 14.1072 11.025 14.7631 11.834 14.7631Z" fill="#F1F2F6"/>
<path d="M11.834 20.2571H22.7279C23.5369 20.2571 24.1928 19.6012 24.1928 18.7922C24.1928 17.9833 23.5369 17.3274 22.7279 17.3274H11.834C11.025 17.3274 10.3691 17.9833 10.3691 18.7922C10.3691 19.6012 11.025 20.2571 11.834 20.2571Z" fill="#F1F2F6"/>
<path d="M78.7017 25.7852H80.1136C80.5929 25.7852 80.9827 26.1751 80.9827 26.6544C80.9827 27.1337 80.5929 27.5235 80.1136 27.5235H78.7017C78.3513 27.5235 78.0368 27.3149 77.9003 26.9923C77.5851 26.2472 76.7259 25.8985 75.9804 26.2138C75.2353 26.529 74.8868 27.3886 75.2019 28.1337C75.6972 29.3046 76.73 30.1292 77.9427 30.3751V30.5042C77.9427 31.3132 78.5985 31.969 79.4075 31.969C80.2165 31.969 80.8724 31.3132 80.8724 30.5042V30.3768C82.6046 30.0241 83.9122 28.4893 83.9122 26.6544C83.9122 24.5597 82.2081 22.8556 80.1134 22.8556H78.7015C78.2222 22.8556 77.8323 22.4655 77.8323 21.9864C77.8323 21.5073 78.2222 21.1173 78.7015 21.1173H80.1134C80.4026 21.1173 80.6724 21.2608 80.8349 21.5015C81.2878 22.1718 82.1983 22.3479 82.8688 21.8952C83.5392 21.4423 83.7155 20.5317 83.2626 19.8612C82.6989 19.0268 81.8376 18.4616 80.8724 18.2651V17.9509C80.8724 17.1419 80.2165 16.486 79.4075 16.486C78.5985 16.486 77.9427 17.1419 77.9427 17.9509V18.264C76.2104 18.6167 74.9028 20.1515 74.9028 21.9862C74.9028 24.0811 76.6071 25.7852 78.7017 25.7852Z" fill="#F1F2F6"/>
<path d="M79.4074 36.6215C86.2416 36.6215 91.8016 31.0616 91.8016 24.2274C91.8016 17.3932 86.2416 11.8333 79.4074 11.8333C72.5733 11.8333 67.0133 17.3932 67.0133 24.2274C67.0133 31.0616 72.5735 36.6215 79.4074 36.6215ZM79.4074 14.7631C84.6262 14.7631 88.8719 19.0088 88.8719 24.2276C88.8719 29.4463 84.6262 33.692 79.4074 33.692C74.1887 33.692 69.943 29.4463 69.943 24.2276C69.943 19.0088 74.1889 14.7631 79.4074 14.7631Z" fill="#F1F2F6"/>
<path d="M67.2815 43.08H77.9254C78.7344 43.08 79.3903 42.4242 79.3903 41.6152C79.3903 40.8062 78.7344 40.1503 77.9254 40.1503H67.2815C66.4725 40.1503 65.8167 40.8062 65.8167 41.6152C65.8167 42.4242 66.4725 43.08 67.2815 43.08Z" fill="#F1F2F6"/>
<path d="M85.3845 45.9197C84.5755 45.9197 83.9197 46.5755 83.9197 47.3845C83.9197 48.1935 84.5755 48.8494 85.3845 48.8494H89.9712C90.7802 48.8494 91.4361 48.1935 91.4361 47.3845C91.4361 46.5755 90.7802 45.9197 89.9712 45.9197H85.3845Z" fill="#F1F2F6"/>
<path d="M67.2815 48.8494H72.9915C73.8004 48.8494 74.4563 48.1935 74.4563 47.3845C74.4563 46.5755 73.8004 45.9197 72.9915 45.9197H67.2815C66.4725 45.9197 65.8167 46.5755 65.8167 47.3845C65.8167 48.1935 66.4725 48.8494 67.2815 48.8494Z" fill="#F1F2F6"/>
<path d="M77.9255 45.9197C77.1166 45.9197 76.4607 46.5755 76.4607 47.3845C76.4607 48.1935 77.1166 48.8494 77.9255 48.8494H80.697C81.506 48.8494 82.1619 48.1935 82.1619 47.3845C82.1619 46.5755 81.506 45.9197 80.697 45.9197H77.9255Z" fill="#F1F2F6"/>
<path d="M91.436 53.1537C91.436 52.3447 90.7801 51.6888 89.9711 51.6888H67.2815C66.4725 51.6888 65.8167 52.3447 65.8167 53.1537C65.8167 53.9627 66.4725 54.6185 67.2815 54.6185H89.9711C90.7801 54.6185 91.436 53.9627 91.436 53.1537Z" fill="#F1F2F6"/>
</svg>
