<svg width="100" height="100" viewBox="0 0 100 100" fill="none" xmlns="http://www.w3.org/2000/svg">
<g clip-path="url(#clip0_53_57)">
<path d="M90.5127 13.9654H72.6114V8.08953C72.6114 7.28099 71.9561 6.62549 71.1473 6.62549C70.3386 6.62549 69.6833 7.28099 69.6833 8.08953V13.9654H63.6188C62.8101 13.9654 62.1548 14.6209 62.1548 15.4295C62.1548 16.238 62.8101 16.8935 63.6188 16.8935H69.6833V23.0929H68.5845C67.0501 23.0929 65.8018 24.3412 65.8018 25.8754V43.1109C65.8018 44.6452 67.0501 45.8934 68.5845 45.8934H69.6833V57.5083C69.6833 58.3169 70.3386 58.9724 71.1473 58.9724C71.9561 58.9724 72.6114 58.3169 72.6114 57.5083V45.8934H73.7102C75.2443 45.8934 76.4926 44.645 76.4926 43.1109V25.8754C76.4926 24.341 75.2443 23.0929 73.7102 23.0929H72.6114V16.8935H90.5127C94.0306 16.8935 96.8929 19.7556 96.8929 23.2736V73.3821H3.10705V23.2738C3.10705 19.7558 5.96916 16.8937 9.48716 16.8937H35.1513V19.751H34.0525C32.5182 19.751 31.27 20.9993 31.27 22.5334V39.769C31.27 41.3033 32.5184 42.5514 34.0525 42.5514H35.1513V55.4883C35.1513 56.2969 35.8068 56.9524 36.6153 56.9524C37.4239 56.9524 38.0794 56.2969 38.0794 55.4883V42.5514H39.1782C40.7125 42.5514 41.9607 41.3031 41.9607 39.769V22.5334C41.9607 20.9991 40.7123 19.751 39.1782 19.751H38.0794V16.8935H44.1439C44.9524 16.8935 45.6079 16.238 45.6079 15.4295C45.6079 14.6209 44.9524 13.9654 44.1439 13.9654H38.0794V13.2424C38.0794 12.4338 37.4239 11.7783 36.6153 11.7783C35.8068 11.7783 35.1513 12.4338 35.1513 13.2424V13.9654H9.48716C4.35461 13.9654 0.178955 18.1411 0.178955 23.2736V74.8461C0.178955 79.9787 4.35461 84.1543 9.48716 84.1543H31.7737V91.5983L27.0549 97.0719H25.1819C24.3734 97.0719 23.7179 97.7274 23.7179 98.5359C23.7179 99.3445 24.3734 100 25.1819 100H74.6829C75.4916 100 76.1469 99.3445 76.1469 98.5359C76.1469 97.7274 75.4916 97.0719 74.6829 97.0719H72.9448L68.2261 91.5983V84.1543H90.5127C95.6453 84.1543 99.821 79.9787 99.821 74.8461V23.2738C99.821 18.1413 95.6453 13.9654 90.5127 13.9654ZM73.5646 42.9656H68.7301V26.0212H73.5648V42.9656H73.5646ZM39.0326 39.6233H34.1979V22.679H39.0326V39.6233ZM90.5127 81.2262H60.8822C60.0735 81.2262 59.4182 81.8818 59.4182 82.6903C59.4182 83.4988 60.0735 84.1543 60.8822 84.1543H65.298V90.6783H61.6511C60.8424 90.6783 60.1871 91.3338 60.1871 92.1424C60.1871 92.9509 60.8424 93.6064 61.6511 93.6064H66.0911L69.0787 97.0719H30.921L33.9086 93.6064H38.3486C39.1571 93.6064 39.8126 92.9509 39.8126 92.1424C39.8126 91.3338 39.1571 90.6783 38.3486 90.6783H34.7017V84.1543H54.6428C55.4516 84.1543 56.1069 83.4988 56.1069 82.6903C56.1069 81.8818 55.4516 81.2262 54.6428 81.2262H9.48716C6.47299 81.2262 3.94214 79.1246 3.27844 76.3102H96.7213C96.0578 79.1246 93.5269 81.2262 90.5127 81.2262Z" fill="#F1F2F6"/>
<path d="M15.4678 42.7429C14.6593 42.7429 14.0038 43.3984 14.0038 44.2069V47.7414C14.0038 49.2757 15.2519 50.5238 16.7863 50.5238H17.8851V58.3205C17.8851 59.1291 18.5406 59.7846 19.3491 59.7846C20.1577 59.7846 20.8132 59.1291 20.8132 58.3205V50.5238H21.912C23.4463 50.5238 24.6944 49.2757 24.6944 47.7414V30.5058C24.6944 28.9715 23.4461 27.7232 21.912 27.7232H20.8132V25.3815C20.8132 24.5729 20.1577 23.9174 19.3491 23.9174C18.5406 23.9174 17.8851 24.5729 17.8851 25.3815V27.7232H16.7863C15.2519 27.7232 14.0038 28.9715 14.0038 30.5058V37.9678C14.0038 38.7763 14.6593 39.4318 15.4678 39.4318C16.2764 39.4318 16.9319 38.7763 16.9319 37.9678V30.6514H19.3474H19.3493C19.3493 30.6514 19.3505 30.6514 19.3513 30.6514H21.7667V47.5959H16.9319V44.2071C16.9319 43.3984 16.2764 42.7429 15.4678 42.7429Z" fill="#F1F2F6"/>
<path d="M51.3182 39.6544H52.4172V47.4509C52.4172 48.2594 53.0726 48.9149 53.8813 48.9149C54.69 48.9149 55.3453 48.2594 55.3453 47.4509V39.6544H56.4442C57.9783 39.6544 59.2266 38.406 59.2266 36.8717V25.3883C59.2266 24.5798 58.5713 23.9243 57.7626 23.9243C56.9538 23.9243 56.2985 24.5798 56.2985 25.3883V36.7263H51.4639V10.2167H56.2985V19.1491C56.2985 19.9577 56.9538 20.6132 57.7626 20.6132C58.5713 20.6132 59.2266 19.9577 59.2266 19.1491V10.0711C59.2266 8.53695 57.9783 7.28861 56.4442 7.28861H55.3453V1.46405C55.3453 0.655502 54.69 0 53.8813 0C53.0726 0 52.4172 0.655502 52.4172 1.46405V7.28861H51.3182C49.7839 7.28861 48.5358 8.53695 48.5358 10.0711V36.8717C48.5358 38.4062 49.7839 39.6544 51.3182 39.6544Z" fill="#F1F2F6"/>
<path d="M79.5962 40.1377C79.8607 40.6284 80.3651 40.9072 80.8861 40.9072C81.1206 40.9072 81.3587 40.8506 81.5797 40.7315L88.3235 37.0954L87.8384 38.3685C87.5505 39.1242 87.9298 39.97 88.6854 40.2579C88.857 40.3231 89.0331 40.3542 89.2064 40.3542C89.7961 40.3542 90.3523 39.995 90.5748 39.4109L92.2231 35.084C92.5111 34.3283 92.1318 33.4825 91.3761 33.1946L86.7835 31.445C86.0281 31.1572 85.182 31.5363 84.8941 32.292C84.6062 33.0476 84.9855 33.8934 85.7411 34.1814L86.806 34.587L80.19 38.1542C79.4783 38.538 79.2124 39.426 79.5962 40.1377Z" fill="#F1F2F6"/>
<path d="M8.83554 68.7438C9.0733 69.2993 9.61382 69.6322 10.1821 69.6322C10.3742 69.6322 10.5696 69.5941 10.7575 69.5137L29.6492 61.4284L31.366 65.9266C31.5163 66.3203 31.8289 66.6301 32.2238 66.7769C32.6185 66.9235 33.0577 66.8932 33.4286 66.6931L64.6389 49.8654C65.3506 49.4816 65.6165 48.5936 65.2327 47.8819C64.8492 47.1704 63.9614 46.9043 63.2492 47.2881L33.5069 63.3243L31.8416 58.9608C31.6994 58.5886 31.4119 58.2903 31.0451 58.1349C30.6783 57.9793 30.2641 57.9803 29.8977 58.1369L9.60543 66.8216C8.86228 67.14 8.51755 68.0004 8.83554 68.7438Z" fill="#F1F2F6"/>
</g>
<defs>
<clipPath id="clip0_53_57">
<rect width="100" height="100" fill="white"/>
</clipPath>
</defs>
</svg>
