<svg width="707" height="478" viewBox="0 0 707 478" fill="none" xmlns="http://www.w3.org/2000/svg">
<g id="IMAGE">
<path id="Vector" fill-rule="evenodd" clip-rule="evenodd" d="M62.5136 475.924H687.701C688.272 475.924 688.739 476.391 688.739 476.962C688.739 477.533 688.272 478 687.701 478H62.5136C61.9429 478 61.476 477.533 61.476 476.962C61.476 476.391 61.9429 475.924 62.5136 475.924Z" fill="#2F3542"/>
<path id="Vector_2" fill-rule="evenodd" clip-rule="evenodd" d="M182.975 406.563C181.212 444.442 176.594 453.99 144.637 475.575H215.555H286.473C254.464 453.99 249.847 444.442 248.135 406.563L215.555 403.502L182.975 406.563Z" fill="#CED6E0"/>
<path id="Vector_3" fill-rule="evenodd" clip-rule="evenodd" d="M26.0948 106.165H407.402C421.046 106.165 432.251 118.618 432.251 133.821V378.633V382.161C432.251 397.365 421.046 409.818 407.402 409.818H26.0948C12.4508 409.818 1.24506 397.365 1.24506 382.161V378.633V363.948V133.821C1.24506 118.618 12.4508 106.165 26.0948 106.165Z" fill="#CED6E0"/>
<path id="Vector_4" d="M13.5403 120.59H419.489C419.645 120.59 419.801 120.745 419.801 120.953V364H13.229V120.901C13.229 120.745 13.3846 120.59 13.5403 120.59Z" fill="#2F3542"/>
<path id="Vector_5" d="M419.801 316.885H13.229V363.948H419.801V316.885Z" fill="#57606F"/>
<path id="Vector_6" d="M249.172 409.87H181.834V421.856H249.172V409.87Z" fill="#A4B0BE"/>
<path id="Vector_7" d="M249.172 409.87H181.834V421.856H249.172V409.87Z" stroke="#A4B0BE" stroke-width="0.216" stroke-miterlimit="22.9256"/>
<path id="Vector_8" d="M338.403 327.522H25.6799V328.041H338.403V327.522Z" fill="#A4B0BE"/>
<path id="Vector_9" d="M338.403 349.835H25.6799V350.353H338.403V349.835Z" fill="#A4B0BE"/>
<path id="Vector_10" d="M351.632 348.952C355.835 348.537 360.14 345.165 360.14 345.165L360.867 345.995C360.867 345.995 356.25 349.679 351.632 350.042V348.952ZM25.8355 351.703C25.8874 351.599 39.5314 317.352 49.2327 323.423C53.2792 325.966 56.1325 328.975 58.519 331.57C61.4242 334.683 63.603 337.018 66.2488 336.551C68.9465 336.084 72.2149 335.669 75.4313 335.928C78.6997 336.188 81.9161 337.226 84.5101 339.612C86.3258 341.325 87.4671 342.985 88.5047 344.542C90.3205 347.24 91.9806 349.731 96.9609 351.651C101.682 353.467 106.351 343.556 110.294 335.254C112.421 330.739 114.34 326.692 116.052 325.084C116.156 324.98 116.26 324.876 116.363 324.824C118.75 322.645 121.396 321.763 123.938 321.918C126.428 322.074 128.866 323.216 130.941 325.084C131.045 325.187 131.149 325.291 131.253 325.395C133.535 327.574 138.516 330.947 143.859 333.438C147.75 335.254 151.848 336.551 155.272 336.551C161.29 336.551 164.922 342.414 167.879 347.136C169.228 349.316 170.421 351.184 171.562 352.066L171.718 352.221C175.297 354.972 180.745 359.123 184.532 357.41C186.088 356.684 188.89 353.519 192.106 349.783C196.931 344.231 202.793 337.485 207.67 335.721C211.664 334.268 216.956 330.636 221.625 327.367C226.19 324.201 230.185 321.451 232.104 321.451C234.698 321.451 241.961 328.456 247.875 334.164C250.677 336.862 253.167 339.249 254.671 340.495C256.02 341.584 257.732 343.141 259.6 344.853C264.217 349.108 269.716 354.141 271.74 353.778C273.14 353.519 276.824 350.717 280.663 347.344C284.865 343.608 289.171 339.249 290.831 336.81C292.439 334.424 295.033 330.688 298.976 327.989C302.918 325.239 308.262 323.631 315.266 325.447C315.629 325.551 315.992 325.654 316.303 325.758V326.9C315.836 326.744 315.369 326.64 314.954 326.485C308.366 324.772 303.385 326.277 299.65 328.871C295.915 331.466 293.373 335.098 291.816 337.381C290.105 339.872 285.747 344.334 281.441 348.122C277.498 351.599 273.607 354.505 271.947 354.816C269.353 355.283 263.595 350.042 258.77 345.58C256.902 343.867 255.19 342.311 253.893 341.273C252.337 340.028 249.847 337.589 247.045 334.891C241.287 329.338 234.231 322.541 232.104 322.541C230.6 322.541 226.761 325.187 222.351 328.249C217.63 331.518 212.287 335.202 208.085 336.707C203.467 338.367 197.761 344.957 192.988 350.457C189.668 354.245 186.866 357.514 185.051 358.344C180.589 360.368 174.831 355.957 170.992 353L170.836 352.844C169.539 351.858 168.294 349.886 166.893 347.603C164.092 343.141 160.616 337.589 155.324 337.589C151.693 337.589 147.439 336.24 143.392 334.372C137.893 331.829 132.809 328.353 130.474 326.121C130.371 326.018 130.267 325.914 130.163 325.862C128.296 324.201 126.117 323.164 123.886 323.008C121.655 322.852 119.372 323.631 117.245 325.602C117.142 325.706 117.09 325.758 116.986 325.862C115.43 327.367 113.562 331.31 111.487 335.721C107.337 344.49 102.408 354.92 96.6496 352.688C91.358 350.613 89.5942 348.018 87.6747 345.165C86.6371 343.608 85.5476 341.999 83.8357 340.391C81.4492 338.16 78.4922 337.277 75.4832 337.018C72.4224 336.759 69.2578 337.174 66.612 337.641C63.2918 338.211 60.9054 335.669 57.7927 332.296C55.4581 329.805 52.6567 326.796 48.7139 324.357C40.2577 319.064 27.0806 352.066 27.0806 352.118L25.8355 351.703Z" fill="#F79D2C"/>
<path id="Vector_11" fill-rule="evenodd" clip-rule="evenodd" d="M28.3257 129.774H129.074C131.045 129.774 132.653 131.383 132.653 133.354C132.653 135.326 131.045 136.935 129.074 136.935H28.3257C26.3543 136.935 24.7461 135.326 24.7461 133.354C24.6942 131.383 26.3543 129.774 28.3257 129.774Z" fill="#CED6E0"/>
<path id="Vector_12" fill-rule="evenodd" clip-rule="evenodd" d="M28.3257 145.496H78.4403C80.4117 145.496 82.0199 147.105 82.0199 149.077C82.0199 151.048 80.4117 152.657 78.4403 152.657H28.3257C26.3543 152.657 24.7461 151.048 24.7461 149.077C24.6942 147.105 26.3543 145.496 28.3257 145.496Z" fill="#CED6E0"/>
<path id="Vector_13" d="M114.963 203.923H102.927V257.836H114.963V203.923Z" fill="#4BA64E"/>
<path id="Vector_14" d="M109.567 195.621H108.27V266.138H109.567V195.621Z" fill="#4BA64E"/>
<path id="Vector_15" d="M132.342 177.979H120.306V194.168H132.342V177.979Z" fill="#4BA64E"/>
<path id="Vector_16" d="M126.999 167.29H125.702V214.353H126.999V167.29Z" fill="#4BA64E"/>
<path id="Vector_17" d="M215.348 203.508H203.312V257.421H215.348V203.508Z" fill="#4BA64E"/>
<path id="Vector_18" d="M210.004 195.206H208.707V265.723H210.004V195.206Z" fill="#4BA64E"/>
<path id="Vector_19" d="M232.779 175.644H220.743V203.197H232.779V175.644Z" fill="#4BA64E"/>
<path id="Vector_20" d="M227.383 175.644H226.086V214.612H227.383V175.644Z" fill="#4BA64E"/>
<path id="Vector_21" d="M252.804 165.266H240.768V178.186H252.804V165.266Z" fill="#4BA64E"/>
<path id="Vector_22" d="M247.46 151.048H246.163V199.616H247.46V151.048Z" fill="#4BA64E"/>
<path id="Vector_23" d="M314.124 178.653H302.088V198.89H314.124V178.653Z" fill="#4BA64E"/>
<path id="Vector_24" d="M308.729 172.427H307.432V207.088H308.729V172.427Z" fill="#4BA64E"/>
<path id="Vector_25" d="M46.3275 236.561H34.2917V290.474H46.3275V236.561Z" fill="#4BA64E"/>
<path id="Vector_26" d="M40.984 212.692H39.687V294.313H40.984V212.692Z" fill="#4BA64E"/>
<path id="Vector_27" fill-rule="evenodd" clip-rule="evenodd" d="M267.485 182.13H268.782V184.62H274.178V200.81H268.782V203.3H267.485V200.81H262.09V184.62H267.485V182.13ZM287.666 188.408H288.963V200.291H294.359V229.401H288.963V241.283H287.666V229.401H282.271V200.291H287.666V188.408ZM145.83 197.281H147.127V201.796H152.523V230.905H147.127V235.42H145.83V230.905H140.435V201.796H145.83V197.281ZM166.737 224.99H168.034V229.452H173.43V258.199H168.034V262.661H166.737V258.199H161.342V229.452H166.737V224.99ZM186.918 229.504H188.215V254.878H193.611V286.53H188.215V291.045H186.918V286.53H181.523V254.878H186.918V229.504ZM66.9751 231.476H68.2721V235.99H73.6675V265.1H68.2721V269.614H66.9751V265.1H61.5798V235.99H66.9751V231.476ZM87.934 253.114H89.231V261.727H94.6264V277.917H89.231V286.53H87.934V277.917H82.5387V261.727H87.934V253.114ZM322.84 217.933H328.235V206.051H329.532V217.933H334.927V247.043H329.532V258.925H328.235V247.043H322.84V217.933Z" fill="#D53232"/>
<path id="Vector_28" fill-rule="evenodd" clip-rule="evenodd" d="M187.281 295.247L192.365 305.366H182.249L187.281 295.247Z" fill="#F79646"/>
<path id="Vector_29" fill-rule="evenodd" clip-rule="evenodd" d="M246.786 142.487L242.117 133.199H251.455L246.786 142.487Z" fill="#A4B0BE"/>
<path id="Vector_30" fill-rule="evenodd" clip-rule="evenodd" d="M307.588 167.549L302.918 158.209H312.257L307.588 167.549Z" fill="#A4B0BE"/>
<path id="Vector_31" fill-rule="evenodd" clip-rule="evenodd" d="M89.1791 291.823L94.2113 301.941H84.1469L89.1791 291.823Z" fill="#F79646"/>
<path id="Vector_32" fill-rule="evenodd" clip-rule="evenodd" d="M287.926 249.43L292.958 259.496H282.842L287.926 249.43Z" fill="#F79646"/>
<path id="Vector_33" d="M419.801 120.901H346.6V363.948H419.801V120.901Z" fill="#57606F"/>
<path id="Vector_34" fill-rule="evenodd" clip-rule="evenodd" d="M405.534 281.238C405.534 293.743 395.418 303.861 382.915 303.861C370.412 303.861 360.296 293.743 360.296 281.238C360.296 268.732 370.412 258.614 382.915 258.614V268.784C376.015 268.784 370.464 274.388 370.464 281.238C370.464 288.139 376.067 293.691 382.915 293.691C389.815 293.691 395.366 288.087 395.366 281.238H405.534Z" fill="#A4B0BE"/>
<path id="Vector_35" fill-rule="evenodd" clip-rule="evenodd" d="M385.561 257.161C397.285 257.628 406.727 267.072 407.194 278.799H397.078C396.611 272.624 391.734 267.746 385.561 267.279V257.161Z" fill="#D53232"/>
<path id="Vector_36" fill-rule="evenodd" clip-rule="evenodd" d="M360.919 340.546H375.548C378.765 340.546 381.411 343.193 381.411 346.41C381.411 349.627 378.765 352.273 375.548 352.273H360.919C357.702 352.273 355.056 349.627 355.056 346.41C355.056 343.193 357.702 340.546 360.919 340.546Z" fill="#4BA64E"/>
<path id="Vector_37" fill-rule="evenodd" clip-rule="evenodd" d="M391.786 340.546H406.416C409.633 340.546 412.278 343.193 412.278 346.41C412.278 349.627 409.633 352.273 406.416 352.273H391.786C388.57 352.273 385.924 349.627 385.924 346.41C385.976 343.193 388.622 340.546 391.786 340.546Z" fill="#D53232"/>
<path id="Vector_38" d="M411.448 316.885H355.056V330.48H411.448V316.885Z" fill="#CED6E0"/>
<path id="Vector_39" d="M383.278 316.885H355.056V330.48H383.278V316.885Z" fill="#A4B0BE"/>
<path id="Vector_40" fill-rule="evenodd" clip-rule="evenodd" d="M361.801 166.615H374.2C376.171 166.615 377.779 168.224 377.779 170.195C377.779 172.167 376.171 173.776 374.2 173.776H361.801C359.829 173.776 358.221 172.167 358.221 170.195C358.221 168.224 359.829 166.615 361.801 166.615Z" fill="#A4B0BE"/>
<path id="Vector_41" fill-rule="evenodd" clip-rule="evenodd" d="M384.99 166.615H406.364C408.336 166.615 409.944 168.224 409.944 170.195C409.944 172.167 408.336 173.776 406.364 173.776H384.99C383.019 173.776 381.411 172.167 381.411 170.195C381.359 168.224 382.967 166.615 384.99 166.615Z" fill="#A4B0BE"/>
<path id="Vector_42" d="M373.214 187.838H359.155V192.871H373.214V187.838Z" fill="#4BA64E"/>
<path id="Vector_43" d="M384.938 195.206H359.155V200.239H384.938V195.206Z" fill="#4BA64E"/>
<path id="Vector_44" d="M397.026 202.574H359.155V207.607H397.026V202.574Z" fill="#4BA64E"/>
<path id="Vector_45" d="M406.935 209.89H359.155V214.924H406.935V209.89Z" fill="#4BA64E"/>
<path id="Vector_46" d="M390.489 217.259H359.155V222.292H390.489V217.259Z" fill="#D53232"/>
<path id="Vector_47" d="M401.28 224.575H359.155V229.608H401.28V224.575Z" fill="#D53232"/>
<path id="Vector_48" d="M405.482 231.943H359.155V236.976H405.482V231.943Z" fill="#D53232"/>
<path id="Vector_49" d="M410.048 239.259H359.155V244.293H410.048V239.259Z" fill="#D53232"/>
<path id="Vector_50" fill-rule="evenodd" clip-rule="evenodd" d="M216.748 377.958C220.691 377.958 223.908 381.175 223.908 385.119C223.908 389.063 220.691 392.28 216.748 392.28C212.806 392.28 209.589 389.063 209.589 385.119C209.589 381.175 212.806 377.958 216.748 377.958Z" fill="#F1F2F6"/>
<g id="screen_2">
<path id="Vector_51" fill-rule="evenodd" clip-rule="evenodd" d="M371.761 117.84H410.203C412.745 117.84 414.872 119.915 414.872 122.51C414.872 125.052 412.797 127.18 410.203 127.18H371.761C369.219 127.18 367.092 125.104 367.092 122.51C367.092 119.915 369.167 117.84 371.761 117.84Z" fill="#A4B0BE"/>
<path id="Vector_52" fill-rule="evenodd" clip-rule="evenodd" d="M371.761 138.18H387.792C390.334 138.18 392.461 140.256 392.461 142.85C392.461 145.393 390.386 147.52 387.792 147.52H371.761C369.219 147.52 367.092 145.444 367.092 142.85C367.092 140.256 369.167 138.18 371.761 138.18Z" fill="#A4B0BE"/>
<path id="Vector_53" fill-rule="evenodd" clip-rule="evenodd" d="M401.695 138.18H429.346C431.888 138.18 434.015 140.256 434.015 142.85C434.015 145.393 431.94 147.52 429.346 147.52H401.695C399.153 147.52 397.026 145.444 397.026 142.85C397.026 140.256 399.153 138.18 401.695 138.18Z" fill="#A4B0BE"/>
<path id="Vector_54" fill-rule="evenodd" clip-rule="evenodd" d="M346.808 0H559.354C566.98 0 573.205 6.9531 573.205 15.4629V134.703V136.675C573.205 145.185 566.98 152.138 559.354 152.138H346.808C339.181 152.138 332.956 145.185 332.956 136.675V134.703V126.505V15.4629C332.956 6.9531 339.181 0 346.808 0Z" fill="#CED6E0"/>
<path id="Vector_55" d="M339.804 8.04277H566.098C566.202 8.04277 566.254 8.14655 566.254 8.25033V143.732H339.648V8.25033C339.648 8.14655 339.7 8.04277 339.804 8.04277Z" fill="#57606F"/>
<path id="Vector_56" d="M566.254 8.04277H516.243V143.525H566.254V8.04277Z" fill="#2F3542"/>
<path id="Vector_57" fill-rule="evenodd" clip-rule="evenodd" d="M530.561 84.6826C530.561 91.6357 536.216 97.2916 543.168 97.2916C550.119 97.2916 555.774 91.6357 555.774 84.6826C555.774 77.7295 550.119 72.0736 543.168 72.0736V77.7295C547.007 77.7295 550.119 80.8428 550.119 84.6826C550.119 88.5224 547.007 91.6357 543.168 91.6357C539.329 91.6357 536.216 88.5224 536.216 84.6826H530.561Z" fill="#A4B0BE"/>
<path id="Vector_58" fill-rule="evenodd" clip-rule="evenodd" d="M541.715 71.2434C535.178 71.5028 529.887 76.7436 529.627 83.3335H535.282C535.542 79.9088 538.291 77.1587 541.715 76.8993V71.2434V71.2434Z" fill="#EA7E2F"/>
<path id="Vector_59" d="M507.683 15.4629H347.741V26.0482H507.683V15.4629Z" fill="#A4B0BE"/>
<path id="Vector_60" d="M361.801 15.4629H347.741V26.0482H361.801V15.4629Z" fill="#CED6E0"/>
<path id="Vector_61" d="M354.486 65.1724H349.713V127.231H354.486V65.1724Z" fill="#D53232"/>
<path id="Vector_62" d="M359.207 77.0549H354.434V127.231H359.207V77.0549Z" fill="#A4B0BE"/>
<path id="Vector_63" d="M363.979 115.038H359.207V127.231H363.979V115.038Z" fill="#F48120"/>
<path id="Vector_64" fill-rule="evenodd" clip-rule="evenodd" d="M351.581 132.368H361.437C362.475 132.368 363.305 133.199 363.305 134.236C363.305 135.274 362.475 136.104 361.437 136.104H351.581C350.543 136.104 349.713 135.274 349.713 134.236C349.713 133.199 350.543 132.368 351.581 132.368Z" fill="#2F3542"/>
<path id="Vector_65" d="M378.453 52.0964H373.681V127.231H378.453V52.0964Z" fill="#D53232"/>
<path id="Vector_66" d="M383.226 67.7149H378.454V127.231H383.226V67.7149Z" fill="#A4B0BE"/>
<path id="Vector_67" d="M387.999 109.07H383.226V127.231H387.999V109.07Z" fill="#F48120"/>
<path id="Vector_68" fill-rule="evenodd" clip-rule="evenodd" d="M375.6 132.368H385.457C386.495 132.368 387.325 133.199 387.325 134.236C387.325 135.274 386.495 136.104 385.457 136.104H375.6C374.563 136.104 373.733 135.274 373.733 134.236C373.681 133.199 374.563 132.368 375.6 132.368Z" fill="#2F3542"/>
<path id="Vector_69" d="M402.473 57.2853H397.7V127.231H402.473V57.2853Z" fill="#D53232"/>
<path id="Vector_70" d="M407.246 81.4136H402.473V127.231H407.246V81.4136Z" fill="#A4B0BE"/>
<path id="Vector_71" d="M412.019 121.16H407.246V127.231H412.019V121.16Z" fill="#F48120"/>
<path id="Vector_72" fill-rule="evenodd" clip-rule="evenodd" d="M399.62 132.368H409.477C410.514 132.368 411.344 133.199 411.344 134.236C411.344 135.274 410.514 136.104 409.477 136.104H399.62C398.582 136.104 397.752 135.274 397.752 134.236C397.7 133.199 398.582 132.368 399.62 132.368Z" fill="#2F3542"/>
<path id="Vector_73" d="M426.493 45.299H421.72V127.231H426.493V45.299Z" fill="#D53232"/>
<path id="Vector_74" d="M431.266 77.0549H426.493V127.231H431.266V77.0549Z" fill="#A4B0BE"/>
<path id="Vector_75" d="M435.987 115.349H431.214V127.231H435.987V115.349Z" fill="#F48120"/>
<path id="Vector_76" fill-rule="evenodd" clip-rule="evenodd" d="M423.588 132.368H433.445C434.482 132.368 435.312 133.199 435.312 134.236C435.312 135.274 434.482 136.104 433.445 136.104H423.588C422.55 136.104 421.72 135.274 421.72 134.236C421.72 133.199 422.55 132.368 423.588 132.368Z" fill="#2F3542"/>
<path id="Vector_77" fill-rule="evenodd" clip-rule="evenodd" d="M554.84 116.75C554.84 123.703 549.186 129.359 542.234 129.359C535.282 129.359 529.627 123.703 529.627 116.75C529.627 109.797 535.282 104.141 542.234 104.141V109.797C538.395 109.797 535.282 112.91 535.282 116.75C535.282 120.59 538.395 123.703 542.234 123.703C546.073 123.703 549.186 120.59 549.186 116.75H554.84Z" fill="#A4B0BE"/>
<path id="Vector_78" fill-rule="evenodd" clip-rule="evenodd" d="M543.687 103.311C550.223 103.57 555.515 108.811 555.774 115.401H550.119C549.86 111.976 547.111 109.226 543.687 108.967V103.311V103.311Z" fill="#EA7E2F"/>
<path id="Vector_79" fill-rule="evenodd" clip-rule="evenodd" d="M528.59 21.4301H545.139C546.229 21.4301 547.162 22.3122 547.162 23.4537C547.162 24.5434 546.281 25.4774 545.139 25.4774H528.59C527.5 25.4774 526.567 24.5953 526.567 23.4537C526.567 22.3641 527.5 21.4301 528.59 21.4301Z" fill="#A4B0BE"/>
<path id="Vector_80" fill-rule="evenodd" clip-rule="evenodd" d="M528.59 30.1993H535.49C536.579 30.1993 537.513 31.0814 537.513 32.223C537.513 33.3126 536.631 34.2466 535.49 34.2466H528.59C527.5 34.2466 526.567 33.3645 526.567 32.223C526.567 31.1333 527.5 30.1993 528.59 30.1993Z" fill="#A4B0BE"/>
<path id="Vector_81" fill-rule="evenodd" clip-rule="evenodd" d="M541.508 30.1993H553.44C554.529 30.1993 555.463 31.0814 555.463 32.223C555.463 33.3126 554.581 34.2466 553.44 34.2466H541.508C540.418 34.2466 539.484 33.3645 539.484 32.223C539.484 31.1333 540.418 30.1993 541.508 30.1993Z" fill="#A4B0BE"/>
<path id="Vector_82" fill-rule="evenodd" clip-rule="evenodd" d="M528.59 39.0204H535.49C536.579 39.0204 537.513 39.9025 537.513 41.0441C537.513 42.1337 536.631 43.0677 535.49 43.0677H528.59C527.5 43.0677 526.567 42.1856 526.567 41.0441C526.567 39.9544 527.5 39.0204 528.59 39.0204Z" fill="#A4B0BE"/>
<path id="Vector_83" fill-rule="evenodd" clip-rule="evenodd" d="M541.508 39.0204H553.44C554.529 39.0204 555.463 39.9025 555.463 41.0441C555.463 42.1337 554.581 43.0677 553.44 43.0677H541.508C540.418 43.0677 539.484 42.1856 539.484 41.0441C539.484 39.9544 540.418 39.0204 541.508 39.0204Z" fill="#A4B0BE"/>
<path id="Vector_84" d="M464.728 89.612H450.15V92.9329H464.728V89.612Z" fill="#A4B0BE"/>
<path id="Vector_85" d="M476.867 94.4377H450.15V97.7586H476.867V94.4377Z" fill="#A4B0BE"/>
<path id="Vector_86" d="M489.422 99.3152H450.15V102.636H489.422V99.3152Z" fill="#A4B0BE"/>
<path id="Vector_87" d="M499.642 104.193H450.15V107.514H499.642V104.193Z" fill="#A4B0BE"/>
<path id="Vector_88" d="M482.626 109.018H450.15V112.339H482.626V109.018Z" fill="#2F3542"/>
<path id="Vector_89" d="M493.831 113.896H450.15V117.217H493.831V113.896Z" fill="#2F3542"/>
<path id="Vector_90" d="M498.137 118.774H450.15V122.094H498.137V118.774Z" fill="#2F3542"/>
<path id="Vector_91" d="M502.91 123.599H450.15V126.92H502.91V123.599Z" fill="#2F3542"/>
<path id="Vector_92" d="M507.735 38.5534H449.579V78.2484H507.735V38.5534Z" fill="#2F3542"/>
<path id="Vector_93" d="M453.781 42.2894V74.2529H504.155V74.668H453.418V42.2894H453.781Z" fill="white"/>
<path id="Vector_94" fill-rule="evenodd" clip-rule="evenodd" d="M453.781 60.6062C453.781 60.6062 458.761 52.3558 462.652 55.3135C466.595 58.2193 466.647 63.5638 470.382 64.2384C474.117 64.9129 476.037 47.6858 481.847 48.7236C487.606 49.8133 486.62 59.3608 493.157 63.1487C499.694 66.9366 502.91 55.3135 502.91 55.3135V74.3048H453.833V60.6062H453.781Z" fill="#F79D2C"/>
<path id="Vector_95" fill-rule="evenodd" clip-rule="evenodd" d="M528.59 47.5302H553.44C554.529 47.5302 555.463 48.4123 555.463 49.5538C555.463 50.6435 554.581 51.5775 553.44 51.5775H528.59C527.5 51.5775 526.567 50.6954 526.567 49.5538C526.567 48.4123 527.5 47.5302 528.59 47.5302Z" fill="#A4B0BE"/>
<path id="Vector_96" fill-rule="evenodd" clip-rule="evenodd" d="M528.59 55.8324H543.116C544.205 55.8324 545.139 56.7145 545.139 57.8561C545.139 58.9457 544.257 59.8797 543.116 59.8797H528.59C527.5 59.8797 526.567 58.9976 526.567 57.8561C526.567 56.7664 527.5 55.8324 528.59 55.8324Z" fill="#A4B0BE"/>
</g>
<g id="screen_1">
<path id="Vector_97" fill-rule="evenodd" clip-rule="evenodd" d="M550.275 242.321H562.778C564.749 242.321 566.409 243.929 566.409 245.953C566.409 247.925 564.801 249.585 562.778 249.585H550.275C548.304 249.585 546.644 247.977 546.644 245.953C546.695 243.929 548.304 242.321 550.275 242.321Z" fill="#A4B0BE"/>
<path id="Vector_98" fill-rule="evenodd" clip-rule="evenodd" d="M573.569 242.321H595.098C597.069 242.321 598.73 243.929 598.73 245.953C598.73 247.925 597.121 249.585 595.098 249.585H573.569C571.597 249.585 569.937 247.977 569.937 245.953C569.989 243.929 571.597 242.321 573.569 242.321Z" fill="#A4B0BE"/>
<path id="Vector_99" fill-rule="evenodd" clip-rule="evenodd" d="M530.873 134.859H696.209C702.123 134.859 707 140.256 707 146.897V239.623V241.179C707 247.821 702.175 253.218 696.209 253.218H530.873C524.958 253.218 520.082 247.821 520.082 241.179V239.623V233.24V146.897C520.134 140.256 524.958 134.859 530.873 134.859Z" fill="#CED6E0"/>
<path id="Vector_100" d="M525.425 141.086H701.449C701.501 141.086 701.605 141.138 701.605 141.241V246.628H525.322V141.241C525.322 141.19 525.373 141.086 525.425 141.086Z" fill="#57606F"/>
<path id="Vector_101" d="M535.594 222.032H691.021V222.188H535.594V222.032ZM535.594 207.867H691.021V208.022H535.594V207.867ZM535.594 193.753H691.021V193.909H535.594V193.753ZM535.594 179.639H691.021V179.795H535.594V179.639ZM586.227 165.525H690.97V165.681H586.227V165.525ZM624.565 151.36H690.97V151.515H624.565V151.36Z" fill="#A4B0BE"/>
<path id="Vector_102" fill-rule="evenodd" clip-rule="evenodd" d="M539.796 236.25L559.821 230.438L565.009 226.547L569.678 224.575H569.937C569.937 224.575 574.502 226.754 579.431 220.839C584.307 214.924 584.307 214.716 584.307 214.716C584.307 214.716 581.765 222.032 588.717 212.537C595.669 203.041 595.461 201.588 598.678 198.994C601.894 196.451 604.592 193.39 604.592 193.39H603.71H604.592C604.592 193.39 602.776 194.064 606.615 197.541C610.454 201.017 612.633 202.107 612.633 202.107L615.538 206.258L617.717 205.272L619.896 201.536C619.896 201.536 621.919 199.513 623.528 199.149C625.188 198.786 629.753 194.116 630.842 193.961C631.932 193.805 636.601 190.743 636.601 190.743C636.601 190.743 636.549 188.201 638.728 186.333C640.907 184.517 644.953 183.79 644.953 183.79C644.953 183.79 646.25 183.79 647.703 183.79C649.155 183.79 653.202 188.201 654.447 183.79C655.744 179.38 656.47 175.748 658.079 173.205C659.739 170.662 663.007 168.639 663.007 168.639H665.912H671.775H679.245C679.245 168.639 680.542 166.823 681.631 165.733C682.721 164.643 689.828 158.987 689.828 158.987V236.25H539.796V236.25Z" fill="#F79D2C"/>
<path id="Vector_103" fill-rule="evenodd" clip-rule="evenodd" d="M539.796 236.25L561.896 234.278C561.896 234.278 562.467 233.552 564.801 232.981C567.187 232.41 566.15 235.887 569.937 232.981C573.724 230.075 573.361 229.712 575.384 229.504C577.408 229.297 576.837 232.047 582.128 229.504C587.42 226.962 591.103 222.447 591.103 222.447C591.103 222.447 595.306 218.037 598.781 216.895C602.257 215.806 605.526 214.508 605.526 214.508C605.526 214.508 607.705 215.442 609.157 216.169C610.61 216.895 612.166 222.084 613.515 218.296C614.864 214.508 614.656 216.325 616.68 215.079C618.703 213.782 622.542 215.079 622.542 215.079C622.542 215.079 627.678 211.447 628.767 210.669C629.857 209.942 629.494 210.098 633.333 206.673C637.172 203.197 641.529 201.536 641.529 201.536H645.005C645.005 201.536 647.028 201.536 648.844 201.536C650.66 201.536 649.778 201.536 652.113 201.536C654.499 201.536 662.696 201.536 662.696 201.536L665.912 204.753L667.832 202.833L669.855 197.593L673.486 193.96H676.962L680.231 193.39H683.862L689.88 186.54V236.198H539.796V236.25Z" fill="#EA7E2F"/>
<path id="Vector_104" d="M535.593 148.35V236.094H689.932V236.457H535.23V148.35H535.593Z" fill="white"/>
<path id="Vector_105" fill-rule="evenodd" clip-rule="evenodd" d="M545.295 149.855H614.812C616.161 149.855 617.302 150.997 617.302 152.346C617.302 153.695 616.161 154.836 614.812 154.836H545.295C543.946 154.836 542.805 153.695 542.805 152.346C542.856 150.945 543.946 149.855 545.295 149.855Z" fill="#CED6E0"/>
<path id="Vector_106" fill-rule="evenodd" clip-rule="evenodd" d="M545.295 160.7H579.898C581.247 160.7 582.388 161.841 582.388 163.19C582.388 164.54 581.247 165.681 579.898 165.681H545.295C543.946 165.681 542.805 164.54 542.805 163.19C542.856 161.841 543.946 160.7 545.295 160.7Z" fill="#CED6E0"/>
</g>
<path id="Vector_107" fill-rule="evenodd" clip-rule="evenodd" d="M488.073 290.785C470.901 309.413 459.228 318.13 443.976 315.225C435.053 311.022 414.509 294.365 416.895 289.54C418.659 286.011 416.74 282.846 421.72 285.492C428.412 288.865 442.938 298.101 444.65 298.413C452.692 299.917 474.377 275.789 478.268 276.256C479.668 276.101 493.468 287.724 488.073 290.785Z" fill="#2F3542"/>
<path id="Vector_108" fill-rule="evenodd" clip-rule="evenodd" d="M419.541 283.521C419.437 282.275 418.867 277.346 418.089 276.412C417.674 275.945 417.57 276.1 417.362 276.36C417.155 276.567 416.947 277.19 416.947 277.605C416.947 278.487 416.169 279.992 416.273 280.459C411.137 279.992 407.039 274.181 405.378 276.36C405.378 276.931 406.364 279.94 406.416 280.822C406.572 283.521 406.935 284.87 415.91 289.955C416.325 290.214 417.31 291.045 417.777 291.304C418.556 290.785 420.371 288.813 420.89 286.167L419.541 283.521Z" fill="#F7AAAC"/>
<path id="Vector_109" fill-rule="evenodd" clip-rule="evenodd" d="M464.987 347.915C460.214 368.878 468.359 419.833 470.953 459.009C471.109 461.655 470.694 464.924 467.788 466.533C465.143 467.985 459.332 468.712 457.776 470.217C456.634 471.306 451.395 476.34 466.751 475.924C477.645 475.613 480.239 474.887 481.432 473.122C481.588 472.863 489.007 382.109 490.148 375.312C492.119 384.029 516.969 465.495 516.969 465.547C516.813 466.844 515.05 470.372 513.078 472.5C512.508 474.627 509.187 477.429 519.771 477.325C530.354 477.222 527.864 473.122 527.915 472.5C523.246 428.342 516.813 371.472 514.894 345.891C514.894 345.891 500.835 345.683 493.157 341.377C481.484 334.787 474.325 308.012 476.504 335.565C476.815 340.65 466.803 340.806 464.987 347.915Z" fill="#2F3542"/>
<path id="Vector_110" fill-rule="evenodd" clip-rule="evenodd" d="M529.783 298.101C536.942 315.536 539.899 334.527 542.13 353.104C542.338 354.972 541.611 356.736 539.277 357.981C537.824 358.759 536.735 358.396 533.985 355.957C529.835 350.976 526.93 333.074 522.468 325.706C513.597 311.229 505.089 297.167 509.758 287.879C509.965 286.634 528.382 292.394 529.783 298.101Z" fill="#2F3542"/>
<path id="Vector_111" fill-rule="evenodd" clip-rule="evenodd" d="M518.266 316.003C516.554 326.018 515.153 343.089 516.087 360.16C495.491 363.689 475.881 362.599 463.586 358.656C464.157 345.061 460.162 279.888 480.291 275.582C493.883 271.742 512.144 272.987 519.719 280.407L519.771 280.459C525.529 285.856 532.636 303.653 536.009 316.574C543.012 343.66 524.128 328.716 518.266 316.003Z" fill="#2F3542"/>
<path id="Vector_112" fill-rule="evenodd" clip-rule="evenodd" d="M485.531 274.284C483.041 285.492 482.211 323.371 482.47 335.876C482.937 334.942 503.896 282.794 505.66 274.129C499.953 272.52 491.86 272.728 485.531 274.284Z" fill="white"/>
<path id="Vector_113" d="M481.64 314.602L482.47 335.928L491.756 316.366L492.327 288.606L494.506 285.544L492.171 282.95L489.266 284.506L490.252 288.035C487.398 295.611 483.559 308.635 481.64 314.602Z" fill="#D53232"/>
<path id="Vector_114" fill-rule="evenodd" clip-rule="evenodd" d="M518.266 316.003C516.658 326.225 515.724 347.344 516.087 360.16C510.692 346.773 513.545 311.748 514.583 306.352C515.568 309.673 516.813 312.993 518.266 316.003Z" fill="#21242B"/>
<path id="Vector_115" fill-rule="evenodd" clip-rule="evenodd" d="M489.785 270.237L489.733 274.44L489.11 274.959C486.724 277.502 489.318 282.742 492.016 282.587C498.864 282.95 504.155 277.294 502.08 274.233L501.198 273.247L500.991 267.331C501.354 267.331 503.948 265.827 504.674 265.619C505.452 265.36 506.593 263.907 506.645 262.35C506.697 260.793 504.311 261.312 504.311 261.312C507.216 257.317 510.536 254.048 506.23 250.416C501.924 246.835 492.067 244.708 492.067 244.708L486.153 242.632C486.931 244.656 485.894 251.505 484.389 255.76C482.262 261.831 483.456 267.228 489.785 270.237Z" fill="#F7AAAC"/>
<path id="Vector_116" fill-rule="evenodd" clip-rule="evenodd" d="M498.189 268.162C498.189 268.162 494.817 273.921 492.067 274.44C489.318 274.959 490.719 274.596 489.681 274.44L489.733 270.237C491.704 270.548 493.572 270.393 498.189 268.162Z" fill="#EA8287"/>
<path id="Vector_117" fill-rule="evenodd" clip-rule="evenodd" d="M487.243 251.505C492.171 254.048 497.878 251.038 500.731 254.411C502.132 256.071 502.028 258.51 500.42 262.246C499.953 263.336 499.33 264.166 501.198 263.284C502.028 262.869 503.429 262.35 503.948 262.713C505.037 263.595 504.466 265.411 503.636 265.982C503.273 266.242 502.547 266.657 502.547 266.657C509.187 265.411 511.937 259.392 511.833 254.567C511.781 252.958 511.626 251.453 511.314 250.208C511.47 249.741 511.522 249.274 511.522 248.807C511.522 246.731 510.173 244.967 508.357 244.396C507.994 242.217 506.23 240.557 504.051 240.557C503.377 240.557 502.754 240.712 502.236 240.972L502.028 240.92C501.25 239.571 499.745 238.637 498.033 238.637C496.84 238.637 495.751 239.104 494.921 239.83C493.728 238.17 491.86 237.132 489.837 237.132C486.205 237.132 483.248 240.453 483.248 244.552C483.248 247.095 484.389 249.378 486.153 250.727C486.413 250.934 486.776 251.246 487.243 251.505Z" fill="#21242A"/>
<path id="Vector_118" fill-rule="evenodd" clip-rule="evenodd" d="M482.47 335.876L476.763 288.969L481.432 285.025L478.475 281.549L481.381 275.322C482.574 275.322 484.182 274.544 485.583 274.284C483.092 285.492 482.211 323.371 482.47 335.876Z" fill="#21242A"/>
<path id="Vector_119" fill-rule="evenodd" clip-rule="evenodd" d="M482.47 335.876L510.796 292.342L507.475 287.205L511.314 284.714L509.966 275.218C508.98 274.959 506.853 274.336 505.66 274.181C503.844 283.002 482.989 334.942 482.47 335.876Z" fill="#21242A"/>
<path id="Vector_120" fill-rule="evenodd" clip-rule="evenodd" d="M535.023 356.009L536.06 359.434L535.386 365.297C535.127 365.972 534.4 370.227 535.697 369.033C536.631 368.203 538.084 365.661 538.187 365.713C539.64 366.387 542.234 374.17 542.338 374.222C544.205 375.208 542.856 370.227 542.649 369.345C542.597 369.137 544.361 372.562 544.465 372.406C544.62 372.199 545.087 371.68 544.88 370.746C544.569 369.604 543.79 367.684 543.946 367.425C544.102 367.165 545.762 370.538 545.917 370.279C546.021 370.071 546.229 369.708 546.021 368.981C545.71 367.788 544.828 366.076 544.932 365.764C545.035 365.453 546.073 367.944 546.177 367.632C546.229 367.425 546.644 367.321 546.592 367.114C545.45 361.094 542.441 361.925 541.3 355.023C540.729 351.236 535.542 354.66 535.023 356.009Z" fill="#F7AAAC"/>
<g id="dollar">
<path id="Vector_121" d="M621.608 298.257C642.411 306.092 652.891 329.338 645.005 350.146C637.172 370.953 613.93 381.435 593.127 373.548C572.323 365.713 561.844 342.466 569.729 321.659C577.615 300.852 600.857 290.37 621.608 298.257Z" fill="#CED6E0"/>
<path id="Vector_122" d="M595.565 326.9C595.461 327.626 595.409 328.508 595.461 329.287L595.409 329.39C595.513 329.546 595.773 330.947 595.876 331.31C596.084 331.933 596.499 332.504 596.603 332.971C596.706 333.074 597.329 333.905 597.485 334.112C597.848 334.527 598.107 334.683 598.574 335.098C598.989 335.409 599.404 335.721 599.923 336.032C601.324 336.914 602.88 337.641 604.436 338.211C606.511 338.938 609.313 339.924 610.35 341.325C611.855 343.245 610.765 346.047 607.705 346.462C605.941 346.721 603.295 346.566 601.479 346.15C600.909 345.995 600.338 345.787 599.767 345.683C599.248 345.476 597.329 344.749 597.07 344.542L596.603 344.438C596.551 344.646 596.551 344.853 596.395 345.061C596.447 345.372 596.239 346.15 596.136 346.358C596.084 346.566 595.513 349.212 595.306 349.523C595.306 349.783 595.254 350.457 595.254 350.82C595.409 350.924 595.254 350.82 595.409 350.924L595.669 351.184C595.928 351.184 596.81 351.547 597.018 351.703L600.078 352.585L601.479 352.896L603.606 353.155C603.814 353.155 603.814 353.104 604.021 353.155L604.177 353.207C604.332 353.259 604.229 353.259 604.281 353.259L604.384 353.467C604.436 353.83 604.281 357.514 604.436 358.292H609.78C609.884 356.684 609.832 354.764 609.832 353.155C609.832 352.585 609.935 352.688 610.506 352.585C612.011 352.221 612.633 351.806 613.515 351.599C613.671 351.443 614.708 350.976 615.019 350.769C615.279 350.613 615.486 350.457 615.746 350.302C616.005 350.094 616.161 349.938 616.368 349.835C616.472 349.575 617.51 348.641 618.34 347.24C619.481 345.268 619.17 344.49 619.481 343.815V341.429C619.325 341.117 619.377 340.546 619.273 340.131C618.807 337.693 616.887 335.617 614.864 334.32C611.336 332.089 604.229 330.791 603.866 327.782C603.658 326.018 605.163 325.032 606.563 324.72C608.223 324.305 610.35 324.461 611.907 324.824C613.048 325.084 616.265 326.225 616.316 326.225C616.576 325.914 616.524 325.551 616.731 325.291C616.731 324.928 616.887 324.409 616.991 324.098C617.095 323.319 617.873 320.777 617.821 320.154C617.198 319.739 616.887 319.791 616.576 319.531H616.524C616.161 319.48 614.968 319.22 614.76 319.013C614.449 319.064 613.1 318.701 612.581 318.649C612.114 318.597 610.61 318.494 610.35 318.338C609.78 318.027 610.143 314.913 610.039 313.564H604.696C604.644 314.55 604.851 318.182 604.54 318.701C604.125 319.22 597.121 319.635 595.565 326.9Z" fill="white"/>
</g>
</g>
</svg>
