<svg width="100" height="100" viewBox="0 0 100 100" fill="none" xmlns="http://www.w3.org/2000/svg">
<g clip-path="url(#clip0_52_39)">
<path d="M92.4805 0H28.8496C28.0406 0 27.3848 0.655664 27.3848 1.46484C27.3848 2.27402 28.0406 2.92969 28.8496 2.92969H92.4805C95.0113 2.92969 97.0703 4.99063 97.0703 7.52383V68.26C97.0703 70.7932 95.0113 72.8541 92.4805 72.8541H79.1992V69.7109H86.4004C87.2094 69.7109 87.8652 69.0553 87.8652 68.2461V25.8434C87.8652 25.0342 87.2094 24.3785 86.4004 24.3785C85.5914 24.3785 84.9355 25.0342 84.9355 25.8434V66.7813H79.1992V64.7867C79.1992 60.0203 73.4377 56.9684 69.5045 60.0119C67.8711 56.5836 63.2906 55.4229 60.2273 57.9656C58.6127 55.049 54.7842 53.9525 51.8613 55.7096V51.4305H80.334C81.143 51.4305 81.7988 50.7748 81.7988 49.9656C81.7988 49.1564 81.143 48.5008 80.334 48.5008H51.8613V44.5016L59.4664 36.9029L64.091 41.9203C64.774 42.5297 65.4734 42.549 66.1889 41.9781L78.7553 29.7672C79.3355 29.2033 79.3488 28.276 78.785 27.6957C78.2211 27.1154 77.2937 27.1023 76.7137 27.666L65.226 38.8289L60.5871 33.7961C59.8961 33.0564 59.1311 33.1379 58.4748 33.7525L51.8617 40.36V33.157C51.8617 29.8723 49.1279 27.1342 45.8422 27.1342C42.5561 27.1342 39.8201 29.8752 39.8227 33.1607L39.8217 40.6045L36.9904 42.7211C36.3426 43.2055 36.193 44.1363 36.6943 44.7713C37.2562 45.4832 38.0205 45.5379 38.7447 45.0676L39.8215 44.2627L39.8209 48.5008H33.2637V19.6102C33.2637 18.801 32.6078 18.1453 31.7988 18.1453C30.9898 18.1453 30.334 18.801 30.334 19.6102V49.9656C30.334 50.7748 30.9898 51.4305 31.7988 51.4305H39.8201L39.8184 66.227C39.8184 67.068 39.0244 66.9432 38.7762 66.4402C36.3605 61.5471 32.9098 56.8729 27.1975 55.6158V13.5391C27.1975 12.7299 26.5416 12.0742 25.7326 12.0742C24.9236 12.0742 24.2678 12.7299 24.2678 13.5391V55.6123C21.7502 56.2348 20.0369 59.0854 21.2193 61.5582C22.0873 63.375 22.8594 65.1033 23.5701 66.7813H8.99609V9.0002H84.9355V19.4541C84.9355 20.2633 85.5914 20.9189 86.4004 20.9189C87.2094 20.9189 87.8652 20.2633 87.8652 19.4541V7.53535C87.8652 6.72617 87.2094 6.07051 86.4004 6.07051H7.53125C6.72227 6.07051 6.06641 6.72617 6.06641 7.53535V68.2461C6.06641 69.0553 6.72227 69.7109 7.53125 69.7109H24.7729C25.1936 70.7668 25.5973 71.8109 25.993 72.8539H7.51953C4.98867 72.8539 2.92969 70.793 2.92969 68.2598V7.52383C2.92969 4.99063 4.98867 2.92969 7.51953 2.92969H22.4648C23.2738 2.92969 23.9297 2.27402 23.9297 1.46484C23.9297 0.655664 23.2738 0 22.4648 0H7.51953C3.37324 0 0 3.375 0 7.52383V68.26C0 72.4086 3.37324 75.7838 7.51953 75.7838H27.0904C27.2395 76.1852 29.376 81.9545 30.4264 84.5932C31.3227 86.8412 33.2303 88.4449 34.9131 89.8598C37.6662 92.174 39.532 94.9033 39.7523 98.6219C40.0783 99.5797 40.5947 100.038 41.3012 99.9977C42.1088 99.9498 42.7248 99.2563 42.6768 98.4486C42.4053 93.866 40.2438 90.5135 36.7982 87.6172C35.31 86.366 33.7711 85.0723 33.1477 83.5088C32.1107 80.9037 26.2029 65.1945 23.8621 60.2949C23.627 59.8029 23.7076 59.3023 24.0838 58.9213C24.6539 58.3438 25.9404 58.0393 27.8424 58.9182C32.6393 61.134 33.7514 63.2277 36.1885 67.8148C37.0283 69.108 38.4303 69.9885 40.0564 69.5834C41.641 69.1887 42.7477 67.8086 42.7477 66.2273L42.7516 33.16C42.9266 31.2744 43.9566 30.2424 45.8414 30.0641C47.7254 30.2416 48.7553 31.2727 48.9313 33.1572L48.9314 67.5492C48.9314 68.3584 49.5873 69.0141 50.3963 69.0141C51.2053 69.0141 51.8611 68.3584 51.8611 67.5492L51.8609 60.8779C51.8609 59.1715 53.248 57.783 54.9527 57.783C56.8375 57.9613 57.8682 58.993 58.0445 60.8779L58.0441 67.5492C58.0441 68.3584 58.7 69.0141 59.509 69.0141C60.318 69.0141 60.9738 68.3584 60.9738 67.5492L60.9742 62.6039C60.9742 60.8973 62.3615 59.4746 64.066 59.5088C65.9176 59.5459 66.9807 60.7182 67.1559 62.6039L67.1566 67.5492C67.1566 68.3584 67.8125 69.0141 68.6215 69.0141C69.4305 69.0141 70.0863 68.3584 70.0863 67.5492C70.0863 67.5492 70.0855 64.8088 70.0855 64.7869C70.2625 62.9016 71.293 61.8699 73.1773 61.6918C75.0633 61.8688 76.0939 62.9004 76.2691 64.7869V79.0137C76.2691 79.8229 76.925 80.4785 77.734 80.4785C78.543 80.4785 79.1988 79.8229 79.1988 79.0137V75.7838H92.4801C96.6264 75.7838 99.9996 72.4088 99.9996 68.26V7.52383C100 3.375 96.6268 0 92.4805 0V0Z" fill="#F1F2F6"/>
<path d="M93.9328 40.9267V34.8557C93.9328 34.0465 93.2769 33.3908 92.468 33.3908C91.659 33.3908 91.0031 34.0465 91.0031 34.8557V40.9267C91.0031 41.7359 91.659 42.3916 92.468 42.3916C93.2769 42.3916 93.9328 41.7357 93.9328 40.9267Z" fill="#F1F2F6"/>
<path d="M19.6658 18.1453H13.5988C12.7898 18.1453 12.134 18.801 12.134 19.6102C12.134 20.4193 12.7898 21.075 13.5988 21.075H19.6656C20.4746 21.075 21.1305 20.4193 21.1305 19.6102C21.1305 18.801 20.4748 18.1453 19.6658 18.1453Z" fill="#F1F2F6"/>
<path d="M19.6658 24.2164H13.5988C12.7898 24.2164 12.134 24.8721 12.134 25.6813C12.134 26.4905 12.7898 27.1461 13.5988 27.1461H19.6656C20.4746 27.1461 21.1305 26.4905 21.1305 25.6813C21.1307 24.8721 20.4748 24.2164 19.6658 24.2164Z" fill="#F1F2F6"/>
<path d="M19.6658 30.2875H13.5988C12.7898 30.2875 12.134 30.9431 12.134 31.7523C12.134 32.5615 12.7898 33.2172 13.5988 33.2172H19.6656C20.4746 33.2172 21.1305 32.5615 21.1305 31.7523C21.1305 30.9431 20.4748 30.2875 19.6658 30.2875Z" fill="#F1F2F6"/>
<path d="M19.6658 36.3586H13.5988C12.7898 36.3586 12.134 37.0142 12.134 37.8234C12.134 38.6326 12.7898 39.2883 13.5988 39.2883H19.6656C20.4746 39.2883 21.1305 38.6326 21.1305 37.8234C21.1305 37.0142 20.4748 36.3586 19.6658 36.3586Z" fill="#F1F2F6"/>
<path d="M19.6658 42.4297H13.5988C12.7898 42.4297 12.134 43.0854 12.134 43.8945C12.134 44.7037 12.7898 45.3594 13.5988 45.3594H19.6656C20.4746 45.3594 21.1305 44.7037 21.1305 43.8945C21.1305 43.0854 20.4748 42.4297 19.6658 42.4297Z" fill="#F1F2F6"/>
<path d="M19.6658 48.5008H13.5988C12.7898 48.5008 12.134 49.1565 12.134 49.9656C12.134 50.7748 12.7898 51.4305 13.5988 51.4305H19.6656C20.4746 51.4305 21.1305 50.7748 21.1305 49.9656C21.1307 49.1567 20.4748 48.5008 19.6658 48.5008Z" fill="#F1F2F6"/>
<path d="M37.8662 15.0039H43.933C44.742 15.0039 45.3979 14.3482 45.3979 13.5391C45.3979 12.7299 44.742 12.0742 43.933 12.0742H37.8662C37.0572 12.0742 36.4014 12.7299 36.4014 13.5391C36.4014 14.348 37.0572 15.0039 37.8662 15.0039Z" fill="#F1F2F6"/>
<path d="M37.8662 21.075H50C50.809 21.075 51.4648 20.4193 51.4648 19.6102C51.4648 18.801 50.809 18.1453 50 18.1453H37.8662C37.0572 18.1453 36.4014 18.801 36.4014 19.6102C36.4014 20.4193 37.0572 21.075 37.8662 21.075Z" fill="#F1F2F6"/>
<path d="M77.7344 83.9362C76.9254 83.9362 76.2695 84.5918 76.2695 85.401V86.9313C76.2695 87.9448 75.825 88.902 75.051 89.5569C73.5812 90.8446 72.8287 92.4653 72.793 94.419V98.5334C72.793 99.3426 73.4488 99.9983 74.2578 99.9983C75.0668 99.9983 75.7227 99.3426 75.7227 98.5334V94.419C75.7414 93.3639 76.148 92.4889 76.9424 91.7942C78.3766 90.5803 79.1992 88.8078 79.1992 86.9311V85.4008C79.1992 84.5918 78.5434 83.9362 77.7344 83.9362Z" fill="#F1F2F6"/>
<path d="M65.8275 28.3494C66.6365 28.3494 67.2924 27.6937 67.2924 26.8846V25.752C69.024 25.3785 70.3258 23.8344 70.3258 21.9918C70.3258 19.8709 68.601 18.1455 66.4811 18.1455H65.1738C64.6693 18.1455 64.2588 17.7344 64.2588 17.2291C64.2588 16.7236 64.6693 16.3125 65.1738 16.3125H66.3418C66.6467 16.3125 66.9104 16.509 66.998 16.8016C67.2303 17.5766 68.0463 18.016 68.8219 17.7842C69.5967 17.552 70.0367 16.7354 69.8043 15.9604C69.4363 14.7328 68.4791 13.826 67.2922 13.5074V12.3359C67.2922 11.5268 66.6363 10.8711 65.8273 10.8711C65.0184 10.8711 64.3625 11.5268 64.3625 12.3359V13.4687C62.6309 13.8422 61.3291 15.3863 61.3291 17.2289C61.3291 19.3496 63.0539 21.075 65.1738 21.075H66.4811C66.9855 21.075 67.3961 21.4861 67.3961 21.9916C67.3961 22.4971 66.9855 22.9082 66.4811 22.9082H65.0066C64.7018 22.9082 64.4381 22.7115 64.3504 22.4189C64.1182 21.6441 63.3016 21.2041 62.5266 21.4367C61.7516 21.6689 61.3117 22.4855 61.5441 23.2605C61.9434 24.5918 63.0357 25.5459 64.3627 25.7814V26.8844C64.3627 27.6937 65.0186 28.3494 65.8275 28.3494Z" fill="#F1F2F6"/>
</g>
<defs>
<clipPath id="clip0_52_39">
<rect width="100" height="100" fill="white"/>
</clipPath>
</defs>
</svg>
